{
.appVersion = "3151";
.formatVersion = 3;
axes = (
{
name = Weight;
tag = wght;
}
);
classes = (
{
automatic = 1;
code = "A Aacute Abreve Acircumflex Adieresis Agrave Amacron Aogonek Aring Atilde AE B C Cacute Ccaron Ccedilla Ccircumflex Cdotaccent D Eth Dcaron Dcroat E Eacute Ecaron Ecircumflex Edieresis Edotaccent Egrave Emacron Eogonek Etilde Schwa F G Gbreve Gcircumflex Gcommaaccent Gdotaccent Gmacron H Hbar Hcircumflex I IJ Iacute Icircumflex Idieresis Idotaccent Igrave Imacron Iogonek Itilde J Jacute Jcircumflex K Kcommaaccent L Lacute Lcaron Lcommaaccent Lslash M N Nacute Ncaron Ncommaaccent Ntilde Eng O Oacute Ocircumflex Odieresis Ograve Ohungarumlaut Omacron Oslash Otilde OE P Thorn Q R Racute Rcaron Rcommaaccent S Sacute Saltillo Scaron Scedilla Scircumflex Scommaaccent Germandbls T Tcaron Tcedilla Tcommaaccent U Uacute Ubreve Ucircumflex Udieresis Ugrave Uhungarumlaut Umacron Uogonek Uring Utilde V W Wacute Wcircumflex Wdieresis Wgrave X Y Yacute Ycircumflex Ydieresis Ygrave Ytilde Z Zacute Zcaron Zdotaccent Iacute_J.loclNLD Lcommaaccent.loclMAH Ncommaaccent.loclMAH";
name = Uppercase;
}
);
customParameters = (
{
name = panose;
value = (
0,
0,
0,
0,
0,
0,
0,
0,
0,
0
);
},
{
name = fsType;
value = (
);
},
{
name = "Write lastChange";
value = 0;
},
{
name = "Use Typo Metrics";
value = 1;
},
{
name = "Use Line Breaks";
value = 1;
},
{
name = "Enforce Compatibility Check";
value = 1;
},
{
name = vendorID;
value = TBLD;
}
);
date = "2023-12-10 12:24:40 +0000";
familyName = Wittgenstein;
featurePrefixes = (
{
automatic = 1;
code = "languagesystem DFLT dflt;
languagesystem DFLT MAH;

languagesystem latn dflt;
languagesystem latn AZE;
languagesystem latn CRT;
languagesystem latn KAZ;
languagesystem latn TAT;
languagesystem latn TRK;
languagesystem latn ROM;
languagesystem latn MOL;
languagesystem latn MAH;
languagesystem latn NLD;
languagesystem latn CAT;
";
name = Languagesystems;
}
);
features = (
{
automatic = 1;
code = "feature locl;
feature numr;

glyphs = (
{
color = 6;
glyphname = A;
layers = (
{
anchors = (
{
name = ogo;
pos = (508,0);
},
{
name = top;
pos = (498,700);
}
);
layerId = m01;
shapes = (
{
closed = 1;
nodes = (
(198,0,l),
(202,19,l),
(98,56,l),
(104,33,l),
(232,258,l),
(205,241,l),
(508,241,l),
(487,258,l),
(526,33,l),
(542,56,l),
(427,20,l),
(423,0,l),
(707,0,l),
(711,19,l),
(607,56,l),
(628,33,l),
(518,720,l),
(419,700,l),
(49,33,l),
(77,56,l),
(-38,20,l),
(-42,0,l)
);
},
{
closed = 1;
nodes = (
(441,643,l),
(429,643,l),
(485,264,l),
(501,281,l),
(228,281,l),
(236,264,l)
);
}
);
width = 745;
},
{
anchors = (
{
name = top;
pos = (398,671);
}
);
associatedMasterId = m01;
layerId = "77F1F182-FFCF-4508-A517-31895B1E2DC0";
name = "1. Jan. 24, 22:37";
shapes = (
{
closed = 1;
nodes = (
(683,50,l),
(442,720,l),
(343,700,l),
(584,50,l)
);
},
{
closed = 1;
nodes = (
(248,0,l),
(248,19,l),
(154,50,l),
(99,50,l),
(8,20,l),
(8,0,l)
);
},
{
closed = 1;
nodes = (
(154,50,l),
(398,700,l),
(343,700,l),
(99,50,l)
);
},
{
closed = 1;
nodes = (
(540,241,l),
(540,281,l),
(194,281,l),
(194,241,l)
);
},
{
closed = 1;
nodes = (
(777,0,l),
(777,19,l),
(683,50,l),
(584,50,l),
(493,20,l),
(493,0,l)
);
}
);
width = 785;
},
{
anchors = (
{
name = ogo;
pos = (419,0);
},
{
name = top;
pos = (466,700);
}
);
background = {
shapes = (
{
closed = 1;
nodes = (
(222,0,l),
(222,20,l),
(129,50,l),
(129,648,l),
(222,680,l),
(222,700,l),
(-148,700,l),
(-148,680,l),
(-55,650,l),
(-55,50,l),
(-148,20,l),
(-148,0,l)
);
}
);
};
hints = (
{
horizontal = 1;
place = (0, 16);
place = (0, 16);
type = Stem;
},
{
horizontal = 1;
place = (238, 46);
place = (238, 46);
type = Stem;
},
{
horizontal = 1;
place = (715, -20);
target = down;
type = TopGhost;
},
{
place = (-35, 855);
place = (-35, 855);
type = Stem;
}
);
layerId = "E0989092-07D5-4BE4-A82B-4E03160A36DB";
shapes = (
{
closed = 1;
nodes = (
(173,0,l),
(176,20,l),
(71,57,l),
(70,48,l),
(180,240,l),
(175,238,l),
(432,238,l),
(429,240,l),
(464,48,l),
(465,51,l),
(364,20,l),
(361,0,l),
(731,0,l),
(734,20,l),
(658,47,l),
(660,44,l),
(563,715,l),
(370,700,l),
(17,48,l),
(20,51,l),
(-81,20,l),
(-84,0,l)
);
},
{
closed = 1;
nodes = (
(392,648,l),
(376,648,l),
(422,276,l),
(424,278,l),
(199,278,l),
(201,276,l)
);
}
);
width = 755;
}
);
unicode = 65;
},
{
color = 6;
glyphname = AE;
layers = (
{
layerId = m01;
shapes = (
{
closed = 1;
nodes = (
(826,0,l),
(899,197,l),
(882,204,l),
(760,34,l),
(789,50,l),
(507,50,l),
(521,32,l),
(585,359,l),
(563,341,l),
(735,341,l),
(714,359,l),
(730,245,l),
(749,245,l),
(793,475,l),
(773,475,l),
(715,363,l),
(743,381,l),
(571,381,l),
(586,363,l),
(645,668,l),
(623,650,l),
(910,650,l),
(891,667,l),
(903,520,l),
(924,520,l),
(959,700,l),
(556,700,l),
(556,698,l),
(34,34,l),
(63,56,l),
(-52,20,l),
(-56,0,l),
(184,0,l),
(188,19,l),
(84,56,l),
(89,34,l),
(227,227,l),
(198,211,l),
(479,211,l),
(464,229,l),
(420,0,l)
);
},
{
closed = 1;
nodes = (
(547,614,l),
(540,616,l),
(465,233,l),
(487,251,l),
(227,251,l),
(234,235,l)
);
}
);
width = 941;
},
{
associatedMasterId = m01;
layerId = "65F6BFA4-FC38-41E6-9ED1-2CEBC3AB3BF6";
name = "2. Jan. 24, 00:57";
shapes = (
{
closed = 1;
nodes = (
(894,0,l),
(929,197,l),
(910,204,l),
(829,50,l),
(543,50,l),
(543,341,l),
(719,341,l),
(719,339,l),
(750,245,l),
(769,245,l),
(769,475,l),
(749,475,l),
(719,384,l),
(719,381,l),
(543,381,l),
(543,650,l),
(834,650,l),
(870,520,l),
(891,520,l),
(891,700,l),
(448,700,l),
(448,0,l)
);
},
{
closed = 1;
nodes = (
(252,0,l),
(252,19,l),
(158,50,l),
(103,50,l),
(12,20,l),
(12,0,l)
);
},
{
closed = 1;
nodes = (
(514,211,l),
(514,251,l),
(218,251,l),
(218,211,l)
);
},
{
closed = 1;
nodes = (
(158,50,l),
(502,700,l),
(449,700,l),
(103,50,l)
);
}
);
width = 941;
},
{
hints = (
{
horizontal = 1;
place = (-71, -12);
place = (-71, -12);
type = Stem;
},
{
horizontal = 1;
place = (140, -22);
place = (140, -22);
type = Stem;
},
{
horizontal = 1;
place = (270, -22);
place = (270, -22);
type = Stem;
},
{
horizontal = 1;
place = (579, -12);
place = (579, -12);
type = Stem;
},
{
place = (430, 97);
place = (430, 97);
type = Stem;
},
{
place = (686, 17);
place = (686, 17);
type = Stem;
},
{
place = (719, -16);
place = (719, -16);
type = Stem;
},
{
place = (718, -15);
place = (718, -15);
type = Stem;
},
{
place = (854, -12);
place = (854, -12);
type = Stem;
},
{
horizontal = 1;
place = (449, 118);
place = (449, 118);
type = Stem;
},
{
horizontal = 1;
place = (-68, -52);
place = (-68, -52);
type = Stem;
}
);
layerId = "E0989092-07D5-4BE4-A82B-4E03160A36DB";
shapes = (
{
closed = 1;
nodes = (
(910,-3,l),
(983,190,l),
(961,224,l),
(837,51,l),
(840,53,l),
(602,53,l),
(604,51,l),
(660,340,l),
(658,338,l),
(774,338,l),
(771,340,l),
(786,242,l),
(818,242,l),
(864,478,l),
(831,478,l),
(779,382,l),
(783,384,l),
(667,384,l),
(668,382,l),
(720,649,l),
(718,647,l),
(956,647,l),
(953,649,l),
(964,517,l),
(1010,517,l),
(1047,703,l),
(547,703,l),
(544,690,l),
(45,45,l),
(48,48,l),
(-53,17,l),
(-56,0,l),
(182,0,l),
(185,16,l),
(100,47,l),
(101,44,l),
(234,210,l),
(230,208,l),
(452,208,l),
(451,210,l),
(409,-3,l)
);
},
{
closed = 1;
nodes = (
(526,594,l),
(525,594,l),
(459,252,l),
(461,254,l),
(269,254,l),
(270,252,l)
);
}
);
width = 1026;
}
);
unicode = 198;
},
{
color = 6;
glyphname = B;
layers = (
{
anchors = (
{
name = top;
pos = (364,700);
}
);
layerId = m01;
shapes = (
{
closed = 1;
nodes = (
(246,0,ls),
(417,0,o),
(539,79,o),
(564,205,cs),
(581,291,o),
(531,352,o),
(434,372,c),
(435,363,l),
(515,396,o),
(573,459,o),
(588,537,cs),
(607,632,o),
(534,700,o),
(412,700,cs),
(92,700,l),
(88,680,l),
(189,644,l),
(177,668,l),
(53,32,l),
(75,56,l),
(-40,20,l),
(-44,0,l)
);
},
{
closed = 1;
nodes = (
(212,359,l),
(190,341,l),
(312,341,ls),
(415,341,o),
(468,278,o),
(448,177,cs),
(433,99,o),
(371,50,o),
(286,50,cs),
(134,50,l),
(148,32,l)
);
},
{
closed = 1;
nodes = (
(272,668,l),
(250,650,l),
(372,650,ls),
(447,650,o),
(489,590,o),
(472,505,cs),
(458,432,o),
(407,381,o),
(350,381,cs),
(198,381,l),
(213,363,l)
);
}
);
width = 610;
},
{
anchors = (
{
name = top;
pos = (306,700);
}
);
associatedMasterId = m01;
layerId = "4784B320-B7C0-473D-AF98-435A13D7944F";
name = "1. Jan. 24, 22:48";
shapes = (
{
closed = 1;
nodes = (
(495,0,o),
(602,79,o),
(602,205,cs),
(602,313,o),
(506,381,o),
(354,381,c),
(324,341,l),
(427,341,o),
(492,278,o),
(492,177,cs),
(492,99,o),
(439,50,o),
(354,50,c),
(324,0,l)
);
},
{
closed = 1;
nodes = (
(324,0,l),
(354,50,l),
(125,50,l),
(34,20,l),
(34,0,l)
);
},
{
closed = 1;
nodes = (
(220,50,l),
(220,650,l),
(125,650,l),
(125,50,l)
);
},
{
closed = 1;
nodes = (
(324,341,l),
(354,381,l),
(190,381,l),
(190,341,l)
);
},
{
closed = 1;
nodes = (
(324,650,l),
(354,700,l),
(34,700,l),
(34,680,l),
(125,650,l)
);
},
{
closed = 1;
nodes = (
(463,341,o),
(562,422,o),
(562,537,cs),
(562,632,o),
(476,700,o),
(354,700,c),
(324,650,l),
(399,650,o),
(452,590,o),
(452,505,cs),
(452,432,o),
(411,381,o),
(354,381,c),
(324,341,l)
);
}
);
width = 660;
},
{
anchors = (
{
name = top;
pos = (397,700);
}
);
hints = (
{
horizontal = 1;
place = (-68, -15);
place = (-68, -15);
type = Stem;
},
{
horizontal = 1;
place = (270, -22);
place = (270, -22);
type = Stem;
},
{
horizontal = 1;
place = (579, -15);
place = (579, -15);
type = Stem;
},
{
place = (-20, 114);
place = (-20, 114);
type = Stem;
},
{
place = (347, 129);
place = (347, 129);
type = Stem;
},
{
place = (307, 129);
place = (307, 129);
type = Stem;
},
{
horizontal = 1;
place = (619, -55);
place = (619, -55);
type = Stem;
}
);
layerId = "E0989092-07D5-4BE4-A82B-4E03160A36DB";
shapes = (
{
closed = 1;
nodes = (
(244,0,ls),
(440,0,o),
(595,81,o),
(617,195,cs),
(631,268,o),
(576,341,o),
(485,370,c),
(485,368,l),
(564,398,o),
(630,468,o),
(643,537,cs),
(662,632,o),
(581,700,o),
(447,700,cs),
(60,700,l),
(58,687,l),
(141,646,l),
(139,649,l),
(23,51,l),
(25,54,l),
(-74,13,l),
(-76,0,l)
);
},
{
closed = 1;
nodes = (
(263,338,l),
(260,336,l),
(323,336,ls),
(404,336,o),
(449,270,o),
(431,177,cs),
(417,103,o),
(360,50,o),
(294,50,cs),
(205,50,l),
(206,48,l)
);
},
{
closed = 1;
nodes = (
(324,652,l),
(321,650,l),
(387,650,ls),
(443,650,o),
(472,590,o),
(455,505,cs),
(442,435,o),
(401,386,o),
(358,386,cs),
(270,386,l),
(272,384,l)
);
}
);
width = 665;
}
);
unicode = 66;
},
{
color = 6;
glyphname = C;
layers = (
{
anchors = (
{
name = ced;
pos = (347,0);
},
{
name = top;
pos = (512,700);
}
);
layerId = m01;
shapes = (
{
closed = 1;
nodes = (
(402,-15,o),
(506,13,o),
(586,52,c),
(615,200,l),
(577,200,l),
(557,97,o),
(469,24,o),
(364,24,cs),
(214,24,o),
(139,186,o),
(184,415,cs),
(213,568,o),
(323,676,o),
(450,676,cs),
(560,676,o),
(651,582,o),
(635,500,c),
(673,500,l),
(702,648,l),
(638,687,o),
(545,715,o),
(478,715,cs),
(276,713,o),
(103,561,o),
(61,347,cs),
(20,135,o),
(134,-15,o),
(336,-15,cs)
);
}
);
width = 680;
},
{
anchors = (
{
name = ced;
pos = (395,0);
},
{
name = top;
pos = (367,700);
}
);
associatedMasterId = m01;
layerId = "25A143D6-1FAB-478C-920D-4B3D556C234A";
name = "1. Jan. 24, 22:49";
shapes = (
{
closed = 1;
nodes = (
(407,24,l),
(257,24,o),
(151,186,o),
(151,415,cs),
(151,568,o),
(240,676,o),
(367,676,c),
(387,715,l),
(185,713,o),
(42,561,o),
(42,347,cs),
(42,135,o),
(185,-15,o),
(387,-15,c)
);
},
{
closed = 1;
nodes = (
(453,-15,o),
(552,13,o),
(624,52,c),
(624,200,l),
(586,200,l),
(586,97,o),
(512,24,o),
(407,24,c),
(387,-15,l)
);
},
{
closed = 1;
nodes = (
(624,500,l),
(624,648,l),
(552,687,o),
(454,715,o),
(387,715,c),
(367,676,l),
(477,676,o),
(586,582,o),
(586,500,c)
);
}
);
width = 700;
},
{
anchors = (
{
name = ced;
pos = (361,0);
},
{
name = top;
pos = (527,700);
}
);
hints = (
{
horizontal = 1;
place = (-86, -23);
place = (-86, -23);
type = Stem;
},
{
horizontal = 1;
place = (605, -23);
place = (605, -23);
type = Stem;
},
{
place = (-69, 127);
place = (-69, 127);
type = Stem;
},
{
place = (521, 10);
place = (521, 10);
type = Stem;
}
);
layerId = "E0989092-07D5-4BE4-A82B-4E03160A36DB";
shapes = (
{
closed = 1;
nodes = (
(449,-18,o),
(542,15,o),
(623,62,c),
(650,203,l),
(600,203,l),
(582,100,o),
(485,32,o),
(383,32,cs),
(260,32,o),
(203,188,o),
(247,415,cs),
(276,566,o),
(369,668,o),
(469,668,cs),
(607,668,o),
(684,614,o),
(658,497,c),
(708,497,l),
(735,638,l),
(672,685,o),
(591,718,o),
(499,718,cs),
(272,720,o),
(81,566,o),
(38,347,cs),
(-3,133,o),
(128,-18,o),
(357,-18,cs)
);
}
);
width = 713;
}
);
unicode = 67;
},
{
color = 6;
glyphname = D;
layers = (
{
anchors = (
{
name = top;
pos = (465,700);
}
);
layerId = m01;
shapes = (
{
closed = 1;
nodes = (
(289,0,ls),
(487,0,o),
(658,160,o),
(702,385,cs),
(738,569,o),
(635,700,o),
(455,700,cs),
(95,700,l),
(91,680,l),
(192,644,l),
(180,668,l),
(56,32,l),
(78,56,l),
(-37,20,l),
(-41,0,l)
);
},
{
closed = 1;
nodes = (
(275,668,l),
(253,650,l),
(415,650,ls),
(549,650,o),
(619,523,o),
(584,344,cs),
(550,172,o),
(445,50,o),
(329,50,cs),
(137,50,l),
(151,32,l)
);
}
);
width = 734;
},
{
anchors = (
{
name = top;
pos = (334,700);
}
);
associatedMasterId = m01;
layerId = "D0A44D90-46C3-4D09-9D47-6B4D893B9BFC";
name = "1. Jan. 24, 22:50";
shapes = (
{
closed = 1;
nodes = (
(560,0,o),
(700,160,o),
(700,385,cs),
(700,569,o),
(572,700,o),
(392,700,c),
(362,650,l),
(496,650,o),
(590,523,o),
(590,344,cs),
(590,172,o),
(508,50,o),
(392,50,c),
(362,0,l)
);
},
{
closed = 1;
nodes = (
(362,0,l),
(392,50,l),
(123,50,l),
(32,20,l),
(32,0,l)
);
},
{
closed = 1;
nodes = (
(218,50,l),
(218,650,l),
(123,650,l),
(123,50,l)
);
},
{
closed = 1;
nodes = (
(362,650,l),
(392,700,l),
(32,700,l),
(32,680,l),
(123,650,l)
);
}
);
width = 754;
},
{
anchors = (
{
name = top;
pos = (417,700);
}
);
hints = (
{
horizontal = 1;
place = (-68, -21);
place = (-68, -21);
type = Stem;
},
{
horizontal = 1;
place = (585, -21);
place = (585, -21);
type = Stem;
},
{
place = (-5, 114);
place = (-5, 114);
type = Stem;
},
{
place = (462, 129);
place = (462, 129);
type = Stem;
},
{
horizontal = 1;
place = (619, -55);
place = (619, -55);
type = Stem;
}
);
layerId = "E0989092-07D5-4BE4-A82B-4E03160A36DB";
shapes = (
{
closed = 1;
nodes = (
(279,0,ls),
(507,0,o),
(700,160,o),
(744,385,cs),
(780,569,o),
(658,700,o),
(450,700,cs),
(50,700,l),
(48,687,l),
(134,654,l),
(133,657,l),
(14,44,l),
(16,47,l),
(-83,17,l),
(-86,0,l)
);
},
{
closed = 1;
nodes = (
(314,652,l),
(311,650,l),
(407,650,ls),
(519,650,o),
(588,525,o),
(553,344,cs),
(519,170,o),
(415,50,o),
(322,50,cs),
(195,50,l),
(196,48,l)
);
}
);
width = 774;
}
);
unicode = 68;
},
{
color = 6;
glyphname = Eth;
layers = (
{
layerId = m01;
shapes = (
{
closed = 1;
nodes = (
(348,337,l),
(356,379,l),
(36,379,l),
(28,337,l)
);
},
{
ref = D;
}
);
width = 754;
},
{
hints = (
{
horizontal = 1;
place = (-3, 56);
place = (-3, 56);
type = Stem;
},
{
horizontal = 1;
place = (334, 48);
place = (334, 48);
type = Stem;
},
{
horizontal = 1;
place = (647, 56);
place = (647, 56);
type = Stem;
},
{
place = (80, 181);
place = (80, 181);
type = Stem;
},
{
place = (547, 196);
place = (547, 196);
type = Stem;
},
{
horizontal = 1;
place = (687, 16);
place = (687, 16);
type = Stem;
}
);
layerId = "E0989092-07D5-4BE4-A82B-4E03160A36DB";
shapes = (
{
closed = 1;
nodes = (
(390,334,l),
(400,382,l),
(-6,382,l),
(-16,334,l)
);
},
{
ref = D;
}
);
width = 754;
}
);
unicode = 208;
},
{
color = 6;
glyphname = E;
layers = (
{
anchors = (
{
name = ogo;
pos = (235,0);
},
{
name = top;
pos = (425,700);
}
);
layerId = m01;
shapes = (
{
closed = 1;
nodes = (
(491,0,l),
(564,197,l),
(547,204,l),
(425,34,l),
(454,50,l),
(132,50,l),
(146,32,l),
(210,359,l),
(188,341,l),
(400,341,l),
(380,358,l),
(395,245,l),
(414,245,l),
(458,475,l),
(438,475,l),
(382,364,l),
(408,381,l),
(196,381,l),
(211,363,l),
(270,668,l),
(248,650,l),
(575,650,l),
(556,667,l),
(568,520,l),
(589,520,l),
(624,700,l),
(90,700,l),
(86,680,l),
(187,644,l),
(175,668,l),
(51,32,l),
(73,56,l),
(-42,20,l),
(-46,0,l)
);
}
);
width = 609;
},
{
anchors = (
{
name = top;
pos = (334,700);
}
);
associatedMasterId = m01;
layerId = "FEC74467-989F-442E-8B17-9EE45420A350";
name = "2. Jan. 24, 00:41";
shapes = (
{
closed = 1;
nodes = (
(218,50,l),
(218,650,l),
(123,650,l),
(123,50,l)
);
},
{
closed = 1;
nodes = (
(504,0,l),
(504,50,l),
(123,50,l),
(32,20,l),
(32,0,l)
);
},
{
closed = 1;
nodes = (
(569,0,l),
(604,197,l),
(585,204,l),
(504,50,l),
(504,0,l)
);
},
{
closed = 1;
nodes = (
(444,341,l),
(444,381,l),
(188,381,l),
(188,341,l)
);
},
{
closed = 1;
nodes = (
(444,245,l),
(444,475,l),
(424,475,l),
(394,384,l),
(394,339,l),
(425,245,l)
);
},
{
closed = 1;
nodes = (
(509,650,l),
(509,700,l),
(32,700,l),
(32,680,l),
(123,650,l)
);
},
{
closed = 1;
nodes = (
(566,520,l),
(566,700,l),
(509,700,l),
(509,650,l),
(545,520,l)
);
}
);
width = 649;
},
{
anchors = (
{
name = ogo;
pos = (265,0);
},
{
name = top;
pos = (432,700);
}
);
hints = (
{
horizontal = 1;
place = (-68, -21);
place = (-68, -21);
type = Stem;
},
{
horizontal = 1;
place = (275, -30);
place = (275, -30);
type = Stem;
},
{
horizontal = 1;
place = (585, -21);
place = (585, -21);
type = Stem;
},
{
place = (-5, 114);
place = (-5, 114);
type = Stem;
},
{
place = (350, -32);
place = (350, -32);
type = Stem;
},
{
place = (485, -28);
place = (485, -28);
type = Stem;
},
{
place = (349, -31);
place = (349, -31);
type = Stem;
},
{
horizontal = 1;
place = (449, 115);
place = (449, 115);
type = Stem;
},
{
horizontal = 1;
place = (619, -55);
place = (619, -55);
type = Stem;
}
);
layerId = "E0989092-07D5-4BE4-A82B-4E03160A36DB";
shapes = (
{
closed = 1;
nodes = (
(546,0,l),
(618,190,l),
(589,206,l),
(475,48,l),
(479,50,l),
(207,50,l),
(208,48,l),
(265,339,l),
(262,337,l),
(387,337,l),
(385,339,l),
(407,242,l),
(427,242,l),
(473,478,l),
(452,478,l),
(394,385,l),
(397,387,l),
(272,387,l),
(274,385,l),
(326,652,l),
(323,650,l),
(596,650,l),
(594,652,l),
(605,517,l),
(645,517,l),
(681,700,l),
(60,700,l),
(58,687,l),
(144,654,l),
(143,657,l),
(23,43,l),
(26,46,l),
(-74,13,l),
(-76,0,l)
);
}
);
width = 649;
}
);
unicode = 69;
},
{
color = 6;
glyphname = Schwa;
layers = (
{
layerId = m01;
shapes = (
{
closed = 1;
nodes = (
(364,-14,o),
(506,145,o),
(551,370,cs),
(592,570,o),
(513,712,o),
(359,712,cs),
(275,712,o),
(172,659,o),
(113,585,c),
(145,566,l),
(191,609,o),
(259,640,o),
(310,640,cs),
(432,640,o),
(492,506,o),
(449,311,c),
(470,327,l),
(55,327,l),
(2,130,o),
(65,-14,o),
(208,-14,cs)
);
},
{
closed = 1;
nodes = (
(159,29,o),
(108,136,o),
(133,301,c),
(114,281,l),
(465,287,l),
(450,304,l),
(423,143,o),
(341,29,o),
(254,29,cs)
);
}
);
width = 600;
},
{
layerId = "E0989092-07D5-4BE4-A82B-4E03160A36DB";
shapes = (
{
closed = 1;
nodes = (
(402,-17,o),
(550,148,o),
(594,370,cs),
(634,565,o),
(550,715,o),
(359,715,cs),
(255,715,o),
(129,651,o),
(79,590,c),
(158,544,l),
(219,611,o),
(271,637,o),
(309,637,cs),
(392,637,o),
(444,513,o),
(407,320,c),
(410,322,l),
(11,325,l),
(-44,125,o),
(28,-17,o),
(208,-17,cs)
);
},
{
closed = 1;
nodes = (
(198,32,o),
(146,70,o),
(169,277,c),
(166,274,l),
(405,284,l),
(404,286,l),
(372,128,o),
(300,32,o),
(254,32,cs)
);
}
);
width = 600;
}
);
unicode = 399;
},
{
color = 6;
glyphname = F;
layers = (
{
anchors = (
{
name = top;
pos = (406,700);
}
);
layerId = m01;
shapes = (
{
closed = 1;
nodes = (
(264,0,l),
(268,19,l),
(144,55,l),
(156,32,l),
(220,359,l),
(198,341,l),
(410,341,l),
(390,358,l),
(405,245,l),
(424,245,l),
(468,475,l),
(448,475,l),
(392,364,l),
(418,381,l),
(206,381,l),
(221,363,l),
(280,668,l),
(258,650,l),
(585,650,l),
(566,667,l),
(578,520,l),
(599,520,l),
(634,700,l),
(100,700,l),
(96,680,l),
(197,644,l),
(185,668,l),
(61,32,l),
(83,56,l),
(-32,20,l),
(-36,0,l)
);
}
);
width = 607;
},
{
anchors = (
{
name = top;
pos = (338,700);
}
);
associatedMasterId = m01;
layerId = "41430A1B-FDF3-479E-A5F3-835DC2B9B194";
name = "1. Jan. 24, 22:56";
shapes = (
{
closed = 1;
nodes = (
(218,50,l),
(218,650,l),
(123,650,l),
(123,50,l)
);
},
{
closed = 1;
nodes = (
(332,0,l),
(332,19,l),
(218,50,l),
(123,50,l),
(32,20,l),
(32,0,l)
);
},
{
closed = 1;
nodes = (
(444,341,l),
(444,381,l),
(188,381,l),
(188,341,l)
);
},
{
closed = 1;
nodes = (
(444,245,l),
(444,475,l),
(424,475,l),
(394,384,l),
(394,339,l),
(425,245,l)
);
},
{
closed = 1;
nodes = (
(509,650,l),
(509,700,l),
(32,700,l),
(32,680,l),
(123,650,l)
);
},
{
closed = 1;
nodes = (
(566,520,l),
(566,700,l),
(509,700,l),
(509,650,l),
(545,520,l)
);
}
);
width = 597;
},
{
anchors = (
{
name = top;
pos = (426,700);
}
);
hints = (
{
horizontal = 1;
place = (-68, -51);
place = (-68, -51);
type = Stem;
},
{
horizontal = 1;
place = (270, -22);
place = (270, -22);
type = Stem;
},
{
horizontal = 1;
place = (585, -21);
place = (585, -21);
type = Stem;
},
{
place = (-5, 114);
place = (-5, 114);
type = Stem;
},
{
place = (301, 17);
place = (301, 17);
type = Stem;
},
{
place = (334, -16);
place = (334, -16);
type = Stem;
},
{
place = (333, -15);
place = (333, -15);
type = Stem;
},
{
place = (452, 5);
place = (452, 5);
type = Stem;
},
{
horizontal = 1;
place = (445, 119);
place = (445, 119);
type = Stem;
},
{
horizontal = 1;
place = (615, -51);
place = (615, -51);
type = Stem;
}
);
layerId = "E0989092-07D5-4BE4-A82B-4E03160A36DB";
shapes = (
{
closed = 1;
nodes = (
(311,0,l),
(314,17,l),
(204,47,l),
(206,44,l),
(263,338,l),
(260,336,l),
(388,336,l),
(386,338,l),
(408,242,l),
(428,242,l),
(474,478,l),
(453,478,l),
(395,384,l),
(398,386,l),
(270,386,l),
(272,384,l),
(324,652,l),
(321,650,l),
(562,650,l),
(560,652,l),
(572,513,l),
(612,513,l),
(648,700,l),
(60,700,l),
(57,683,l),
(142,653,l),
(140,656,l),
(22,44,l),
(24,47,l),
(-73,17,l),
(-76,0,l)
);
}
);
width = 634;
}
);
unicode = 70;
},
{
color = 6;
glyphname = G;
layers = (
{
anchors = (
{
name = com;
pos = (368,-2);
},
{
name = top;
pos = (498,700);
}
);
layerId = m01;
shapes = (
{
closed = 1;
nodes = (
(445,-15,o),
(562,14,o),
(639,54,c),
(681,268,l),
(660,242,l),
(748,281,l),
(751,300,l),
(461,300,l),
(457,280,l),
(600,246,l),
(586,268,l),
(548,71,l),
(561,98,l),
(511,53,o),
(447,24,o),
(387,24,cs),
(225,24,o),
(142,186,o),
(187,415,cs),
(216,568,o),
(335,676,o),
(473,676,cs),
(601,676,o),
(678,603,o),
(658,500,c),
(696,500,l),
(725,648,l),
(663,687,o),
(570,715,o),
(501,715,cs),
(287,713,o),
(106,561,o),
(64,347,cs),
(23,135,o),
(145,-15,o),
(359,-15,cs)
);
}
);
width = 747;
},
{
anchors = (
{
name = com;
pos = (406,-2);
},
{
name = top;
pos = (390,700);
}
);
associatedMasterId = m01;
layerId = "39080339-8871-4078-9D60-13CA8196ECF6";
name = "1. Jan. 24, 22:59";
shapes = (
{
closed = 1;
nodes = (
(420,24,l),
(258,24,o),
(144,186,o),
(144,415,cs),
(144,568,o),
(242,676,o),
(380,676,c),
(400,715,l),
(186,713,o),
(35,561,o),
(35,347,cs),
(35,135,o),
(186,-15,o),
(400,-15,c)
);
},
{
closed = 1;
nodes = (
(486,-15,o),
(597,14,o),
(667,54,c),
(667,150,l),
(621,160,l),
(587,80,o),
(504,24,o),
(420,24,c),
(400,-15,l)
);
},
{
closed = 1;
nodes = (
(667,54,l),
(667,250,l),
(572,250,l),
(572,54,l)
);
},
{
closed = 1;
nodes = (
(667,250,l),
(731,281,l),
(731,300,l),
(441,300,l),
(441,280,l),
(572,250,l)
);
},
{
closed = 1;
nodes = (
(637,500,l),
(637,648,l),
(565,687,o),
(466,715,o),
(400,715,c),
(380,676,l),
(508,676,o),
(599,603,o),
(599,500,c)
);
}
);
width = 737;
},
{
anchors = (
{
name = com;
pos = (399,-8);
},
{
name = top;
pos = (521,700);
}
);
background = {
shapes = (
{
closed = 0;
nodes = (
(440,676,ls),
(573,676,o),
(667,609,o),
(667,515,c),
(730,515,l),
(730,647,l),
(671,687,o),
(551,716,o),
(440,716,cs)
);
}
);
};
hints = (
{
horizontal = 1;
place = (-86, -23);
place = (-86, -23);
type = Stem;
},
{
horizontal = 1;
place = (221, -54);
place = (221, -54);
type = Stem;
},
{
horizontal = 1;
place = (605, -23);
place = (605, -23);
type = Stem;
},
{
place = (-76, 127);
place = (-76, 127);
type = Stem;
},
{
place = (461, 113);
place = (461, 113);
type = Stem;
},
{
horizontal = 1;
place = (217, -50);
place = (217, -50);
type = Stem;
},
{
horizontal = 1;
place = (429, 73);
place = (429, 73);
type = Stem;
},
{
place = (538, 6);
place = (538, 6);
type = Stem;
}
);
layerId = "E0989092-07D5-4BE4-A82B-4E03160A36DB";
shapes = (
{
closed = 1;
nodes = (
(505,-16,o),
(638,11,o),
(704,51,c),
(743,254,l),
(741,252,l),
(812,289,l),
(815,305,l),
(439,305,l),
(435,285,l),
(561,253,l),
(560,256,l),
(522,60,l),
(523,63,l),
(495,38,o),
(447,23,o),
(406,23,c),
(275,47,o),
(209,208,o),
(250,415,cs),
(279,568,o),
(380,675,o),
(493,675,cs),
(633,675,o),
(698,609,o),
(679,515,c),
(762,515,l),
(788,647,l),
(739,687,o),
(629,716,o),
(524,716,cs),
(284,718,o),
(84,566,o),
(41,347,cs),
(0,133,o),
(141,-16,o),
(382,-16,cs)
);
}
);
width = 787;
}
);
unicode = 71;
},
{
color = 6;
glyphname = H;
layers = (
{
anchors = (
{
name = top;
pos = (504,700);
}
);
layerId = m01;
shapes = (
{
closed = 1;
nodes = (
(235,0,l),
(239,19,l),
(135,56,l),
(147,32,l),
(210,353,l),
(188,335,l),
(614,335,l),
(600,353,l),
(537,32,l),
(559,56,l),
(444,20,l),
(440,0,l),
(720,0,l),
(724,19,l),
(620,56,l),
(632,32,l),
(756,668,l),
(734,644,l),
(852,681,l),
(856,700,l),
(576,700,l),
(572,680,l),
(673,644,l),
(661,668,l),
(600,357,l),
(622,375,l),
(196,375,l),
(210,357,l),
(271,668,l),
(249,644,l),
(367,681,l),
(371,700,l),
(91,700,l),
(87,680,l),
(188,644,l),
(176,668,l),
(52,32,l),
(74,56,l),
(-41,20,l),
(-45,0,l)
);
}
);
width = 776;
},
{
associatedMasterId = m01;
layerId = "015B11CA-0731-4F8C-9479-89012C1F2E0D";
name = "1. Jan. 24, 23:01";
shapes = (
{
closed = 1;
nodes = (
(699,50,l),
(699,650,l),
(604,650,l),
(604,50,l)
);
},
{
closed = 1;
nodes = (
(308,0,l),
(308,19,l),
(214,50,l),
(119,50,l),
(28,20,l),
(28,0,l)
);
},
{
closed = 1;
nodes = (
(214,50,l),
(214,650,l),
(119,650,l),
(119,50,l)
);
},
{
closed = 1;
nodes = (
(793,0,l),
(793,19,l),
(699,50,l),
(604,50,l),
(513,20,l),
(513,0,l)
);
},
{
closed = 1;
nodes = (
(649,335,l),
(649,375,l),
(163,375,l),
(163,335,l)
);
},
{
closed = 1;
nodes = (
(214,650,l),
(308,681,l),
(308,700,l),
(28,700,l),
(28,680,l),
(119,650,l)
);
},
{
closed = 1;
nodes = (
(699,650,l),
(793,681,l),
(793,700,l),
(513,700,l),
(513,680,l),
(604,650,l)
);
}
);
width = 821;
},
{
anchors = (
{
name = top;
pos = (423,700);
}
);
background = {
shapes = (
{
closed = 1;
nodes = (
(368,0,l),
(368,20,l),
(275,50,l),
(275,648,l),
(368,680,l),
(368,700,l),
(-2,700,l),
(-2,680,l),
(91,650,l),
(91,50,l),
(-2,20,l),
(-2,0,l)
);
},
{
closed = 1;
nodes = (
(848,0,l),
(848,20,l),
(755,50,l),
(755,648,l),
(848,680,l),
(848,700,l),
(478,700,l),
(478,680,l),
(571,650,l),
(571,50,l),
(478,20,l),
(478,0,l)
);
}
);
};
hints = (
{
horizontal = 1;
place = (0, 16);
place = (0, 16);
type = Stem;
},
{
horizontal = 1;
place = (332, 46);
place = (332, 46);
type = Stem;
},
{
horizontal = 1;
place = (684, 16);
place = (684, 16);
type = Stem;
},
{
place = (76, 181);
place = (76, 181);
type = Stem;
},
{
place = (561, 181);
place = (561, 181);
type = Stem;
}
);
layerId = "E0989092-07D5-4BE4-A82B-4E03160A36DB";
shapes = (
{
closed = 1;
nodes = (
(300,0,l),
(304,20,l),
(215,51,l),
(216,48,l),
(272,332,l),
(269,330,l),
(569,330,l),
(568,332,l),
(512,48,l),
(515,51,l),
(414,20,l),
(410,0,l),
(780,0,l),
(784,20,l),
(695,51,l),
(696,48,l),
(813,650,l),
(811,647,l),
(912,680,l),
(916,700,l),
(546,700,l),
(542,680,l),
(631,649,l),
(630,652,l),
(576,378,l),
(579,380,l),
(279,380,l),
(280,378,l),
(333,650,l),
(331,647,l),
(432,680,l),
(436,700,l),
(66,700,l),
(62,680,l),
(151,649,l),
(150,652,l),
(32,48,l),
(35,51,l),
(-66,20,l),
(-70,0,l)
);
}
);
width = 836;
}
);
unicode = 72;
},
{
color = 6;
glyphname = Hbar;
layers = (
{
layerId = m01;
shapes = (
{
closed = 1;
nodes = (
(771,519,l),
(779,559,l),
(61,559,l),
(53,519,l)
);
},
{
ref = H;
}
);
width = 821;
},
{
hints = (
{
horizontal = 1;
place = (0, 16);
place = (0, 16);
type = Stem;
},
{
horizontal = 1;
place = (332, 46);
place = (332, 46);
type = Stem;
},
{
horizontal = 1;
place = (516, 46);
place = (516, 46);
type = Stem;
},
{
horizontal = 1;
place = (684, 16);
place = (684, 16);
type = Stem;
},
{
place = (76, 181);
place = (76, 181);
type = Stem;
},
{
place = (561, 181);
place = (561, 181);
type = Stem;
}
);
layerId = "E0989092-07D5-4BE4-A82B-4E03160A36DB";
shapes = (
{
closed = 1;
nodes = (
(851,499,l),
(863,559,l),
(59,559,l),
(47,499,l)
);
},
{
ref = H;
}
);
width = 826;
}
);
unicode = 294;
},
{
color = 6;
glyphname = I;
layers = (
{
anchors = (
{
name = ogo;
pos = (123,0);
},
{
name = top;
pos = (276,700);
}
);
background = {
shapes = (
{
closed = 0;
nodes = (
(111,50,l),
(18,20,l),
(18,0,l),
(298,0,l),
(298,20,l),
(205,50,l)
);
}
);
};
layerId = m01;
shapes = (
{
closed = 1;
nodes = (
(230,0,l),
(234,20,l),
(147,50,l),
(263,650,l),
(362,680,l),
(366,700,l),
(86,700,l),
(82,680,l),
(169,650,l),
(53,50,l),
(-46,20,l),
(-50,0,l)
);
}
);
width = 296;
},
{
associatedMasterId = m01;
layerId = "49E4F5FA-D472-467A-A455-43EB5AEC2C01";
name = "1. Jan. 24, 20:52";
shapes = (
{
closed = 1;
nodes = (
(214,50,l),
(214,650,l),
(119,650,l),
(119,50,l)
);
},
{
closed = 1;
nodes = (
(308,0,l),
(308,19,l),
(214,50,l),
(119,50,l),
(28,20,l),
(28,0,l)
);
},
{
closed = 1;
nodes = (
(214,650,l),
(308,681,l),
(308,700,l),
(28,700,l),
(28,680,l),
(119,650,l)
);
}
);
width = 336;
},
{
anchors = (
{
name = ogo;
pos = (200,0);
},
{
name = top;
pos = (297,700);
}
);
background = {
anchors = (
{
name = ogonek;
pos = (277,3);
},
{
name = top;
pos = (183,700);
}
);
shapes = (
{
closed = 1;
nodes = (
(373,0,l),
(373,20,l),
(280,50,l),
(280,650,l),
(373,680,l),
(373,700,l),
(3,700,l),
(3,680,l),
(96,650,l),
(96,50,l),
(3,20,l),
(3,0,l)
);
}
);
};
hints = (
{
horizontal = 1;
place = (-68, -52);
place = (-68, -52);
type = Stem;
},
{
horizontal = 1;
place = (620, -56);
place = (620, -56);
type = Stem;
},
{
place = (8, 113);
place = (8, 113);
type = Stem;
}
);
layerId = "E0989092-07D5-4BE4-A82B-4E03160A36DB";
shapes = (
{
closed = 1;
nodes = (
(305,0,l),
(309,20,l),
(222,50,l),
(338,648,l),
(437,680,l),
(441,700,l),
(71,700,l),
(67,680,l),
(154,650,l),
(38,50,l),
(-61,20,l),
(-65,0,l)
);
}
);
width = 336;
}
);
unicode = 73;
},
{
color = 6;
glyphname = J;
layers = (
{
anchors = (
{
name = top;
pos = (282,697);
}
);
layerId = m01;
shapes = (
{
closed = 1;
nodes = (
(-56,-212,o),
(-53,-210,o),
(-51,-208,cs),
(59,-126,o),
(145,-20,o),
(159,50,cs),
(280,668,l),
(258,644,l),
(376,681,l),
(380,700,l),
(100,700,l),
(96,680,l),
(197,644,l),
(185,668,l),
(64,49,ls),
(45,-48,o),
(-9,-141,o),
(-67,-180,cs),
(-69,-181,o),
(-72,-183,o),
(-74,-184,c),
(-59,-214,l)
);
}
);
width = 296;
},
{
associatedMasterId = m01;
layerId = "EA68FA7A-9618-49FA-9D4F-F52FF8FE96E9";
name = "1. Jan. 24, 23:36";
shapes = (
{
closed = 1;
nodes = (
(224,50,l),
(224,650,l),
(129,650,l),
(129,50,l)
);
},
{
closed = 1;
nodes = (
(155,-131,o),
(224,-22,o),
(224,50,c),
(129,50,l),
(129,49,ls),
(129,-52,o),
(90,-148,o),
(36,-184,c),
(57,-214,l)
);
},
{
closed = 1;
nodes = (
(224,650,l),
(318,681,l),
(318,700,l),
(38,700,l),
(38,680,l),
(129,650,l)
);
}
);
width = 356;
},
{
anchors = (
{
name = top;
pos = (262,699);
}
);
hints = (
{
horizontal = 1;
place = (640, -28);
place = (640, -28);
type = Stem;
},
{
place = (13, 138);
place = (13, 138);
type = Stem;
}
);
layerId = "E0989092-07D5-4BE4-A82B-4E03160A36DB";
shapes = (
{
closed = 1;
nodes = (
(-108,-248,o),
(-101,-247,o),
(-93,-246,cs),
(53,-222,o),
(176,-99,o),
(205,50,cs),
(322,652,l),
(319,649,l),
(421,680,l),
(425,700,l),
(58,700,l),
(54,680,l),
(141,649,l),
(140,652,l),
(23,49,ls),
(-1,-74,o),
(-44,-173,o),
(-81,-190,cs),
(-92,-195,o),
(-106,-200,o),
(-114,-202,c),
(-116,-249,l)
);
}
);
width = 323;
}
);
unicode = 74;
},
{
color = 6;
glyphname = K;
layers = (
{
anchors = (
{
name = com;
pos = (335,-2);
},
{
name = top;
pos = (376,700);
}
);
layerId = m01;
shapes = (
{
closed = 1;
nodes = (
(230,0,l),
(234,19,l),
(140,56,l),
(152,32,l),
(204,300,l),
(185,270,l),
(278,344,l),
(254,346,l),
(457,0,l),
(638,0,l),
(642,19,l),
(548,56,l),
(567,36,l),
(335,414,l),
(335,392,l),
(666,663,l),
(632,645,l),
(760,681,l),
(764,700,l),
(517,700,l),
(513,680,l),
(593,656,l),
(592,674,l),
(199,333,l),
(210,328,l),
(276,668,l),
(254,644,l),
(372,681,l),
(376,700,l),
(96,700,l),
(92,680,l),
(193,644,l),
(181,668,l),
(57,32,l),
(79,56,l),
(-36,20,l),
(-40,0,l)
);
}
);
width = 676;
},
{
anchors = (
{
name = com;
pos = (371,-2);
}
);
associatedMasterId = m01;
layerId = "CC59FA57-BAA4-40BA-AF5D-2647D80AD5E9";
name = "1. Jan. 24, 23:38";
shapes = (
{
closed = 1;
nodes = (
(706,0,l),
(706,19,l),
(622,50,l),
(337,409,l),
(247,356,l),
(525,0,l)
);
},
{
closed = 1;
nodes = (
(298,0,l),
(298,19,l),
(214,50,l),
(119,50,l),
(28,20,l),
(28,0,l)
);
},
{
closed = 1;
nodes = (
(214,50,l),
(214,650,l),
(119,650,l),
(119,50,l)
);
},
{
closed = 1;
nodes = (
(214,650,l),
(308,681,l),
(308,700,l),
(28,700,l),
(28,680,l),
(119,650,l)
);
},
{
closed = 1;
nodes = (
(592,650,l),
(517,661,l),
(179,310,l),
(209,277,l)
);
},
{
closed = 1;
nodes = (
(696,681,l),
(696,700,l),
(449,700,l),
(449,680,l),
(517,661,l),
(592,650,l)
);
}
);
width = 706;
},
{
anchors = (
{
name = com;
pos = (318,-2);
},
{
name = top;
pos = (464,700);
}
);
hints = (
{
horizontal = 1;
place = (0, 16);
place = (0, 16);
type = Stem;
},
{
horizontal = 1;
place = (684, 16);
place = (684, 16);
type = Stem;
},
{
place = (76, 178);
place = (76, 178);
type = Stem;
}
);
layerId = "E0989092-07D5-4BE4-A82B-4E03160A36DB";
shapes = (
{
closed = 1;
nodes = (
(273,0,l),
(277,20,l),
(194,50,l),
(195,47,l),
(241,281,l),
(238,277,l),
(264,300,l),
(261,300,l),
(430,0,l),
(681,0,l),
(685,20,l),
(635,43,l),
(638,40,l),
(402,458,l),
(388,409,l),
(685,653,l),
(680,650,l),
(803,680,l),
(807,700,l),
(524,700,l),
(520,680,l),
(608,669,l),
(608,671,l),
(256,369,l),
(258,369,l),
(313,654,l),
(311,651,l),
(415,680,l),
(419,700,l),
(53,700,l),
(49,680,l),
(131,652,l),
(129,655,l),
(11,45,l),
(13,48,l),
(-79,20,l),
(-83,0,l)
);
}
);
width = 693;
}
);
unicode = 75;
},
{
color = 6;
glyphname = L;
layers = (
{
anchors = (
{
name = cara;
pos = (242,700);
},
{
name = com;
pos = (263,-2);
},
{
name = top;
pos = (363,700);
}
);
layerId = m01;
shapes = (
{
closed = 1;
nodes = (
(507,0,l),
(580,197,l),
(563,204,l),
(441,34,l),
(470,50,l),
(148,50,l),
(162,32,l),
(286,668,l),
(264,644,l),
(382,681,l),
(386,700,l),
(106,700,l),
(102,680,l),
(203,644,l),
(191,668,l),
(67,32,l),
(89,56,l),
(-26,20,l),
(-30,0,l)
);
}
);
width = 600;
},
{
anchors = (
{
name = com;
pos = (321,-2);
}
);
associatedMasterId = m01;
layerId = "15B2B194-3F3C-42B8-A99A-468384793481";
name = "1. Jan. 24, 23:40";
shapes = (
{
closed = 1;
nodes = (
(214,50,l),
(214,650,l),
(119,650,l),
(119,50,l)
);
},
{
closed = 1;
nodes = (
(500,0,l),
(500,50,l),
(119,50,l),
(28,20,l),
(28,0,l)
);
},
{
closed = 1;
nodes = (
(565,0,l),
(600,197,l),
(581,204,l),
(500,50,l),
(500,0,l)
);
},
{
closed = 1;
nodes = (
(214,650,l),
(308,681,l),
(308,700,l),
(28,700,l),
(28,680,l),
(119,650,l)
);
}
);
width = 630;
},
{
anchors = (
{
name = cara;
pos = (252,700);
},
{
name = com;
pos = (273,-2);
},
{
name = top;
pos = (371,689);
}
);
hints = (
{
horizontal = 1;
place = (-68, -21);
place = (-68, -21);
type = Stem;
},
{
horizontal = 1;
place = (616, -52);
place = (616, -52);
type = Stem;
},
{
place = (8, 113);
place = (8, 113);
type = Stem;
}
);
layerId = "E0989092-07D5-4BE4-A82B-4E03160A36DB";
shapes = (
{
closed = 1;
nodes = (
(542,0,l),
(615,194,l),
(571,213,l),
(452,48,l),
(456,50,l),
(220,50,l),
(221,48,l),
(339,655,l),
(337,652,l),
(436,684,l),
(439,700,l),
(73,700,l),
(70,683,l),
(157,652,l),
(155,655,l),
(37,45,l),
(39,48,l),
(-59,20,l),
(-63,0,l)
);
}
);
width = 643;
}
);
unicode = 76;
},
{
color = 6;
glyphname = Lslash;
layers = (
{
layerId = m01;
shapes = (
{
closed = 1;
nodes = (
(330,414,l),
(318,453,l),
(6,300,l),
(18,261,l)
);
},
{
ref = L;
}
);
width = 600;
},
{
hints = (
{
horizontal = 1;
place = (0, 47);
place = (0, 47);
type = Stem;
},
{
horizontal = 1;
place = (684, 16);
place = (684, 16);
type = Stem;
},
{
place = (76, 181);
place = (76, 181);
type = Stem;
}
);
layerId = "E0989092-07D5-4BE4-A82B-4E03160A36DB";
shapes = (
{
closed = 1;
nodes = (
(399,426,l),
(382,479,l),
(-9,300,l),
(8,247,l)
);
},
{
ref = L;
}
);
width = 643;
}
);
unicode = 321;
},
{
color = 6;
glyphname = M;
layers = (
{
anchors = (
{
name = top;
pos = (521,667);
}
);
layerId = m01;
shapes = (
{
closed = 1;
nodes = (
(795,604,l),
(788,606,l),
(677,32,l),
(698,56,l),
(583,20,l),
(579,0,l),
(849,0,l),
(853,19,l),
(759,56,l),
(772,32,l),
(895,668,l),
(874,644,l),
(992,681,l),
(996,700,l),
(806,700,l),
(429,122,l),
(449,122,l),
(294,700,l),
(119,700,l),
(115,683,l),
(216,644,l),
(203,668,l),
(80,32,l),
(101,56,l),
(-14,20,l),
(-18,0,l),
(202,0,l),
(206,19,l),
(112,56,l),
(125,32,l),
(231,580,l),
(223,578,l),
(386,-26,l)
);
}
);
width = 916;
},
{
associatedMasterId = m01;
layerId = "39CD48C5-5A51-4231-9B38-8D14C79DB35E";
name = "1. Jan. 24, 23:44";
shapes = (
{
closed = 1;
nodes = (
(767,700,l),
(715,700,l),
(458,138,l),
(195,700,l),
(100,700,l),
(437,-26,l)
);
},
{
closed = 1;
nodes = (
(248,0,l),
(248,19,l),
(164,50,l),
(119,50,l),
(28,20,l),
(28,0,l)
);
},
{
closed = 1;
nodes = (
(164,50,l),
(164,650,l),
(119,650,l),
(119,50,l)
);
},
{
closed = 1;
nodes = (
(164,650,l),
(164,700,l),
(28,700,l),
(28,683,l),
(119,650,l)
);
},
{
closed = 1;
nodes = (
(895,0,l),
(895,19,l),
(811,50,l),
(716,50,l),
(625,20,l),
(625,0,l)
);
},
{
closed = 1;
nodes = (
(811,50,l),
(811,650,l),
(716,650,l),
(716,50,l)
);
},
{
closed = 1;
nodes = (
(811,650,l),
(905,681,l),
(905,700,l),
(717,700,l),
(716,650,l)
);
}
);
width = 926;
},
{
anchors = (
{
name = top;
pos = (581,667);
}
);
background = {
shapes = (
{
closed = 1;
nodes = (
(677,0,l),
(677,653,l),
(675,650,l),
(770,681,l),
(770,701,l),
(534,701,l),
(534,681,l),
(629,650,l),
(627,653,l),
(627,292,l),
(628,309,l),
(300,700,l),
(6,700,l),
(6,680,l),
(101,649,l),
(99,652,l),
(99,48,l),
(101,51,l),
(6,20,l),
(6,0,l),
(242,0,l),
(242,20,l),
(147,51,l),
(149,48,l),
(149,595,l),
(148,595,l),
(661,-16,l)
);
},
{
closed = 1;
nodes = (
(1010,0,l),
(1010,20,l),
(917,50,l),
(917,648,l),
(1010,680,l),
(1010,700,l),
(640,700,l),
(640,680,l),
(733,650,l),
(733,50,l),
(640,20,l),
(640,0,l)
);
}
);
};
hints = (
{
horizontal = 1;
place = (-66, -50);
place = (-66, -50);
type = Stem;
},
{
horizontal = 1;
place = (620, -52);
place = (620, -52);
type = Stem;
},
{
place = (10, 4);
place = (10, 4);
type = Stem;
},
{
place = (607, 115);
place = (607, 115);
type = Stem;
},
{
horizontal = 1;
place = (618, -50);
place = (618, -50);
type = Stem;
}
);
layerId = "E0989092-07D5-4BE4-A82B-4E03160A36DB";
shapes = (
{
closed = 1;
nodes = (
(782,590,l),
(781,590,l),
(676,48,l),
(678,51,l),
(577,20,l),
(574,0,l),
(944,0,l),
(947,20,l),
(858,51,l),
(860,48,l),
(977,650,l),
(974,647,l),
(1076,680,l),
(1080,700,l),
(803,700,l),
(487,246,l),
(492,246,l),
(373,700,l),
(76,700,l),
(72,680,l),
(161,649,l),
(159,652,l),
(42,49,l),
(45,52,l),
(-57,20,l),
(-60,0,l),
(176,0,l),
(179,20,l),
(90,51,l),
(92,48,l),
(198,596,l),
(197,596,l),
(360,-16,l)
);
}
);
width = 996;
}
);
unicode = 77;
},
{
color = 6;
glyphname = N;
layers = (
{
anchors = (
{
name = com;
pos = (335,-2);
},
{
name = top;
pos = (497,700);
}
);
background = {
anchors = (
{
name = ogonek;
pos = (271,3);
}
);
};
layerId = m01;
shapes = (
{
closed = 1;
nodes = (
(643,1,l),
(772,668,l),
(751,644,l),
(869,681,l),
(872,700,l),
(642,700,l),
(639,680,l),
(740,644,l),
(727,668,l),
(629,163,l),
(640,167,l),
(295,700,l),
(107,700,l),
(104,680,l),
(205,644,l),
(192,668,l),
(69,32,l),
(90,56,l),
(-25,20,l),
(-29,0,l),
(201,0,l),
(205,19,l),
(101,56,l),
(114,32,l),
(229,625,l),
(216,621,l),
(638,-25,l)
);
}
);
width = 795;
},
{
anchors = (
{
name = com;
pos = (401,-2);
},
{
name = top;
pos = (398,700);
}
);
associatedMasterId = m01;
layerId = "E8A2BD06-0712-47D5-8A4F-C996E068F001";
name = "1. Jan. 24, 23:45";
shapes = (
{
closed = 1;
nodes = (
(679,127,l),
(198,700,l),
(65,700,l),
(679,-25,l)
);
},
{
closed = 1;
nodes = (
(238,0,l),
(238,19,l),
(144,50,l),
(99,50,l),
(8,20,l),
(8,0,l)
);
},
{
closed = 1;
nodes = (
(144,50,l),
(144,650,l),
(99,650,l),
(99,50,l)
);
},
{
closed = 1;
nodes = (
(144,650,l),
(144,700,l),
(8,700,l),
(8,680,l),
(99,650,l)
);
},
{
closed = 1;
nodes = (
(679,120,l),
(679,650,l),
(634,650,l),
(634,120,l)
);
},
{
closed = 1;
nodes = (
(679,650,l),
(773,681,l),
(773,700,l),
(543,700,l),
(543,680,l),
(634,650,l)
);
}
);
width = 781;
},
{
anchors = (
{
name = com;
pos = (287,-2);
},
{
name = top;
pos = (464,700);
}
);
background = {
shapes = (
{
closed = 1;
nodes = (
(671,6,l),
(671,668,l),
(654,644,l),
(765,681,l),
(765,700,l),
(535,700,l),
(535,680,l),
(643,644,l),
(626,668,l),
(626,163,l),
(725,167,l),
(277,700,l),
(0,700,l),
(0,680,l),
(108,644,l),
(91,668,l),
(91,32,l),
(108,56,l),
(0,20,l),
(0,0,l),
(230,0,l),
(230,19,l),
(119,56,l),
(136,32,l),
(136,625,l),
(93,621,l),
(640,-25,l)
);
}
);
};
hints = (
{
horizontal = 1;
place = (-67, -51);
place = (-67, -51);
type = Stem;
},
{
horizontal = 1;
place = (616, -50);
place = (616, -50);
type = Stem;
},
{
place = (20, 20);
place = (20, 20);
type = Stem;
},
{
place = (500, 20);
place = (500, 20);
type = Stem;
}
);
layerId = "E0989092-07D5-4BE4-A82B-4E03160A36DB";
shapes = (
{
closed = 1;
nodes = (
(597,0,l),
(724,653,l),
(722,650,l),
(823,681,l),
(827,701,l),
(591,701,l),
(587,681,l),
(676,650,l),
(674,653,l),
(604,292,l),
(609,313,l),
(361,700,l),
(62,700,l),
(59,680,l),
(148,649,l),
(146,652,l),
(29,48,l),
(31,51,l),
(-70,20,l),
(-74,0,l),
(162,0,l),
(166,20,l),
(77,51,l),
(79,48,l),
(185,595,l),
(184,595,l),
(578,-16,l)
);
}
);
width = 750;
}
);
unicode = 78;
},
{
color = 6;
glyphname = Eng;
layers = (
{
layerId = m01;
shapes = (
{
closed = 1;
nodes = (
(463,115,ls),
(451,54,o),
(418,11,o),
(382,11,cs),
(361,11,o),
(337,32,o),
(325,62,c),
(253,21,l),
(273,1,o),
(317,-14,o),
(359,-14,cs),
(458,-14,o),
(541,54,o),
(560,151,cs),
(629,505,ls),
(652,624,o),
(595,709,o),
(463,709,cs),
(379,709,o),
(304,664,o),
(229,599,c),
(236,590,l),
(258,700,l),
(77,700,l),
(73,680,l),
(174,644,l),
(161,668,l),
(38,32,l),
(59,56,l),
(-56,20,l),
(-60,0,l),
(195,0,l),
(199,19,l),
(116,57,l),
(128,32,l),
(234,579,l),
(220,551,l),
(287,614,o),
(349,658,o),
(422,658,cs),
(519,658,o),
(554,583,o),
(533,477,cs)
);
}
);
width = 686;
},
{
associatedMasterId = m01;
layerId = "0F2D05D5-6E5C-46B9-8B3C-5DD271D069A4";
name = "1. Jan. 24, 21:14";
shapes = (
{
closed = 1;
nodes = (
(223,700,l),
(65,700,l)
);
},
{
closed = 1;
nodes = (
(263,0,l),
(263,19,l),
(189,50,l),
(99,50,l),
(8,20,l),
(8,0,l)
);
},
{
closed = 1;
nodes = (
(189,50,l),
(189,650,l),
(99,650,l),
(99,50,l)
);
},
{
closed = 1;
nodes = (
(189,650,l),
(189,700,l),
(8,700,l),
(8,680,l),
(99,650,l)
);
},
{
closed = 1;
nodes = (
(170,539,l),
(229,609,o),
(285,658,o),
(362,658,cs),
(459,658,o),
(508,583,o),
(508,477,cs),
(508,211,l),
(598,211,l),
(598,505,ls),
(598,624,o),
(525,709,o),
(393,709,cs),
(304,709,o),
(235,659,o),
(170,588,c)
);
},
{
closed = 1;
nodes = (
(508,211,l),
(508,115,l),
(508,54,o),
(483,11,o),
(447,11,cs),
(426,11,o),
(398,32,o),
(380,62,c),
(316,21,l),
(340,1,o),
(387,-14,o),
(429,-14,cs),
(528,-14,o),
(598,54,o),
(598,151,cs),
(598,211,l)
);
}
);
width = 642;
},
{
hints = (
{
horizontal = 1;
place = (-71, -54);
place = (-71, -54);
type = Stem;
},
{
horizontal = 1;
place = (587, -11);
place = (587, -11);
type = Stem;
},
{
place = (88, 108);
place = (88, 108);
type = Stem;
},
{
place = (497, 108);
place = (497, 108);
type = Stem;
},
{
horizontal = 1;
place = (-85, -36);
place = (-85, -36);
type = Stem;
},
{
horizontal = 1;
place = (602, -35);
place = (602, -35);
type = Stem;
}
);
layerId = "E0989092-07D5-4BE4-A82B-4E03160A36DB";
shapes = (
{
closed = 1;
nodes = (
(520,115,ls),
(507,51,o),
(485,19,o),
(482,15,c),
(482,18,o),
(471,34,o),
(451,94,c),
(322,19,l),
(334,6,o),
(401,-17,o),
(458,-17,cs),
(579,-17,o),
(683,51,o),
(703,151,cs),
(772,505,ls),
(796,632,o),
(718,712,o),
(564,712,cs),
(497,712,o),
(438,694,o),
(393,671,c),
(394,670,l),
(393,703,l),
(167,703,l),
(161,670,l),
(215,640,l),
(213,643,l),
(96,41,l),
(99,44,l),
(0,13,l),
(-3,-3,l),
(305,-3,l),
(308,11,l),
(270,41,l),
(272,38,l),
(376,574,l),
(373,570,l),
(445,634,o),
(481,655,o),
(522,655,cs),
(584,655,o),
(612,591,o),
(590,477,cs)
);
}
);
width = 808;
}
);
unicode = 330;
},
{
color = 6;
glyphname = O;
layers = (
{
anchors = (
{
name = top;
pos = (468,700);
}
);
layerId = m01;
shapes = (
{
closed = 1;
nodes = (
(529,-16,o),
(700,139,o),
(742,357,cs),
(783,567,o),
(671,716,o),
(471,716,cs),
(272,716,o),
(102,563,o),
(60,347,cs),
(19,134,o),
(130,-16,o),
(329,-16,cs)
);
},
{
closed = 1;
nodes = (
(197,25,o),
(134,164,o),
(183,415,cs),
(215,582,o),
(307,675,o),
(440,675,cs),
(604,675,o),
(668,536,o),
(620,286,cs),
(587,118,o),
(494,25,o),
(360,25,cs)
);
}
);
width = 800;
},
{
anchors = (
{
name = top;
pos = (482,700);
}
);
hints = (
{
horizontal = 1;
place = (-86, -24);
place = (-86, -24);
type = Stem;
},
{
horizontal = 1;
place = (605, -23);
place = (605, -23);
type = Stem;
},
{
place = (-76, 127);
place = (-76, 127);
type = Stem;
},
{
place = (495, 127);
place = (495, 127);
type = Stem;
}
);
layerId = "E0989092-07D5-4BE4-A82B-4E03160A36DB";
shapes = (
{
closed = 1;
nodes = (
(568,-16,o),
(757,139,o),
(799,357,cs),
(840,567,o),
(710,716,o),
(485,716,cs),
(261,716,o),
(73,563,o),
(31,347,cs),
(-10,134,o),
(119,-16,o),
(343,-16,cs)
);
},
{
closed = 1;
nodes = (
(239,25,o),
(191,164,o),
(240,415,cs),
(272,582,o),
(349,675,o),
(454,675,cs),
(590,675,o),
(639,536,o),
(591,286,cs),
(558,118,o),
(481,25,o),
(374,25,cs)
);
}
);
width = 840;
}
);
unicode = 79;
},
{
color = 6;
glyphname = Oslash;
layers = (
{
layerId = m01;
shapes = (
{
closed = 1;
nodes = (
(714,726,l),
(683,753,l),
(35,-27,l),
(66,-54,l)
);
},
{
ref = O;
}
);
width = 750;
},
{
hints = (
{
horizontal = 1;
place = (-18, 44);
place = (-18, 44);
type = Stem;
},
{
horizontal = 1;
place = (673, 45);
place = (673, 45);
type = Stem;
},
{
place = (-8, 195);
place = (-8, 195);
type = Stem;
},
{
place = (563, 195);
place = (563, 195);
type = Stem;
}
);
layerId = "E0989092-07D5-4BE4-A82B-4E03160A36DB";
shapes = (
{
closed = 1;
nodes = (
(754,716,l),
(703,763,l),
(55,-17,l),
(106,-64,l)
);
},
{
ref = O;
}
);
width = 830;
}
);
unicode = 216;
},
{
color = 6;
glyphname = OE;
layers = (
{
layerId = m01;
shapes = (
{
closed = 1;
nodes = (
(407,-15,o),
(504,27,o),
(579,99,c),
(573,108,l),
(552,0,l),
(998,0,l),
(1071,197,l),
(1054,204,l),
(932,34,l),
(961,50,l),
(639,50,l),
(653,32,l),
(717,359,l),
(695,341,l),
(907,341,l),
(887,358,l),
(902,245,l),
(921,245,l),
(965,475,l),
(945,475,l),
(889,364,l),
(915,381,l),
(703,381,l),
(718,363,l),
(777,668,l),
(755,650,l),
(1082,650,l),
(1063,667,l),
(1075,520,l),
(1096,520,l),
(1131,700,l),
(688,700,l),
(668,596,l),
(678,605,l),
(631,675,o),
(549,715,o),
(445,715,cs),
(246,715,o),
(76,563,o),
(34,347,cs),
(-7,135,o),
(104,-15,o),
(303,-15,cs)
);
},
{
closed = 1;
nodes = (
(189,583,o),
(281,676,o),
(414,676,cs),
(578,676,o),
(642,537,o),
(594,286,cs),
(561,117,o),
(467,23,o),
(333,23,cs),
(170,23,o),
(108,163,o),
(157,415,cs)
);
}
);
width = 1146;
},
{
associatedMasterId = m01;
layerId = "E029D7F6-61DA-46A0-ABD4-00802109ADA1";
name = "2. Jan. 24, 01:04";
shapes = (
{
closed = 1;
nodes = (
(574,-15,o),
(715,139,o),
(715,357,cs),
(715,567,o),
(574,715,o),
(374,715,cs),
(175,715,o),
(35,563,o),
(35,347,cs),
(35,135,o),
(175,-15,o),
(374,-15,cs)
);
},
{
closed = 1;
nodes = (
(234,23,o),
(144,163,o),
(144,415,cs),
(144,583,o),
(218,676,o),
(351,676,cs),
(515,676,o),
(606,537,o),
(606,286,cs),
(606,117,o),
(531,23,o),
(397,23,cs)
);
},
{
closed = 1;
nodes = (
(1001,0,l),
(1001,50,l),
(620,50,l),
(620,0,l)
);
},
{
closed = 1;
nodes = (
(715,50,l),
(715,650,l),
(620,650,l),
(620,50,l)
);
},
{
closed = 1;
nodes = (
(1066,0,l),
(1101,197,l),
(1082,204,l),
(1001,50,l),
(1001,0,l)
);
},
{
closed = 1;
nodes = (
(941,341,l),
(941,381,l),
(685,381,l),
(685,341,l)
);
},
{
closed = 1;
nodes = (
(941,245,l),
(941,475,l),
(921,475,l),
(891,384,l),
(891,339,l),
(922,245,l)
);
},
{
closed = 1;
nodes = (
(1006,650,l),
(1006,700,l),
(620,700,l),
(620,650,l)
);
},
{
closed = 1;
nodes = (
(1063,520,l),
(1063,700,l),
(1006,700,l),
(1006,650,l),
(1042,520,l)
);
}
);
width = 1146;
},
{
hints = (
{
horizontal = 1;
place = (-86, -24);
place = (-86, -24);
type = Stem;
},
{
horizontal = 1;
place = (270, -22);
place = (270, -22);
type = Stem;
},
{
horizontal = 1;
place = (579, -12);
place = (579, -12);
type = Stem;
},
{
place = (-76, 127);
place = (-76, 127);
type = Stem;
},
{
place = (509, 80);
place = (509, 80);
type = Stem;
},
{
place = (847, -24);
place = (847, -24);
type = Stem;
},
{
place = (982, -12);
place = (982, -12);
type = Stem;
},
{
horizontal = 1;
place = (-71, -12);
place = (-71, -12);
type = Stem;
},
{
place = (495, 94);
place = (495, 94);
type = Stem;
},
{
place = (846, -23);
place = (846, -23);
type = Stem;
},
{
horizontal = 1;
place = (449, 118);
place = (449, 118);
type = Stem;
},
{
horizontal = 1;
place = (605, -23);
place = (605, -23);
type = Stem;
}
);
layerId = "E0989092-07D5-4BE4-A82B-4E03160A36DB";
shapes = (
{
closed = 1;
nodes = (
(376,-18,o),
(450,-3,o),
(515,26,c),
(514,27,l),
(508,-3,l),
(1039,-3,l),
(1112,190,l),
(1080,224,l),
(956,51,l),
(959,53,l),
(665,53,l),
(667,51,l),
(723,340,l),
(721,338,l),
(883,338,l),
(880,340,l),
(894,242,l),
(938,242,l),
(984,478,l),
(939,478,l),
(887,382,l),
(891,384,l),
(730,384,l),
(731,382,l),
(783,649,l),
(781,647,l),
(1075,647,l),
(1072,649,l),
(1082,517,l),
(1138,517,l),
(1175,703,l),
(646,703,l),
(640,674,l),
(641,675,l),
(588,704,o),
(521,718,o),
(446,718,cs),
(229,718,o),
(35,573,o),
(-9,347,cs),
(-51,127,o),
(85,-18,o),
(302,-18,cs)
);
},
{
closed = 1;
nodes = (
(234,593,o),
(314,673,o),
(414,673,cs),
(543,673,o),
(601,545,o),
(551,286,cs),
(516,107,o),
(435,26,o),
(334,26,cs),
(206,26,o),
(149,155,o),
(200,415,cs)
);
}
);
width = 1146;
}
);
unicode = 338;
},
{
color = 6;
glyphname = P;
layers = (
{
anchors = (
{
name = top;
pos = (334,700);
}
);
layerId = m01;
shapes = (
{
closed = 1;
nodes = (
(228,0,l),
(232,20,l),
(118,55,l),
(130,32,l),
(186,318,l),
(164,300,l),
(236,300,ls),
(407,300,o),
(531,388,o),
(558,527,cs),
(578,628,o),
(498,700,o),
(364,700,cs),
(74,700,l),
(70,680,l),
(171,644,l),
(159,668,l),
(35,32,l),
(57,56,l),
(-58,20,l),
(-62,0,l)
);
},
{
closed = 1;
nodes = (
(254,668,l),
(232,650,l),
(324,650,ls),
(411,650,o),
(465,586,o),
(447,495,cs),
(429,400,o),
(359,340,o),
(274,340,cs),
(172,340,l),
(187,322,l)
);
}
);
width = 570;
},
{
associatedMasterId = m01;
layerId = "F87AD770-9788-474C-A1D1-0EC9B953AD89";
name = "1. Jan. 24, 23:50";
shapes = (
{
closed = 1;
nodes = (
(439,300,o),
(546,388,o),
(546,527,cs),
(546,628,o),
(452,700,o),
(318,700,c),
(288,650,l),
(375,650,o),
(441,586,o),
(441,495,cs),
(441,400,o),
(383,340,o),
(298,340,c),
(268,300,l)
);
},
{
closed = 1;
nodes = (
(318,0,l),
(318,20,l),
(214,50,l),
(119,50,l),
(28,20,l),
(28,0,l)
);
},
{
closed = 1;
nodes = (
(214,50,l),
(214,650,l),
(119,650,l),
(119,50,l)
);
},
{
closed = 1;
nodes = (
(268,300,l),
(298,340,l),
(184,340,l),
(184,300,l)
);
},
{
closed = 1;
nodes = (
(288,650,l),
(318,700,l),
(28,700,l),
(28,680,l),
(119,650,l)
);
}
);
width = 580;
},
{
anchors = (
{
name = top;
pos = (349,700);
}
);
background = {
shapes = (
{
closed = 1;
nodes = (
(348,0,l),
(348,20,l),
(255,50,l),
(255,648,l),
(348,680,l),
(348,700,l),
(-22,700,l),
(-22,680,l),
(71,650,l),
(71,50,l),
(-22,20,l),
(-22,0,l)
);
}
);
};
hints = (
{
horizontal = 1;
place = (-68, -51);
place = (-68, -51);
type = Stem;
},
{
horizontal = 1;
place = (235, -28);
place = (235, -28);
type = Stem;
},
{
horizontal = 1;
place = (585, -21);
place = (585, -21);
type = Stem;
},
{
place = (8, 113);
place = (8, 113);
type = Stem;
},
{
place = (330, 123);
place = (330, 123);
type = Stem;
},
{
horizontal = 1;
place = (615, -51);
place = (615, -51);
type = Stem;
}
);
layerId = "E0989092-07D5-4BE4-A82B-4E03160A36DB";
shapes = (
{
closed = 1;
nodes = (
(280,0,l),
(284,20,l),
(195,51,l),
(196,48,l),
(242,285,l),
(240,283,l),
(268,283,ls),
(445,283,o),
(590,380,o),
(616,517,cs),
(637,624,o),
(542,700,o),
(386,700,cs),
(46,700,l),
(42,680,l),
(131,649,l),
(130,652,l),
(12,48,l),
(15,51,l),
(-86,20,l),
(-90,0,l)
);
},
{
closed = 1;
nodes = (
(314,655,l),
(312,653,l),
(340,653,ls),
(406,653,o),
(438,583,o),
(419,485,cs),
(401,390,o),
(346,323,o),
(286,323,cs),
(248,323,l),
(249,321,l)
);
}
);
width = 613;
}
);
unicode = 80;
},
{
color = 6;
glyphname = Thorn;
layers = (
{
layerId = m01;
shapes = (
{
closed = 1;
nodes = (
(250,0,l),
(254,19,l),
(150,56,l),
(160,32,l),
(188,173,l),
(168,155,l),
(230,155,ls),
(401,155,o),
(525,243,o),
(552,382,cs),
(572,483,o),
(491,553,o),
(357,553,cs),
(245,553,l),
(258,535,l),
(284,668,l),
(264,644,l),
(382,681,l),
(386,700,l),
(106,700,l),
(102,680,l),
(203,644,l),
(191,668,l),
(67,32,l),
(89,56,l),
(-26,20,l),
(-30,0,l)
);
},
{
closed = 1;
nodes = (
(256,526,l),
(237,508,l),
(319,508,ls),
(406,508,o),
(469,441,o),
(451,350,cs),
(433,255,o),
(353,195,o),
(268,195,cs),
(176,195,l),
(188,177,l)
);
}
);
width = 570;
},
{
associatedMasterId = m01;
layerId = "E0FA7AEA-EC98-4066-82B2-3166E7021F5A";
name = "1. Jan. 24, 23:51";
shapes = (
{
closed = 1;
nodes = (
(439,155,o),
(546,243,o),
(546,382,cs),
(546,483,o),
(452,555,o),
(318,553,c),
(288,508,l),
(375,505,o),
(441,441,o),
(441,350,cs),
(441,255,o),
(383,195,o),
(298,195,c),
(268,155,l)
);
},
{
closed = 1;
nodes = (
(318,0,l),
(318,19,l),
(224,50,l),
(129,50,l),
(38,20,l),
(38,0,l)
);
},
{
closed = 1;
nodes = (
(268,155,l),
(298,195,l),
(184,195,l),
(184,155,l)
);
},
{
closed = 1;
nodes = (
(224,50,l),
(224,650,l),
(129,650,l),
(129,50,l)
);
},
{
closed = 1;
nodes = (
(288,508,l),
(318,553,l),
(184,553,l),
(184,508,l)
);
},
{
closed = 1;
nodes = (
(224,650,l),
(318,681,l),
(318,700,l),
(38,700,l),
(38,680,l),
(129,650,l)
);
}
);
width = 600;
},
{
hints = (
{
horizontal = 1;
place = (-71, -53);
place = (-71, -53);
type = Stem;
},
{
horizontal = 1;
place = (84, -22);
place = (84, -22);
type = Stem;
},
{
horizontal = 1;
place = (437, -17);
place = (437, -17);
type = Stem;
},
{
horizontal = 1;
place = (620, -53);
place = (620, -53);
type = Stem;
},
{
place = (18, 108);
place = (18, 108);
type = Stem;
},
{
place = (323, 130);
place = (323, 130);
type = Stem;
}
);
layerId = "E0989092-07D5-4BE4-A82B-4E03160A36DB";
shapes = (
{
closed = 1;
nodes = (
(292,-3,l),
(295,12,l),
(201,49,l),
(203,46,l),
(224,154,l),
(222,152,l),
(232,152,ls),
(441,152,o),
(566,231,o),
(595,382,cs),
(616,488,o),
(535,556,o),
(361,556,cs),
(300,556,l),
(302,554,l),
(321,654,l),
(319,651,l),
(427,688,l),
(430,703,l),
(64,703,l),
(61,687,l),
(147,653,l),
(145,656,l),
(27,44,l),
(29,47,l),
(-71,13,l),
(-74,-3,l)
);
},
{
closed = 1;
nodes = (
(293,507,l),
(290,505,l),
(315,505,ls),
(390,505,o),
(414,469,o),
(391,350,cs),
(367,228,o),
(345,198,o),
(271,198,cs),
(230,198,l),
(232,196,l)
);
}
);
width = 587;
}
);
unicode = 222;
},
{
color = 6;
glyphname = Q;
layers = (
{
background = {
shapes = (
{
closed = 1;
nodes = (
(594,-15,o),
(735,139,o),
(735,357,cs),
(735,567,o),
(594,715,o),
(394,715,cs),
(195,715,o),
(55,563,o),
(55,347,cs),
(55,135,o),
(195,-15,o),
(394,-15,cs)
);
},
{
closed = 1;
nodes = (
(254,23,o),
(164,163,o),
(164,415,cs),
(164,583,o),
(238,676,o),
(371,676,cs),
(535,676,o),
(626,537,o),
(626,286,cs),
(626,117,o),
(551,23,o),
(417,23,cs)
);
}
);
};
layerId = m01;
shapes = (
{
closed = 1;
nodes = (
(653,-129,l),
(657,-110,l),
(605,-92,ls),
(576,-82,o),
(549,-67,o),
(539,-56,cs),
(458,31,l),
(456,9,l),
(594,45,o),
(715,189,o),
(747,357,cs),
(788,567,o),
(676,716,o),
(476,716,cs),
(277,716,o),
(107,563,o),
(65,347,cs),
(23,128,o),
(141,-22,o),
(351,-15,c),
(325,-4,l),
(472,-129,l)
);
},
{
closed = 1;
nodes = (
(201,23,o),
(139,163,o),
(188,415,cs),
(220,583,o),
(312,675,o),
(445,675,cs),
(609,675,o),
(673,537,o),
(625,286,cs),
(592,117,o),
(498,23,o),
(364,23,cs)
);
}
);
width = 790;
},
{
associatedMasterId = m01;
background = {
shapes = (
{
closed = 1;
nodes = (
(584,715,o),
(725,567,o),
(725,357,cs),
(725,139,o),
(584,-15,o),
(384,-15,cs),
(185,-15,o),
(45,135,o),
(45,347,cs),
(45,563,o),
(185,715,o),
(384,715,cs)
);
},
{
closed = 1;
nodes = (
(228,676,o),
(154,583,o),
(154,415,cs),
(154,163,o),
(244,23,o),
(407,23,cs),
(541,23,o),
(616,117,o),
(616,286,cs),
(616,537,o),
(525,676,o),
(361,676,cs)
);
}
);
};
layerId = "CD80C9CB-C6C2-4A56-9AD6-E0D283AD5534";
name = "2. Jan. 24, 00:43";
shapes = (
{
closed = 1;
nodes = (
(574,-15,o),
(715,139,o),
(715,357,cs),
(715,567,o),
(574,715,o),
(374,715,cs),
(175,715,o),
(35,563,o),
(35,347,cs),
(35,135,o),
(175,-15,o),
(374,-15,cs)
);
},
{
closed = 1;
nodes = (
(715,-140,l),
(715,-121,l),
(660,-103,ls),
(631,-93,o),
(609,-86,o),
(587,-67,cs),
(493,16,l),
(362,-4,l),
(534,-140,l)
);
},
{
closed = 1;
nodes = (
(234,23,o),
(144,163,o),
(144,415,cs),
(144,583,o),
(218,676,o),
(351,676,cs),
(515,676,o),
(606,537,o),
(606,286,cs),
(606,117,o),
(531,23,o),
(397,23,cs)
);
}
);
width = 750;
},
{
background = {
shapes = (
{
closed = 1;
nodes = (
(639,-16,o),
(798,139,o),
(798,357,cs),
(798,567,o),
(639,716,o),
(414,716,cs),
(190,716,o),
(32,563,o),
(32,347,cs),
(32,134,o),
(190,-16,o),
(414,-16,cs)
);
},
{
closed = 1;
nodes = (
(302,25,o),
(227,164,o),
(227,415,cs),
(227,582,o),
(286,675,o),
(391,675,cs),
(527,675,o),
(603,536,o),
(603,286,cs),
(603,118,o),
(544,25,o),
(437,25,cs)
);
}
);
};
hints = (
{
horizontal = 1;
place = (-199, -41);
place = (-199, -41);
type = Stem;
},
{
horizontal = 1;
place = (617, -11);
place = (617, -11);
type = Stem;
},
{
place = (-64, 139);
place = (-64, 139);
type = Stem;
},
{
place = (507, 139);
place = (507, 139);
type = Stem;
}
);
layerId = "E0989092-07D5-4BE4-A82B-4E03160A36DB";
shapes = (
{
closed = 1;
nodes = (
(715,-143,l),
(718,-123,l),
(638,-100,ls),
(625,-96,o),
(604,-81,o),
(587,-64,cs),
(513,15,l),
(514,13,l),
(657,55,o),
(781,197,o),
(812,357,cs),
(853,568,o),
(722,716,o),
(497,716,cs),
(273,716,o),
(86,564,o),
(44,347,cs),
(5,149,o),
(124,0,o),
(332,-11,c),
(328,-10,l),
(464,-143,l)
);
},
{
closed = 1;
nodes = (
(251,25,o),
(203,165,o),
(252,415,cs),
(284,581,o),
(362,675,o),
(467,675,cs),
(603,675,o),
(651,535,o),
(603,286,cs),
(570,119,o),
(493,25,o),
(386,25,cs)
);
}
);
width = 840;
}
);
unicode = 81;
},
{
color = 6;
glyphname = R;
layers = (
{
anchors = (
{
name = com;
pos = (233,-2);
},
{
name = top;
pos = (410,700);
}
);
layerId = m01;
shapes = (
{
closed = 1;
nodes = (
(250,0,l),
(254,20,l),
(140,55,l),
(152,32,l),
(208,318,l),
(186,300,l),
(325,300,l),
(301,316,l),
(441,0,l),
(613,0,l),
(617,19,l),
(576,35,ls),
(546,47,o),
(533,63,o),
(519,91,cs),
(398,335,l),
(392,316,l),
(494,347,o),
(571,426,o),
(590,527,cs),
(610,628,o),
(530,700,o),
(396,700,cs),
(96,700,l),
(92,680,l),
(193,644,l),
(181,668,l),
(57,32,l),
(79,56,l),
(-36,20,l),
(-40,0,l)
);
},
{
closed = 1;
nodes = (
(276,668,l),
(254,650,l),
(356,650,ls),
(443,650,o),
(492,586,o),
(474,495,cs),
(456,404,o),
(395,340,o),
(326,340,cs),
(194,340,l),
(209,322,l)
);
}
);
width = 640;
},
{
anchors = (
{
name = com;
pos = (351,-2);
},
{
name = top;
pos = (294,700);
}
);
associatedMasterId = m01;
layerId = "8EE325DB-C90E-4465-8EBF-5D3FDAB11B02";
name = "1. Jan. 24, 23:51";
shapes = (
{
closed = 1;
nodes = (
(681,0,l),
(681,19,l),
(632,35,ls),
(600,45,o),
(583,63,o),
(564,91,cs),
(400,336,l),
(308,316,l),
(509,0,l)
);
},
{
closed = 1;
nodes = (
(318,0,l),
(318,20,l),
(214,50,l),
(119,50,l),
(28,20,l),
(28,0,l)
);
},
{
closed = 1;
nodes = (
(214,50,l),
(214,650,l),
(119,650,l),
(119,50,l)
);
},
{
closed = 1;
nodes = (
(298,300,l),
(328,340,l),
(184,340,l),
(184,300,l)
);
},
{
closed = 1;
nodes = (
(298,650,l),
(328,700,l),
(28,700,l),
(28,680,l),
(119,650,l)
);
},
{
closed = 1;
nodes = (
(449,300,o),
(556,394,o),
(556,527,cs),
(556,628,o),
(462,700,o),
(328,700,c),
(298,650,l),
(385,650,o),
(446,586,o),
(446,495,cs),
(446,404,o),
(397,340,o),
(328,340,c),
(298,300,l)
);
}
);
width = 650;
},
{
anchors = (
{
name = com;
pos = (290,0);
},
{
name = top;
pos = (406,700);
}
);
background = {
shapes = (
{
closed = 1;
nodes = (
(358,0,l),
(358,20,l),
(263,51,l),
(265,48,l),
(265,305,l),
(263,303,l),
(311,303,ls),
(488,303,o),
(614,396,o),
(614,527,cs),
(614,628,o),
(504,700,o),
(348,700,cs),
(-12,700,l),
(-12,680,l),
(83,649,l),
(81,652,l),
(81,48,l),
(83,51,l),
(-12,20,l),
(-12,0,l)
);
},
{
closed = 1;
nodes = (
(265,655,l),
(263,653,l),
(311,653,ls),
(377,653,o),
(423,588,o),
(423,495,cs),
(423,406,o),
(381,343,o),
(321,343,cs),
(263,343,l),
(265,341,l)
);
}
);
};
hints = (
{
horizontal = 1;
place = (-68, -51);
place = (-68, -51);
type = Stem;
},
{
horizontal = 1;
place = (229, -22);
place = (229, -22);
type = Stem;
},
{
horizontal = 1;
place = (585, -21);
place = (585, -21);
type = Stem;
},
{
place = (8, 113);
place = (8, 113);
type = Stem;
},
{
horizontal = 1;
place = (-68, -52);
place = (-68, -52);
type = Stem;
},
{
place = (335, 128);
place = (335, 128);
type = Stem;
},
{
horizontal = 1;
place = (619, -55);
place = (619, -55);
type = Stem;
}
);
layerId = "E0989092-07D5-4BE4-A82B-4E03160A36DB";
shapes = (
{
closed = 1;
nodes = (
(290,0,l),
(294,20,l),
(205,51,l),
(206,48,l),
(258,313,l),
(244,303,l),
(283,303,l),
(272,312,l),
(414,0,l),
(667,0,l),
(670,16,l),
(645,23,ls),
(632,27,o),
(612,56,o),
(594,93,cs),
(468,352,l),
(456,331,l),
(551,357,o),
(631,438,o),
(648,527,cs),
(668,628,o),
(568,700,o),
(406,700,cs),
(56,700,l),
(52,680,l),
(141,649,l),
(140,652,l),
(22,48,l),
(25,51,l),
(-76,20,l),
(-80,0,l)
);
},
{
closed = 1;
nodes = (
(324,655,l),
(321,650,l),
(375,650,ls),
(437,650,o),
(469,586,o),
(451,495,cs),
(434,407,o),
(381,344,o),
(323,344,cs),
(262,344,l),
(263,342,l)
);
}
);
width = 673;
}
);
unicode = 82;
},
{
color = 6;
glyphname = S;
layers = (
{
anchors = (
{
name = ced;
pos = (213,0);
},
{
name = com;
pos = (213,-2);
},
{
name = top;
pos = (351,700);
}
);
layerId = m01;
shapes = (
{
closed = 1;
nodes = (
(342,-16,o),
(451,66,o),
(474,183,cs),
(491,273,o),
(407,338,o),
(327,401,cs),
(255,458,o),
(185,512,o),
(198,574,cs),
(210,637,o),
(272,682,o),
(347,682,cs),
(415,682,o),
(467,614,o),
(474,518,c),
(502,518,l),
(530,662,l),
(503,694,o),
(430,716,o),
(353,716,cs),
(224,716,o),
(118,639,o),
(97,529,cs),
(80,442,o),
(172,370,o),
(256,301,cs),
(328,243,o),
(397,190,o),
(387,138,cs),
(373,68,o),
(303,18,o),
(217,18,cs),
(139,18,o),
(83,92,o),
(79,197,c),
(50,197,l),
(8,44,l),
(56,9,o),
(140,-16,o),
(211,-16,cs)
);
}
);
width = 528;
},
{
anchors = (
{
name = ced;
pos = (271,0);
},
{
name = com;
pos = (271,-2);
},
{
name = top;
pos = (273,700);
}
);
associatedMasterId = m01;
layerId = "81631164-83AA-4D73-9C19-4A915934467F";
name = "1. Jan. 24, 23:55";
shapes = (
{
closed = 1;
nodes = (
(403,-16,o),
(496,66,o),
(496,183,cs),
(496,347,o),
(144,442,o),
(144,574,cs),
(144,637,o),
(197,682,o),
(272,682,cs),
(340,682,o),
(406,614,o),
(431,518,c),
(459,518,l),
(459,662,l),
(426,694,o),
(349,716,o),
(272,716,cs),
(143,716,o),
(52,639,o),
(52,529,cs),
(52,375,o),
(418,250,o),
(418,138,cs),
(418,68,o),
(358,18,o),
(272,18,cs),
(194,18,o),
(123,92,o),
(99,197,c),
(70,197,l),
(57,44,l),
(112,9,o),
(201,-16,o),
(272,-16,cs)
);
}
);
width = 548;
},
{
anchors = (
{
name = ced;
pos = (193,0);
},
{
name = com;
pos = (198,-2);
},
{
name = top;
pos = (376,700);
}
);
hints = (
{
horizontal = 1;
place = (-87, -28);
place = (-87, -28);
type = Stem;
},
{
horizontal = 1;
place = (611, -28);
place = (611, -28);
type = Stem;
},
{
place = (-59, 110);
place = (-59, 110);
type = Stem;
},
{
place = (307, 96);
place = (307, 96);
type = Stem;
},
{
place = (355, 11);
place = (355, 11);
type = Stem;
}
);
layerId = "E0989092-07D5-4BE4-A82B-4E03160A36DB";
shapes = (
{
closed = 1;
nodes = (
(376,-16,o),
(503,66,o),
(526,183,cs),
(542,270,o),
(463,333,o),
(385,396,cs),
(311,453,o),
(236,505,o),
(250,574,cs),
(261,634,o),
(304,676,o),
(354,676,cs),
(459,676,o),
(501,609,o),
(483,515,c),
(553,515,l),
(579,647,l),
(540,687,o),
(450,716,o),
(362,716,cs),
(208,716,o),
(84,639,o),
(63,529,cs),
(47,447,o),
(130,377,o),
(214,311,cs),
(291,250,o),
(364,195,o),
(353,138,cs),
(340,71,o),
(288,24,o),
(228,24,cs),
(114,24,o),
(67,97,o),
(87,200,c),
(17,200,l),
(-24,54,l),
(11,13,o),
(113,-16,o),
(220,-16,cs)
);
}
);
width = 566;
}
);
unicode = 83;
},
{
color = 6;
glyphname = Saltillo;
layers = (
{
layerId = m01;
shapes = (
{
closed = 1;
nodes = (
(110,415,l),
(176,700,l),
(94,700,l),
(48,415,l)
);
}
);
width = 214;
},
{
layerId = "E0989092-07D5-4BE4-A82B-4E03160A36DB";
shapes = (
{
closed = 1;
nodes = (
(128,395,l),
(198,700,l),
(96,700,l),
(46,395,l)
);
}
);
width = 234;
}
);
unicode = 42891;
},
{
color = 6;
glyphname = Germandbls;
layers = (
{
layerId = m01;
shapes = (
{
closed = 1;
nodes = (
(447,-16,o),
(523,77,o),
(544,180,cs),
(566,296,o),
(494,311,o),
(440,348,cs),
(404,373,o),
(375,404,o),
(382,440,cs),
(389,477,o),
(423,495,o),
(462,517,cs),
(519,548,o),
(581,587,o),
(609,700,c),
(102,700,l),
(98,680,l),
(199,644,l),
(186,668,l),
(63,32,l),
(84,56,l),
(-31,20,l),
(-34,0,l),
(150,0,l),
(279,668,l),
(260,650,l),
(518,650,l),
(502,665,l),
(504,595,o),
(454,557,o),
(408,519,cs),
(367,484,o),
(306,450,o),
(294,390,cs),
(280,315,o),
(362,261,o),
(418,229,cs),
(459,204,o),
(492,168,o),
(485,130,cs),
(470,56,o),
(425,19,o),
(371,19,cs),
(334,19,o),
(303,47,o),
(286,139,c),
(265,139,l),
(244,34,l),
(263,5,o),
(314,-16,o),
(364,-16,cs)
);
}
);
width = 600;
},
{
associatedMasterId = m01;
layerId = "5F037B64-807D-4008-80E9-3713EBE27D4E";
name = "1. Jan. 24, 23:57";
shapes = (
{
closed = 1;
nodes = (
(527,-16,o),
(585,57,o),
(585,160,cs),
(585,355,o),
(373,350,o),
(373,440,cs),
(373,529,o),
(549,509,o),
(559,699,c),
(447,676,l),
(477,531,o),
(315,519,o),
(315,390,cs),
(315,225,o),
(536,230,o),
(536,140,cs),
(536,66,o),
(498,19,o),
(444,19,cs),
(407,19,o),
(370,47,o),
(352,94,cs),
(335,139,l),
(317,139,l),
(311,34,l),
(339,5,o),
(394,-16,o),
(444,-16,cs)
);
},
{
closed = 1;
nodes = (
(218,0,l),
(218,50,l),
(123,50,l),
(32,20,l),
(32,0,l)
);
},
{
closed = 1;
nodes = (
(218,50,l),
(218,650,l),
(123,650,l),
(123,50,l)
);
},
{
closed = 1;
nodes = (
(529,650,l),
(559,700,l),
(32,700,l),
(32,680,l),
(123,650,l)
);
}
);
width = 600;
},
{
layerId = "E0989092-07D5-4BE4-A82B-4E03160A36DB";
shapes = (
{
closed = 1;
nodes = (
(499,-16,o),
(578,47,o),
(597,147,cs),
(621,269,o),
(558,318,o),
(505,348,cs),
(466,371,o),
(433,394,o),
(442,440,cs),
(451,485,o),
(483,498,o),
(524,515,cs),
(579,536,o),
(653,564,o),
(682,700,c),
(59,700,l),
(56,687,l),
(142,653,l),
(141,656,l),
(22,45,l),
(25,48,l),
(-74,17,l),
(-77,0,l),
(190,0,l),
(317,655,l),
(314,653,l),
(513,653,l),
(512,655,l),
(513,584,o),
(482,564,o),
(412,514,cs),
(375,484,o),
(313,452,o),
(301,390,cs),
(279,277,o),
(331,254,o),
(387,224,cs),
(431,202,o),
(492,153,o),
(483,107,cs),
(467,23,o),
(409,22,o),
(389,22,cs),
(377,22,o),
(284,30,o),
(303,142,c),
(257,142,l),
(239,47,l),
(229,23,o),
(302,-16,o),
(381,-16,cs)
);
}
);
width = 600;
}
);
unicode = 7838;
},
{
color = 6;
glyphname = T;
layers = (
{
anchors = (
{
name = ced;
pos = (247,0);
},
{
name = com;
pos = (247,-2);
},
{
name = top;
pos = (375,700);
}
);
background = {
shapes = (
{
closed = 1;
nodes = (
(85,612,ls),
(100,640,o),
(105,657,o),
(105,675,cs),
(105,691,o),
(93,700,o),
(73,700,cs),
(52,700,o),
(36,679,o),
(29,640,cs),
(16,564,ls),
(9,524,o),
(9,502,o),
(15,500,cs),
(21,498,o),
(34,514,o),
(53,551,cs)
);
}
);
};
layerId = m01;
shapes = (
{
closed = 1;
nodes = (
(380,0,l),
(384,19,l),
(290,56,l),
(302,32,l),
(427,676,l),
(404,650,l),
(602,650,l),
(579,666,l),
(634,500,l),
(655,500,l),
(660,700,l),
(107,700,l),
(34,500,l),
(55,500,l),
(174,666,l),
(145,650,l),
(345,650,l),
(331,668,l),
(207,32,l),
(229,56,l),
(114,20,l),
(110,0,l)
);
}
);
width = 691;
},
{
anchors = (
{
name = ced;
pos = (335,0);
},
{
name = com;
pos = (335,-2);
},
{
name = top;
pos = (327,700);
}
);
associatedMasterId = m01;
background = {
shapes = (
{
closed = 1;
nodes = (
(105,612,ls),
(120,640,o),
(125,657,o),
(125,675,cs),
(125,691,o),
(113,700,o),
(93,700,cs),
(72,700,o),
(56,679,o),
(49,640,cs),
(36,564,ls),
(29,524,o),
(29,502,o),
(35,500,cs),
(41,498,o),
(54,514,o),
(73,551,cs)
);
}
);
};
layerId = "48D25F69-1500-4DA1-829A-E991BACADBF6";
name = "2. Jan. 24, 00:02";
shapes = (
{
closed = 1;
nodes = (
(384,50,l),
(384,650,l),
(289,650,l),
(289,50,l)
);
},
{
closed = 1;
nodes = (
(468,0,l),
(468,19,l),
(384,50,l),
(289,50,l),
(198,20,l),
(198,0,l)
);
},
{
closed = 1;
nodes = (
(46,500,l),
(151,700,l),
(59,700,l),
(25,500,l)
);
},
{
closed = 1;
nodes = (
(612,650,l),
(612,700,l),
(59,700,l),
(59,650,l)
);
},
{
closed = 1;
nodes = (
(646,500,l),
(612,700,l),
(520,700,l),
(625,500,l)
);
}
);
width = 671;
},
{
anchors = (
{
name = ced;
pos = (219,0);
},
{
name = com;
pos = (220,-2);
},
{
name = top;
pos = (355,700);
}
);
hints = (
{
horizontal = 1;
place = (-68, -52);
place = (-68, -52);
type = Stem;
},
{
horizontal = 1;
place = (579, -15);
place = (579, -15);
type = Stem;
},
{
place = (111, 114);
place = (111, 114);
type = Stem;
},
{
horizontal = 1;
place = (429, 135);
place = (429, 135);
type = Stem;
}
);
layerId = "E0989092-07D5-4BE4-A82B-4E03160A36DB";
shapes = (
{
closed = 1;
nodes = (
(404,0,l),
(408,20,l),
(319,51,l),
(320,48,l),
(438,652,l),
(435,650,l),
(554,650,l),
(552,652,l),
(604,500,l),
(634,500,l),
(637,700,l),
(73,700,l),
(-2,500,l),
(28,500,l),
(140,652,l),
(136,650,l),
(255,650,l),
(254,652,l),
(136,48,l),
(139,51,l),
(38,20,l),
(34,0,l)
);
}
);
width = 664;
}
);
unicode = 84;
},
{
color = 6;
glyphname = U;
layers = (
{
anchors = (
{
name = ogo;
pos = (284,0);
},
{
name = top;
pos = (439,700);
}
);
layerId = m01;
shapes = (
{
closed = 1;
nodes = (
(436,-15,o),
(564,87,o),
(592,230,cs),
(677,668,l),
(656,644,l),
(774,681,l),
(777,700,l),
(542,700,l),
(539,680,l),
(640,644,l),
(627,668,l),
(538,210,ls),
(519,113,o),
(427,44,o),
(315,44,cs),
(204,44,o),
(142,129,o),
(166,250,cs),
(247,668,l),
(226,644,l),
(344,681,l),
(347,700,l),
(67,700,l),
(64,680,l),
(165,644,l),
(152,668,l),
(67,230,ls),
(39,87,o),
(129,-15,o),
(282,-15,cs)
);
}
);
width = 726;
},
{
anchors = (
{
name = ogo;
pos = (371,0);
},
{
name = top;
pos = (390,700);
}
);
associatedMasterId = m01;
layerId = "C9F274BC-9739-450A-90AE-ADDF7D885A0A";
name = "2. Jan. 24, 00:06";
shapes = (
{
closed = 1;
nodes = (
(525,-15,o),
(634,87,o),
(634,230,c),
(584,210,l),
(584,113,o),
(505,44,o),
(393,44,cs),
(282,44,o),
(204,129,o),
(204,250,c),
(109,230,l),
(109,87,o),
(218,-15,o),
(371,-15,cs)
);
},
{
closed = 1;
nodes = (
(204,250,l),
(204,650,l),
(109,650,l),
(109,230,l)
);
},
{
closed = 1;
nodes = (
(204,650,l),
(298,681,l),
(298,700,l),
(18,700,l),
(18,680,l),
(109,650,l)
);
},
{
closed = 1;
nodes = (
(634,230,l),
(634,650,l),
(584,650,l),
(584,210,l)
);
},
{
closed = 1;
nodes = (
(634,650,l),
(728,681,l),
(728,700,l),
(493,700,l),
(493,680,l),
(584,650,l)
);
}
);
width = 746;
},
{
anchors = (
{
name = ogo;
pos = (268,0);
},
{
name = top;
pos = (468,700);
}
);
background = {
shapes = (
{
closed = 0;
nodes = (
(617,648,l),
(710,680,l),
(710,700,l),
(340,700,l),
(340,680,l),
(433,650,l)
);
}
);
};
hints = (
{
horizontal = 1;
place = (-84, -1);
place = (-84, -1);
type = Stem;
},
{
horizontal = 1;
place = (618, -50);
place = (618, -50);
type = Stem;
},
{
place = (-17, 116);
place = (-17, 116);
type = Stem;
},
{
place = (491, 4);
place = (491, 4);
type = Stem;
}
);
layerId = "E0989092-07D5-4BE4-A82B-4E03160A36DB";
shapes = (
{
closed = 1;
nodes = (
(442,-16,o),
(567,85,o),
(595,228,cs),
(677,650,l),
(674,647,l),
(776,680,l),
(780,700,l),
(544,700,l),
(540,680,l),
(629,649,l),
(627,652,l),
(538,193,ls),
(522,109,o),
(435,49,o),
(329,49,cs),
(245,49,o),
(201,128,o),
(223,240,cs),
(303,650,l),
(300,647,l),
(402,680,l),
(406,700,l),
(36,700,l),
(32,680,l),
(121,649,l),
(119,652,l),
(32,202,ls),
(7,74,o),
(115,-16,o),
(294,-16,cs)
);
}
);
width = 716;
}
);
unicode = 85;
},
{
color = 6;
glyphname = V;
layers = (
{
anchors = (
{
name = top;
pos = (387,700);
}
);
background = {
shapes = (
{
closed = 1;
nodes = (
(21,660,l),
(262,-10,l),
(361,10,l),
(120,660,l)
);
}
);
};
layerId = m01;
shapes = (
{
closed = 1;
nodes = (
(244,0,l),
(622,667,l),
(594,644,l),
(712,681,l),
(716,700,l),
(478,700,l),
(474,680,l),
(575,644,l),
(569,667,l),
(264,127,l),
(269,127,l),
(172,667,l),
(154,644,l),
(272,681,l),
(276,700,l),
(-11,700,l),
(-15,680,l),
(86,644,l),
(68,667,l),
(193,-10,l)
);
}
);
width = 597;
},
{
associatedMasterId = m01;
background = {
shapes = (
{
closed = 1;
nodes = (
(101,660,l),
(342,-10,l),
(441,10,l),
(200,660,l)
);
}
);
};
layerId = "2DF3106B-5057-4E46-8347-DDA87B063409";
name = "2. Jan. 24, 00:09";
shapes = (
{
closed = 1;
nodes = (
(391,0,l),
(633,650,l),
(580,650,l),
(392,144,l),
(195,650,l),
(91,650,l),
(342,-10,l)
);
},
{
closed = 1;
nodes = (
(195,650,l),
(289,681,l),
(289,700,l),
(0,700,l),
(0,680,l),
(91,650,l)
);
},
{
closed = 1;
nodes = (
(633,650,l),
(727,681,l),
(727,700,l),
(489,700,l),
(489,680,l),
(580,650,l)
);
}
);
width = 727;
},
{
anchors = (
{
name = top;
pos = (409,700);
}
);
background = {
shapes = (
{
closed = 1;
nodes = (
(661,700,l),
(404,700,l),
(404,680,l),
(517,643,l),
(516,652,l),
(443,460,l),
(548,462,l),
(251,462,l),
(254,460,l),
(182,652,l),
(181,649,l),
(276,680,l),
(276,700,l),
(-94,700,l),
(-94,680,l),
(-12,653,l),
(-15,656,l),
(232,-15,l),
(323,0,l),
(569,652,l),
(566,649,l),
(661,680,l)
);
},
{
closed = 1;
nodes = (
(532,422,l),
(429,424,l),
(290,52,l),
(406,52,l),
(268,424,l),
(267,422,l)
);
}
);
};
hints = (
{
horizontal = 1;
place = (617, -51);
place = (617, -51);
type = Stem;
},
{
place = (-144, 684);
place = (-144, 684);
type = Stem;
}
);
layerId = "E0989092-07D5-4BE4-A82B-4E03160A36DB";
shapes = (
{
closed = 1;
nodes = (
(256,0,l),
(629,652,l),
(626,649,l),
(727,680,l),
(730,700,l),
(473,700,l),
(470,680,l),
(573,643,l),
(573,646,l),
(317,201,l),
(321,201,l),
(242,652,l),
(241,649,l),
(342,680,l),
(345,700,l),
(-25,700,l),
(-28,680,l),
(48,653,l),
(46,656,l),
(163,-15,l)
);
}
);
width = 589;
}
);
unicode = 86;
},
{
color = 6;
glyphname = W;
layers = (
{
anchors = (
{
name = top;
pos = (589,700);
}
);
background = {
shapes = (
{
closed = 0;
nodes = (
(308,-35,l),
(615,733,l)
);
},
{
closed = 0;
nodes = (
(369,-45,l),
(676,723,l)
);
},
{
closed = 0;
nodes = (
(613,-35,l),
(920,733,l)
);
},
{
closed = 0;
nodes = (
(679,-35,l),
(986,733,l)
);
}
);
};
layerId = m01;
shapes = (
{
closed = 1;
nodes = (
(316,0,l),
(524,350,l),
(494,350,l),
(553,-10,l),
(603,0,l),
(1001,667,l),
(963,645,l),
(1089,681,l),
(1093,700,l),
(836,700,l),
(832,680,l),
(940,645,l),
(933,667,l),
(606,107,l),
(623,108,l),
(568,441,l),
(566,409,l),
(714,666,l),
(681,643,l),
(777,681,l),
(781,700,l),
(586,700,l),
(582,680,l),
(659,646,l),
(649,667,l),
(540,472,l),
(560,472,l),
(514,700,l),
(338,700,l),
(334,680,l),
(443,645,l),
(422,666,l),
(486,383,l),
(497,415,l),
(328,121,l),
(338,120,l),
(232,700,l),
(49,700,l),
(45,680,l),
(153,645,l),
(135,667,l),
(262,-10,l)
);
}
);
width = 1035;
},
{
anchors = (
{
name = top;
pos = (540,700);
}
);
associatedMasterId = m01;
background = {
shapes = (
{
closed = 1;
nodes = (
(80,660,l),
(321,-10,l),
(420,10,l),
(179,660,l)
);
},
{
closed = 1;
nodes = (
(437,660,l),
(678,-10,l),
(777,10,l),
(536,660,l)
);
}
);
};
layerId = "D26895DC-3BB4-497B-9268-E03FEBC355CF";
name = "2. Jan. 24, 00:10";
shapes = (
{
closed = 1;
nodes = (
(373,0,l),
(694,700,l),
(637,700,l),
(372,137,l),
(177,700,l),
(98,650,l),
(321,-10,l)
);
},
{
closed = 1;
nodes = (
(177,700,l),
(0,700,l),
(0,680,l),
(98,650,l)
);
},
{
closed = 1;
nodes = (
(730,0,l),
(943,650,l),
(886,650,l),
(720,124,l),
(446,700,l),
(368,650,l),
(678,-10,l)
);
},
{
closed = 1;
nodes = (
(446,700,l),
(269,700,l),
(269,680,l),
(368,650,l)
);
},
{
closed = 1;
nodes = (
(674,650,l),
(743,681,l),
(743,700,l),
(518,700,l),
(518,680,l),
(617,650,l)
);
},
{
closed = 1;
nodes = (
(943,650,l),
(1045,681,l),
(1045,700,l),
(788,700,l),
(788,680,l),
(886,650,l)
);
}
);
width = 1045;
},
{
anchors = (
{
name = top;
pos = (590,700);
}
);
background = {
shapes = (
{
closed = 1;
nodes = (
(381,0,l),
(655,652,l),
(652,649,l),
(747,680,l),
(747,700,l),
(490,700,l),
(490,680,l),
(601,643,l),
(600,646,l),
(403,201,l),
(407,201,l),
(212,652,l),
(211,649,l),
(306,680,l),
(306,700,l),
(-64,700,l),
(-64,680,l),
(18,653,l),
(15,656,l),
(290,-15,l)
);
},
{
closed = 1;
nodes = (
(381,0,l),
(655,652,l),
(652,649,l),
(747,680,l),
(747,700,l),
(490,700,l),
(490,680,l),
(601,643,l),
(600,646,l),
(403,201,l),
(407,201,l),
(212,652,l),
(211,649,l),
(306,680,l),
(306,700,l),
(-64,700,l),
(-64,680,l),
(18,653,l),
(15,656,l),
(290,-15,l)
);
},
{
closed = 1;
nodes = (
(676,0,l),
(950,652,l),
(947,649,l),
(1042,680,l),
(1042,700,l),
(785,700,l),
(785,680,l),
(896,643,l),
(895,646,l),
(698,201,l),
(702,201,l),
(507,652,l),
(506,649,l),
(601,680,l),
(601,700,l),
(231,700,l),
(231,680,l),
(313,653,l),
(310,656,l),
(585,-15,l)
);
}
);
};
hints = (
{
horizontal = 1;
place = (616, -50);
place = (616, -50);
type = Stem;
},
{
place = (-144, 1019);
place = (-144, 1019);
type = Stem;
}
);
layerId = "E0989092-07D5-4BE4-A82B-4E03160A36DB";
shapes = (
{
closed = 1;
nodes = (
(314,0,l),
(485,292,l),
(464,284,l),
(528,-15,l),
(609,0,l),
(1013,657,l),
(997,646,l),
(1108,680,l),
(1111,700,l),
(893,700,l),
(890,683,l),
(960,640,l),
(956,651,l),
(658,168,l),
(664,167,l),
(595,479,l),
(582,436,l),
(722,664,l),
(695,644,l),
(813,680,l),
(816,700,l),
(634,700,l),
(631,680,l),
(671,643,l),
(670,667,l),
(575,514,l),
(587,522,l),
(548,700,l),
(300,700,l),
(297,680,l),
(401,643,l),
(380,669,l),
(461,296,l),
(469,357,l),
(345,144,l),
(362,148,l),
(241,700,l),
(5,700,l),
(2,680,l),
(84,651,l),
(74,664,l),
(221,-15,l)
);
}
);
width = 960;
}
);
unicode = 87;
},
{
color = 6;
glyphname = X;
layers = (
{
anchors = (
{
name = top;
pos = (450,700);
}
);
layerId = m01;
shapes = (
{
closed = 1;
nodes = (
(213,0,l),
(217,20,l),
(116,56,l),
(119,35,l),
(352,312,l),
(332,312,l),
(471,35,l),
(482,56,l),
(364,19,l),
(360,0,l),
(652,0,l),
(656,20,l),
(555,56,l),
(578,35,l),
(411,388,l),
(406,358,l),
(670,665,l),
(639,644,l),
(757,681,l),
(761,700,l),
(514,700,l),
(510,680,l),
(611,644,l),
(608,665,l),
(380,405,l),
(400,405,l),
(276,665,l),
(265,644,l),
(383,681,l),
(387,700,l),
(98,700,l),
(94,680,l),
(195,644,l),
(172,665,l),
(326,321,l),
(332,351,l),
(57,35,l),
(88,56,l),
(-30,19,l),
(-34,0,l)
);
}
);
width = 700;
},
{
associatedMasterId = m01;
layerId = "F046320F-1E9A-4CB2-9107-3F313C602A8C";
name = "2. Jan. 24, 00:11";
shapes = (
{
closed = 1;
nodes = (
(170,50,l),
(329,297,l),
(502,50,l),
(610,50,l),
(404,358,ls),
(365,417,o),
(347,403,o),
(319,361,cs),
(108,50,l)
);
},
{
closed = 1;
nodes = (
(261,0,l),
(261,20,l),
(170,50,l),
(108,50,l),
(14,19,l),
(14,0,l)
);
},
{
closed = 1;
nodes = (
(700,0,l),
(700,20,l),
(609,50,l),
(502,50,l),
(408,19,l),
(408,0,l)
);
},
{
closed = 1;
nodes = (
(579,650,l),
(517,650,l),
(359,420,l),
(205,650,l),
(101,650,l),
(288,355,ls),
(324,298,o),
(351,309,o),
(380,352,cs)
);
},
{
closed = 1;
nodes = (
(205,650,l),
(299,681,l),
(299,700,l),
(10,700,l),
(10,680,l),
(101,650,l)
);
},
{
closed = 1;
nodes = (
(579,650,l),
(673,681,l),
(673,700,l),
(426,700,l),
(426,680,l),
(517,650,l)
);
}
);
width = 710;
},
{
anchors = (
{
name = top;
pos = (452,700);
}
);
hints = (
{
horizontal = 1;
place = (-68, -52);
place = (-68, -52);
type = Stem;
},
{
horizontal = 1;
place = (616, -52);
place = (616, -52);
type = Stem;
},
{
place = (-101, 708);
place = (-101, 708);
type = Stem;
}
);
layerId = "E0989092-07D5-4BE4-A82B-4E03160A36DB";
shapes = (
{
closed = 1;
nodes = (
(198,0,l),
(201,17,l),
(90,64,l),
(89,40,l),
(351,376,l),
(277,295,l),
(387,27,l),
(412,47,l),
(305,16,l),
(302,0,l),
(680,0,l),
(683,17,l),
(580,52,l),
(603,34,l),
(424,444,l),
(373,377,l),
(657,669,l),
(616,638,l),
(760,684,l),
(763,700,l),
(489,700,l),
(486,683,l),
(567,635,l),
(570,660,l),
(363,419,l),
(422,453,l),
(320,686,l),
(293,644,l),
(412,684,l),
(415,700,l),
(60,700,l),
(57,683,l),
(163,647,l),
(98,683,l),
(266,315,l),
(334,404,l),
(7,33,l),
(46,63,l),
(-99,16,l),
(-102,0,l)
);
}
);
width = 696;
}
);
unicode = 88;
},
{
color = 6;
glyphname = Y;
layers = (
{
anchors = (
{
name = top;
pos = (408,700);
}
);
layerId = m01;
shapes = (
{
closed = 1;
nodes = (
(391,0,l),
(395,19,l),
(291,56,l),
(303,32,l),
(365,351,l),
(623,665,l),
(592,644,l),
(710,681,l),
(714,700,l),
(467,700,l),
(463,680,l),
(564,644,l),
(560,666,l),
(336,374,l),
(352,374,l),
(245,666,l),
(235,644,l),
(353,681,l),
(357,700,l),
(58,700,l),
(54,680,l),
(155,644,l),
(133,666,l),
(262,310,l),
(208,32,l),
(230,56,l),
(115,20,l),
(111,0,l)
);
}
);
width = 636;
},
{
anchors = (
{
name = top;
pos = (350,700);
}
);
associatedMasterId = m01;
layerId = "910689E5-F858-4CAF-834D-8F0FBE956DA8";
name = "2. Jan. 24, 00:13";
shapes = (
{
closed = 1;
nodes = (
(562,650,l),
(500,650,l),
(350,390,l),
(205,650,l),
(91,650,l),
(313,251,l)
);
},
{
closed = 1;
nodes = (
(469,0,l),
(469,19,l),
(375,50,l),
(280,50,l),
(189,20,l),
(189,0,l)
);
},
{
closed = 1;
nodes = (
(375,50,l),
(375,373,l),
(280,373,l),
(280,50,l)
);
},
{
closed = 1;
nodes = (
(205,650,l),
(299,681,l),
(299,700,l),
(0,700,l),
(0,680,l),
(91,650,l)
);
},
{
closed = 1;
nodes = (
(562,650,l),
(656,681,l),
(656,700,l),
(409,700,l),
(409,680,l),
(500,650,l)
);
}
);
width = 656;
},
{
anchors = (
{
name = top;
pos = (392,700);
}
);
background = {
shapes = (
{
closed = 1;
nodes = (
(456,0,l),
(456,20,l),
(363,50,l),
(363,648,l),
(456,680,l),
(456,700,l),
(86,700,l),
(86,680,l),
(179,650,l),
(179,50,l),
(86,20,l),
(86,0,l)
);
}
);
};
hints = (
{
horizontal = 1;
place = (-68, -52);
place = (-68, -52);
type = Stem;
},
{
horizontal = 1;
place = (616, -52);
place = (616, -52);
type = Stem;
},
{
place = (119, 113);
place = (119, 113);
type = Stem;
}
);
layerId = "E0989092-07D5-4BE4-A82B-4E03160A36DB";
shapes = (
{
closed = 1;
nodes = (
(388,0,l),
(392,19,l),
(282,58,l),
(299,23,l),
(366,367,l),
(608,669,l),
(576,647,l),
(694,684,l),
(697,700,l),
(457,700,l),
(454,683,l),
(523,647,l),
(526,666,l),
(304,376,l),
(350,392,l),
(259,676,l),
(241,654,l),
(324,684,l),
(327,700,l),
(-26,700,l),
(-29,683,l),
(73,649,l),
(57,663,l),
(170,306,l),
(117,31,l),
(141,56,l),
(22,20,l),
(18,0,l)
);
}
);
width = 537;
}
);
unicode = 89;
},
{
color = 6;
glyphname = Z;
layers = (
{
anchors = (
{
name = top;
pos = (412,700);
}
);
layerId = m01;
shapes = (
{
closed = 1;
nodes = (
(540,0,l),
(579,201,l),
(535,211,l),
(469,37,l),
(494,50,l),
(117,50,l),
(121,35,l),
(675,700,l),
(178,700,l),
(105,500,l),
(126,500,l),
(245,666,l),
(216,650,l),
(535,650,l),
(530,665,l),
(-3,20,l),
(-7,0,l)
);
}
);
width = 640;
},
{
anchors = (
{
name = top;
pos = (314,700);
}
);
associatedMasterId = m01;
layerId = "345EA7E1-6674-4C14-AB06-E1D43D2DBF31";
name = "2. Jan. 24, 00:52";
shapes = (
{
closed = 1;
nodes = (
(580,700,l),
(461,700,l),
(31,20,l),
(132,1,l)
);
},
{
closed = 1;
nodes = (
(578,0,l),
(578,50,l),
(123,50,l),
(31,20,l),
(31,0,l)
);
},
{
closed = 1;
nodes = (
(578,201,l),
(532,211,l),
(503,51,l),
(578,0,l)
);
},
{
closed = 1;
nodes = (
(67,500,l),
(172,700,l),
(80,700,l),
(46,500,l)
);
},
{
closed = 1;
nodes = (
(472,650,l),
(505,700,l),
(83,700,l),
(83,650,l)
);
}
);
width = 620;
},
{
anchors = (
{
name = top;
pos = (456,700);
}
);
hints = (
{
horizontal = 1;
place = (-68, -11);
place = (-68, -11);
type = Stem;
},
{
horizontal = 1;
place = (575, -11);
place = (575, -11);
type = Stem;
},
{
place = (494, 41);
place = (494, 41);
type = Stem;
},
{
horizontal = 1;
place = (425, 139);
place = (425, 139);
type = Stem;
}
);
layerId = "E0989092-07D5-4BE4-A82B-4E03160A36DB";
shapes = (
{
closed = 1;
nodes = (
(613,0,l),
(651,198,l),
(605,210,l),
(522,48,l),
(526,50,l),
(222,50,l),
(222,48,l),
(745,700,l),
(166,700,l),
(92,500,l),
(142,500,l),
(252,652,l),
(248,650,l),
(486,650,l),
(486,652,l),
(-17,17,l),
(-20,0,l)
);
}
);
width = 673;
}
);
unicode = 90;
},
{
export = 0;
glyphname = W_h;
layers = (
{
anchors = (
{
name = top;
pos = (599,700);
}
);
layerId = m01;
shapes = (
{
closed = 1;
nodes = (
(326,0,l),
(534,350,l),
(504,350,l),
(563,-10,l),
(613,0,l),
(1011,667,l),
(974,645,l),
(1040,681,l),
(1043,700,l),
(846,700,l),
(842,680,l),
(951,645,l),
(943,667,l),
(616,107,l),
(633,108,l),
(578,441,l),
(577,409,l),
(725,666,l),
(691,643,l),
(788,681,l),
(791,700,l),
(596,700,l),
(592,680,l),
(669,646,l),
(659,667,l),
(550,472,l),
(570,472,l),
(524,700,l),
(348,700,l),
(344,680,l),
(454,645,l),
(433,666,l),
(497,383,l),
(507,415,l),
(339,121,l),
(349,120,l),
(242,700,l),
(59,700,l),
(55,680,l),
(164,645,l),
(145,667,l),
(272,-10,l)
);
},
{
closed = 1;
nodes = (
(1116,0,l),
(1122,30,l),
(1036,55,l),
(1048,32,l),
(1125,426,l),
(1111,399,l),
(1156,436,o),
(1213,470,o),
(1254,470,cs),
(1322,470,o),
(1359,415,o),
(1344,338,cs),
(1284,32,l),
(1306,55,l),
(1210,30,l),
(1204,0,l),
(1459,0,l),
(1463,20,l),
(1362,56,l),
(1374,32,l),
(1439,366,ls),
(1456,453,o),
(1395,515,o),
(1293,515,cs),
(1241,515,o),
(1172,479,o),
(1119,440,c),
(1126,430,l),
(1182,718,l),
(1199,794,l),
(1190,800,l),
(993,745,l),
(990,729,l),
(1109,715,l),
(1095,735,l),
(958,32,l),
(980,56,l),
(865,20,l),
(861,0,l)
);
}
);
width = 1536;
},
{
anchors = (
{
name = top;
pos = (620,700);
}
);
hints = (
{
horizontal = 1;
place = (606, -60);
place = (606, -60);
type = Stem;
},
{
place = (-154, 1009);
place = (-154, 1009);
type = Stem;
},
{
horizontal = 1;
place = (-80, -61);
place = (-80, -61);
type = Stem;
},
{
horizontal = 1;
place = (395, -31);
place = (395, -31);
type = Stem;
},
{
place = (947, 99);
place = (947, 99);
type = Stem;
},
{
place = (1273, 99);
place = (1273, 99);
type = Stem;
}
);
layerId = "E0989092-07D5-4BE4-A82B-4E03160A36DB";
shapes = (
{
closed = 1;
nodes = (
(344,0,l),
(514,292,l),
(493,284,l),
(557,-15,l),
(639,0,l),
(1042,657,l),
(1026,646,l),
(1137,680,l),
(1141,700,l),
(993,700,l),
(989,683,l),
(989,640,l),
(985,651,l),
(687,168,l),
(693,167,l),
(624,479,l),
(611,436,l),
(752,664,l),
(724,644,l),
(842,680,l),
(846,700,l),
(664,700,l),
(660,680,l),
(701,643,l),
(699,667,l),
(605,514,l),
(616,522,l),
(578,700,l),
(330,700,l),
(326,680,l),
(431,643,l),
(410,669,l),
(490,296,l),
(498,357,l),
(375,144,l),
(392,148,l),
(271,700,l),
(35,700,l),
(31,680,l),
(113,651,l),
(104,664,l),
(250,-15,l)
);
},
{
closed = 1;
nodes = (
(1096,0,l),
(1100,20,l),
(1041,51,l),
(1042,48,l),
(1115,422,l),
(1113,419,l),
(1146,443,o),
(1185,461,o),
(1209,461,cs),
(1246,461,o),
(1262,410,o),
(1248,338,cs),
(1192,48,l),
(1195,51,l),
(1124,20,l),
(1120,0,l),
(1432,0,l),
(1436,20,l),
(1367,51,l),
(1368,48,l),
(1430,366,ls),
(1447,455,o),
(1373,517,o),
(1251,517,cs),
(1216,517,o),
(1166,502,o),
(1124,477,c),
(1125,476,l),
(1172,718,l),
(1188,787,l),
(1184,810,l),
(931,759,l),
(925,729,l),
(996,708,l),
(995,711,l),
(866,48,l),
(869,51,l),
(788,20,l),
(784,0,l)
);
}
);
width = 1511;
}
);
metricLeft = W;
metricRight = h;
},
{
export = 0;
glyphname = W_i;
layers = (
{
anchors = (
{
name = ogo;
pos = (1057,0);
},
{
name = top;
pos = (603,700);
}
);
layerId = m01;
shapes = (
{
closed = 1;
nodes = (
(330,0,l),
(515,310,l),
(567,-10,l),
(617,0,l),
(975,602,ls),
(1014,664,o),
(1105,666,o),
(1193,607,c),
(1256,705,l),
(1149,801,o),
(1008,763,o),
(916,613,c),
(634,130,l),
(586,418,l),
(721,653,l),
(792,681,l),
(795,700,l),
(600,700,l),
(597,680,l),
(656,654,l),
(569,498,l),
(528,700,l),
(352,700,l),
(349,680,l),
(440,651,l),
(499,393,l),
(350,134,l),
(246,700,l),
(63,700,l),
(60,680,l),
(152,650,l),
(276,-10,l)
);
},
{
closed = 1;
nodes = (
(1195,0,l),
(1199,20,l),
(1095,57,l),
(1108,33,l),
(1186,434,l),
(1203,510,l),
(1194,516,l),
(997,461,l),
(994,445,l),
(1113,431,l),
(1099,451,l),
(1018,32,l),
(1039,55,l),
(921,20,l),
(917,0,l)
);
}
);
width = 1303;
},
{
anchors = (
{
name = ogo;
pos = (880,0);
},
{
name = top;
pos = (625,700);
}
);
hints = (
{
horizontal = 1;
place = (611, -55);
place = (611, -55);
type = Stem;
},
{
place = (-149, 1014);
place = (-149, 1014);
type = Stem;
},
{
horizontal = 1;
place = (-72, -55);
place = (-72, -55);
type = Stem;
},
{
horizontal = 1;
place = (444, -20);
target = down;
type = TopGhost;
},
{
horizontal = 1;
place = (502, 124);
place = (502, 124);
type = Stem;
},
{
place = (801, 104);
place = (801, 104);
type = Stem;
},
{
place = (792, 136);
place = (792, 136);
type = Stem;
}
);
layerId = "E0989092-07D5-4BE4-A82B-4E03160A36DB";
shapes = (
{
closed = 1;
nodes = (
(235,0,l),
(390,263,l),
(448,-15,l),
(530,0,l),
(824,553,ls),
(867,631,o),
(959,638,o),
(1046,571,c),
(1126,700,l),
(1011,787,o),
(884,762,o),
(818,640,cs),
(580,191,l),
(519,462,l),
(633,648,l),
(705,664,l),
(712,700,l),
(555,700,l),
(552,680,l),
(582,652,l),
(506,530,l),
(469,700,l),
(221,700,l),
(218,680,l),
(306,649,l),
(375,331,l),
(280,166,l),
(162,700,l),
(-74,700,l),
(-77,680,l),
(-2,654,l),
(141,-15,l)
);
},
{
closed = 1;
nodes = (
(1040,0,l),
(1044,20,l),
(975,51,l),
(973,28,l),
(1050,427,l),
(1065,493,l),
(1062,516,l),
(809,465,l),
(803,435,l),
(874,414,l),
(876,437,l),
(797,28,l),
(803,51,l),
(722,20,l),
(718,0,l)
);
}
);
width = 1142;
}
);
metricLeft = W;
},
{
color = 5;
glyphname = a;
layers = (
{
associatedMasterId = m01;
layerId = "DC0490B7-783B-4ABB-9CE4-D8D1AAD9D32C";
name = "1. Jan. 24, 11:25";
shapes = (
{
closed = 1;
nodes = (
(508,18,l),
(508,34,l),
(405,47,l),
(405,391,ls),
(405,464,o),
(351,516,o),
(275,516,cs),
(144,516,o),
(68,456,o),
(68,371,cs),
(68,336,l),
(151,356,l),
(154,391,ls),
(159,445,o),
(192,483,o),
(251,483,cs),
(288,483,o),
(319,437,o),
(319,371,cs),
(319,65,l),
(321,-11,l),
(331,-17,l)
);
},
{
closed = 1;
nodes = (
(236,-16,o),
(285,17,o),
(331,64,c),
(328,115,l),
(288,70,o),
(256,34,o),
(217,34,cs),
(178,34,o),
(143,102,o),
(143,177,cs),
(143,229,o),
(215,250,o),
(351,249,c),
(350,288,l),
(187,288,o),
(55,244,o),
(55,147,cs),
(55,63,o),
(90,-16,o),
(183,-16,cs)
);
}
);
width = 505;
},
{
anchors = (
{
name = ogo;
pos = (279,0);
},
{
name = top;
pos = (346,500);
}
);
layerId = m01;
name = Regular;
shapes = (
{
closed = 1;
nodes = (
(436,-16,o),
(495,3,o),
(538,31,c),
(523,57,l),
(503,44,o),
(479,34,o),
(465,34,cs),
(447,34,o),
(435,49,o),
(435,70,cs),
(435,76,o),
(436,87,o),
(438,96,cs),
(509,460,l),
(466,486,l),
(446,504,o),
(406,516,o),
(369,516,cs),
(183,516,o),
(51,378,o),
(51,183,cs),
(51,69,o),
(111,-11,o),
(196,-11,cs),
(234,-11,o),
(293,11,o),
(340,41,c),
(340,8,o),
(364,-16,o),
(397,-16,cs)
);
},
{
closed = 1;
nodes = (
(220,471,o),
(319,471,cs),
(348,471,o),
(386,454,o),
(412,429,c),
(345,77,l),
(310,52,o),
(269,34,o),
(246,34,cs),
(190,34,o),
(150,102,o),
(150,199,cs),
(150,358,o)
);
}
);
width = 535;
},
{
anchors = (
{
name = ogo;
pos = (314,0);
},
{
name = top;
pos = (361,500);
}
);
hints = (
{
horizontal = 1;
place = (-65, 21);
target = up;
type = BottomGhost;
},
{
horizontal = 1;
place = (197, -6);
place = (197, -6);
type = Stem;
},
{
horizontal = 1;
place = (431, -13);
place = (431, -13);
type = Stem;
},
{
place = (-37, 125);
place = (-37, 125);
type = Stem;
},
{
place = (260, 124);
place = (260, 124);
type = Stem;
},
{
horizontal = 1;
place = (-64, 21);
target = up;
type = BottomGhost;
},
{
place = (-24, 120);
place = (-24, 120);
type = Stem;
},
{
horizontal = 1;
place = (-65, 4);
place = (-65, 4);
type = Stem;
}
);
layerId = "E0989092-07D5-4BE4-A82B-4E03160A36DB";
shapes = (
{
closed = 1;
nodes = (
(475,-16,o),
(553,3,o),
(596,31,c),
(581,57,l),
(561,44,o),
(537,34,o),
(522,34,cs),
(502,34,o),
(492,46,o),
(492,70,cs),
(492,77,o),
(493,86,o),
(495,96,cs),
(566,464,l),
(519,483,ls),
(470,503,o),
(415,519,o),
(383,519,cs),
(174,519,o),
(17,393,o),
(17,188,cs),
(17,67,o),
(82,-14,o),
(210,-14,cs),
(263,-14,o),
(289,-7,o),
(331,12,c),
(350,-7,o),
(380,-16,o),
(408,-16,cs)
);
},
{
closed = 1;
nodes = (
(225,461,o),
(331,461,cs),
(347,461,o),
(370,449,o),
(385,434,c),
(311,52,l),
(295,43,o),
(272,37,o),
(260,37,cs),
(212,37,o),
(198,88,o),
(198,169,cs),
(198,267,o)
);
}
);
width = 588;
},
{
anchors = (
{
name = ogo;
pos = (304,0);
},
{
name = top;
pos = (351,500);
}
);
associatedMasterId = "E0989092-07D5-4BE4-A82B-4E03160A36DB";
hints = (
{
horizontal = 1;
place = (-65, 21);
target = up;
type = BottomGhost;
},
{
horizontal = 1;
place = (197, -6);
place = (197, -6);
type = Stem;
},
{
horizontal = 1;
place = (431, -13);
place = (431, -13);
type = Stem;
},
{
place = (-37, 125);
place = (-37, 125);
type = Stem;
},
{
place = (260, 124);
place = (260, 124);
type = Stem;
},
{
horizontal = 1;
place = (-64, 21);
target = up;
type = BottomGhost;
},
{
place = (-24, 120);
place = (-24, 120);
type = Stem;
},
{
horizontal = 1;
place = (-65, 4);
place = (-65, 4);
type = Stem;
}
);
layerId = "70A3009B-B8D9-472A-9666-1E0D9EC841C3";
name = "11. Jan. 24, 20:24";
shapes = (
{
closed = 1;
nodes = (
(199,-16,o),
(246,18,o),
(283,49,c),
(282,50,l),
(274,-1,l),
(283,-15,l),
(545,21,l),
(552,56,l),
(460,68,l),
(461,66,l),
(524,391,ls),
(538,464,o),
(456,516,o),
(324,516,cs),
(186,516,o),
(77,456,o),
(61,371,cs),
(57,351,o),
(52,329,o),
(51,319,c),
(199,351,l),
(199,351,o),
(200,363,o),
(201,381,cs),
(208,425,o),
(269,466,o),
(303,466,cs),
(338,466,o),
(356,427,o),
(345,371,cs),
(328,287,l),
(331,289,l),
(173,277,o),
(19,225,o),
(4,147,cs),
(-12,66,o),
(27,-16,o),
(160,-16,cs)
);
},
{
closed = 1;
nodes = (
(191,70,o),
(172,118,o),
(182,168,cs),
(192,221,o),
(239,234,o),
(320,237,c),
(321,248,l),
(290,91,l),
(293,95,l),
(270,75,o),
(253,70,o),
(241,70,cs)
);
}
);
width = 558;
},
{
anchors = (
{
name = ogo;
pos = (273,0);
},
{
name = top;
pos = (330,500);
}
);
associatedMasterId = m01;
layerId = "06339BC0-61F0-4ED6-BF14-E07A188A5344";
name = "11. Jan. 24, 21:10";
shapes = (
{
closed = 1;
nodes = (
(184,-16,o),
(239,16,o),
(292,61,c),
(283,70,l),
(270,-11,l),
(279,-17,l),
(440,18,l),
(443,34,l),
(348,49,l),
(362,29,l),
(433,391,ls),
(447,464,o),
(403,516,o),
(327,516,cs),
(196,516,o),
(108,456,o),
(92,371,cs),
(89,359,o),
(87,348,o),
(86,336,c),
(173,356,l),
(175,368,o),
(178,379,o),
(182,391,cs),
(197,445,o),
(237,483,o),
(296,483,cs),
(333,483,o),
(356,437,o),
(343,371,cs),
(323,269,l),
(342,287,l),
(187,285,o),
(53,241,o),
(35,147,cs),
(19,63,o),
(38,-16,o),
(131,-16,cs)
);
},
{
closed = 1;
nodes = (
(136,34,o),
(114,102,o),
(129,177,cs),
(139,228,o),
(211,248,o),
(340,249,c),
(322,267,l),
(287,87,l),
(303,116,l),
(254,71,o),
(214,34,o),
(175,34,cs)
);
}
);
width = 505;
},
{
anchors = (
{
name = ogo;
pos = (304,0);
},
{
name = top;
pos = (351,500);
}
);
associatedMasterId = "E0989092-07D5-4BE4-A82B-4E03160A36DB";
hints = (
{
horizontal = 1;
place = (-65, 21);
target = up;
type = BottomGhost;
},
{
horizontal = 1;
place = (197, -6);
place = (197, -6);
type = Stem;
},
{
horizontal = 1;
place = (431, -13);
place = (431, -13);
type = Stem;
},
{
place = (-37, 125);
place = (-37, 125);
type = Stem;
},
{
place = (260, 124);
place = (260, 124);
type = Stem;
},
{
horizontal = 1;
place = (-64, 21);
target = up;
type = BottomGhost;
},
{
place = (-24, 120);
place = (-24, 120);
type = Stem;
},
{
horizontal = 1;
place = (-65, 4);
place = (-65, 4);
type = Stem;
}
);
layerId = "A45E4BA6-0AD3-4B7B-85E3-BCE57AE5035D";
name = "12. Jan. 24, 20:57";
shapes = (
{
closed = 1;
nodes = (
(261,-14,o),
(286,-5,o),
(341,21,c),
(304,72,l),
(485,96,l),
(556,464,l),
(509,483,l),
(461,504,o),
(405,519,o),
(373,519,cs),
(169,519,o),
(21,403,o),
(1,238,cs),
(-22,90,o),
(55,-14,o),
(200,-14,cs)
);
},
{
closed = 1;
nodes = (
(465,-16,o),
(543,3,o),
(586,31,c),
(571,57,l),
(551,44,o),
(527,34,o),
(512,34,cs),
(492,34,o),
(482,46,o),
(482,70,cs),
(482,77,o),
(483,86,o),
(485,96,c),
(304,72,l),
(303,67,o),
(303,62,o),
(303,58,cs),
(303,6,o),
(354,-16,o),
(398,-16,cs)
);
},
{
closed = 1;
nodes = (
(180,37,o),
(162,143,o),
(192,293,cs),
(213,391,o),
(261,461,o),
(321,461,cs),
(337,461,o),
(361,449,o),
(375,433,c),
(375,436,l),
(300,49,l),
(301,52,l),
(285,43,o),
(262,37,o),
(250,37,cs)
);
}
);
width = 558;
}
);
unicode = 97;
},
{
color = 5;
glyphname = ae;
layers = (
{
layerId = m01;
shapes = (
{
closed = 1;
nodes = (
(166,-16,o),
(230,-3,o),
(334,71,c),
(313,70,l),
(339,13,o),
(393,-16,o),
(470,-16,cs),
(543,-16,o),
(629,26,o),
(679,80,c),
(662,108,l),
(617,72,o),
(555,44,o),
(512,44,cs),
(416,44,o),
(368,137,o),
(400,278,c),
(379,262,l),
(721,262,l),
(724,272,o),
(726,281,o),
(728,291,cs),
(753,420,o),
(697,516,o),
(582,516,cs),
(516,516,o),
(456,488,o),
(408,441,c),
(421,440,l),
(410,486,o),
(364,516,o),
(307,516,cs),
(176,516,o),
(78,456,o),
(62,371,cs),
(59,359,o),
(57,348,o),
(55,336,c),
(142,356,l),
(145,368,o),
(148,379,o),
(151,391,cs),
(167,445,o),
(217,483,o),
(276,483,cs),
(313,483,o),
(345,437,o),
(333,371,cs),
(315,279,l),
(334,297,l),
(176,295,o),
(23,241,o),
(5,147,cs),
(-11,63,o),
(18,-16,o),
(111,-16,cs)
);
},
{
closed = 1;
nodes = (
(116,34,o),
(84,102,o),
(99,177,cs),
(109,228,o),
(201,258,o),
(332,259,c),
(318,269,l),
(312,261,o),
(310,248,o),
(307,237,cs),
(295,175,o),
(295,125,o),
(306,87,c),
(322,108,l),
(236,49,o),
(193,34,o),
(155,34,cs)
);
},
{
closed = 1;
nodes = (
(412,335,l),
(437,419,o),
(489,477,o),
(542,477,cs),
(612,477,o),
(648,395,o),
(630,287,c),
(650,303,l),
(386,298,l),
(401,280,l)
);
}
);
width = 765;
},
{
associatedMasterId = m01;
layerId = "B65321F4-4844-4506-B17C-728D37A61E98";
name = "1. Jan. 24, 12:08";
shapes = (
{
closed = 1;
nodes = (
(595,-13,o),
(673,26,o),
(712,80,c),
(690,108,l),
(652,72,o),
(595,47,o),
(552,47,cs),
(460,47,o),
(395,130,o),
(395,262,c),
(719,262,l),
(731,405,o),
(653,517,o),
(530,517,cs),
(396,517,o),
(311,401,o),
(310,237,cs),
(309,61,o),
(391,-13,o),
(522,-13,cs)
);
},
{
closed = 1;
nodes = (
(216,-16,o),
(275,-3,o),
(361,64,c),
(358,115,l),
(278,50,o),
(236,34,o),
(197,34,cs),
(158,34,o),
(113,102,o),
(113,177,cs),
(113,229,o),
(205,260,o),
(341,259,c),
(340,298,l),
(177,298,o),
(25,244,o),
(25,147,cs),
(25,63,o),
(70,-16,o),
(163,-16,cs)
);
},
{
closed = 1;
nodes = (
(395,391,ls),
(395,464,o),
(331,516,o),
(255,516,cs),
(124,516,o),
(38,456,o),
(38,371,cs),
(38,336,l),
(121,356,l),
(124,391,ls),
(129,445,o),
(172,483,o),
(231,483,cs),
(268,483,o),
(309,437,o),
(309,371,cs),
(309,279,l),
(395,262,l)
);
},
{
closed = 1;
nodes = (
(393,401,o),
(437,478,o),
(498,478,cs),
(566,478,o),
(617,401,o),
(622,298,c),
(626,302,ls),
(628,304,o),
(576,304,o),
(518,302,cs),
(393,298,l)
);
}
);
width = 765;
},
{
hints = (
{
horizontal = 1;
place = (-67, 18);
place = (-67, 18);
type = Stem;
},
{
horizontal = 1;
place = (210, -3);
place = (210, -3);
type = Stem;
},
{
horizontal = 1;
place = (421, -4);
place = (421, -4);
type = Stem;
},
{
place = (-67, 125);
place = (-67, 125);
type = Stem;
},
{
place = (217, 123);
place = (217, 123);
type = Stem;
},
{
place = (531, 134);
place = (531, 134);
type = Stem;
},
{
horizontal = 1;
place = (-65, 8);
place = (-65, 8);
type = Stem;
},
{
horizontal = 1;
place = (427, -9);
place = (427, -9);
type = Stem;
},
{
place = (-54, 120);
place = (-54, 120);
type = Stem;
},
{
place = (218, 122);
place = (218, 122);
type = Stem;
}
);
layerId = "E0989092-07D5-4BE4-A82B-4E03160A36DB";
shapes = (
{
closed = 1;
nodes = (
(159,-16,o),
(224,13,o),
(291,52,c),
(289,52,l),
(323,4,o),
(384,-16,o),
(470,-16,cs),
(563,-16,o),
(673,53,o),
(712,97,c),
(688,128,l),
(603,75,o),
(548,51,o),
(513,51,cs),
(454,51,o),
(414,119,o),
(440,261,c),
(438,259,l),
(764,259,l),
(767,269,o),
(768,278,o),
(770,288,cs),
(798,430,o),
(719,516,o),
(582,516,cs),
(524,516,o),
(472,504,o),
(428,481,c),
(430,482,l),
(393,503,o),
(334,516,o),
(249,516,cs),
(153,516,o),
(33,446,o),
(18,368,cs),
(15,351,o),
(11,333,o),
(9,316,c),
(187,358,l),
(188,368,o),
(190,377,o),
(191,388,cs),
(201,453,o),
(244,476,o),
(253,476,cs),
(280,476,o),
(304,444,o),
(289,368,cs),
(275,296,l),
(277,298,l),
(124,283,o),
(-23,224,o),
(-38,147,cs),
(-53,68,o),
(-20,-16,o),
(111,-16,cs)
);
},
{
closed = 1;
nodes = (
(148,61,o),
(129,109,o),
(142,177,cs),
(152,231,o),
(192,247,o),
(271,254,c),
(269,255,l),
(267,250,o),
(265,242,o),
(264,237,cs),
(252,175,o),
(255,128,o),
(269,89,c),
(269,91,l),
(245,73,o),
(211,61,o),
(190,61,cs)
);
},
{
closed = 1;
nodes = (
(455,340,ls),
(472,426,o),
(520,471,o),
(541,471,cs),
(571,471,o),
(609,460,o),
(590,304,c),
(593,307,l),
(446,302,l),
(448,300,l)
);
}
);
width = 765;
}
);
unicode = 230;
},
{
color = 5;
glyphname = b;
layers = (
{
associatedMasterId = m01;
layerId = "8F5C45DE-E011-4AF6-A467-DD6264DF4D65";
name = "1. Jan. 24, 11:26";
shapes = (
{
closed = 1;
nodes = (
(153,44,l),
(153,718,l),
(155,794,l),
(145,800,l),
(-41,745,l),
(-41,729,l),
(63,717,l),
(63,44,l)
);
},
{
closed = 1;
nodes = (
(378,-12,o),
(496,111,o),
(496,286,c),
(404,258,l),
(404,126,o),
(342,28,o),
(255,28,cs),
(212,28,o),
(162,65,o),
(123,104,cs),
(122,105,l),
(64,44,l),
(111,18,l),
(136,0,o),
(179,-12,o),
(214,-12,cs)
);
},
{
closed = 1;
nodes = (
(496,286,l),
(496,420,o),
(407,515,o),
(284,515,cs),
(231,515,o),
(162,482,o),
(116,435,c),
(119,385,l),
(158,430,o),
(209,469,o),
(243,469,cs),
(337,469,o),
(404,382,o),
(404,258,c)
);
}
);
width = 543;
},
{
layerId = m01;
name = Regular;
shapes = (
{
closed = 1;
nodes = (
(338,-16,o),
(480,111,o),
(514,286,cs),
(518,305,o),
(519,323,o),
(519,340,cs),
(519,445,o),
(453,516,o),
(347,516,cs),
(307,516,o),
(254,496,o),
(206,466,c),
(254,712,ls),
(256,724,o),
(257,734,o),
(257,743,cs),
(257,783,o),
(239,800,o),
(200,800,cs),
(161,800,o),
(103,781,o),
(59,753,c),
(74,727,l),
(93,740,o),
(117,750,o),
(132,750,cs),
(152,750,o),
(162,738,o),
(162,714,cs),
(162,707,o),
(161,698,o),
(159,688,cs),
(34,44,l),
(98,0,o),
(139,-16,o),
(174,-16,cs)
);
},
{
closed = 1;
nodes = (
(198,420,l),
(235,448,o),
(272,470,o),
(297,470,cs),
(375,470,o),
(423,409,o),
(423,317,cs),
(423,299,o),
(421,279,o),
(417,258,cs),
(391,126,o),
(309,24,o),
(222,24,cs),
(189,24,o),
(157,49,o),
(131,78,c)
);
}
);
width = 542;
},
{
hints = (
{
horizontal = 1;
place = (-94, -31);
place = (-94, -31);
type = Stem;
},
{
horizontal = 1;
place = (385, -25);
place = (385, -25);
type = Stem;
},
{
place = (-33, 98);
place = (-33, 98);
type = Stem;
},
{
place = (308, 100);
place = (308, 100);
type = Stem;
}
);
layerId = "E0989092-07D5-4BE4-A82B-4E03160A36DB";
shapes = (
{
closed = 1;
nodes = (
(370,-16,o),
(533,104,o),
(568,286,cs),
(571,303,o),
(573,320,o),
(573,335,cs),
(573,448,o),
(489,516,o),
(405,516,cs),
(351,516,o),
(294,509,o),
(267,499,c),
(313,737,ls),
(314,742,o),
(314,747,o),
(314,751,cs),
(314,803,o),
(263,825,o),
(219,825,cs),
(152,825,o),
(74,806,o),
(31,778,c),
(46,752,l),
(66,765,o),
(90,775,o),
(105,775,cs),
(125,775,o),
(135,763,o),
(135,739,cs),
(135,732,o),
(134,723,o),
(132,713,cs),
(1,41,l),
(77,17,o),
(132,-16,o),
(254,-16,cs)
);
},
{
closed = 1;
nodes = (
(257,449,l),
(276,457,o),
(295,461,o),
(306,461,cs),
(355,461,o),
(393,418,o),
(393,333,cs),
(393,312,o),
(390,288,o),
(385,261,cs),
(358,119,o),
(287,34,o),
(258,34,cs),
(231,34,o),
(206,40,o),
(182,65,c)
);
}
);
width = 583;
},
{
associatedMasterId = m01;
layerId = "EA0C8824-CBEB-4B5D-A24E-C870EA716344";
name = "10. Jan. 24, 22:26";
shapes = (
{
closed = 1;
nodes = (
(329,-16,o),
(471,111,o),
(505,286,cs),
(531,420,o),
(461,516,o),
(338,516,cs),
(295,516,o),
(237,493,o),
(186,458,c),
(194,448,l),
(246,718,l),
(263,794,l),
(254,800,l),
(58,745,l),
(55,729,l),
(174,715,l),
(160,735,l),
(25,44,l),
(89,0,o),
(130,-16,o),
(165,-16,cs)
);
},
{
closed = 1;
nodes = (
(177,24,o),
(142,54,o),
(114,86,c),
(118,59,l),
(192,438,l),
(175,410,l),
(217,443,o),
(260,470,o),
(288,470,cs),
(382,470,o),
(432,382,o),
(408,258,cs),
(382,126,o),
(300,24,o),
(213,24,cs)
);
}
);
width = 543;
}
);
unicode = 98;
},
{
color = 5;
glyphname = c;
layers = (
{
anchors = (
{
name = ced;
pos = (218,0);
},
{
name = top;
pos = (323,500);
}
);
layerId = m01;
shapes = (
{
closed = 1;
nodes = (
(277,-13,o),
(360,25,o),
(417,79,c),
(405,105,l),
(357,72,o),
(297,48,o),
(261,48,cs),
(165,48,o),
(111,143,o),
(137,277,cs),
(161,403,o),
(232,489,o),
(310,489,cs),
(369,489,o),
(407,415,o),
(405,339,c),
(446,339,l),
(475,490,l),
(453,490,o),
(431,496,o),
(408,503,cs),
(381,510,o),
(355,517,o),
(328,516,cs),
(185,510,o),
(71,399,o),
(39,234,cs),
(10,89,o),
(84,-13,o),
(216,-13,cs)
);
}
);
width = 473;
},
{
anchors = (
{
name = ced;
pos = (209,0);
},
{
name = top;
pos = (344,500);
}
);
background = {
shapes = (
{
closed = 0;
nodes = (
(264,-17,ls),
(352,-17,o),
(450,23,o),
(499,79,c),
(468,112,l),
(422,66,o),
(350,34,o),
(294,34,cs)
);
}
);
};
hints = (
{
horizontal = 1;
place = (-65, 18);
place = (-65, 18);
type = Stem;
},
{
horizontal = 1;
place = (437, -25);
place = (437, -25);
type = Stem;
},
{
place = (-47, 127);
place = (-47, 127);
type = Stem;
},
{
place = (307, 20);
place = (307, 20);
type = Stem;
}
);
layerId = "E0989092-07D5-4BE4-A82B-4E03160A36DB";
shapes = (
{
closed = 1;
nodes = (
(285,-16,o),
(376,15,o),
(422,59,c),
(397,92,l),
(360,61,o),
(309,39,o),
(274,39,cs),
(200,39,o),
(167,138,o),
(194,277,cs),
(215,384,o),
(254,463,o),
(288,467,c),
(370,469,o),
(418,415,o),
(403,336,c),
(453,336,l),
(486,508,l),
(483,507,o),
(466,508,o),
(443,510,cs),
(371,515,o),
(315,518,o),
(308,518,cs),
(165,512,o),
(41,394,o),
(10,234,cs),
(-19,88,o),
(60,-16,o),
(201,-16,cs)
);
}
);
width = 480;
}
);
unicode = 99;
},
{
color = 5;
glyphname = d;
layers = (
{
associatedMasterId = m01;
layerId = "E45AF11D-5959-4179-A5F9-D0A2E97EA0E1";
name = "1. Jan. 24, 11:32";
shapes = (
{
closed = 1;
nodes = (
(585,28,l),
(585,44,l),
(478,57,l),
(478,735,l),
(483,811,l),
(473,817,l),
(287,762,l),
(287,746,l),
(391,734,l),
(391,65,l),
(398,-1,l),
(408,-7,l)
);
},
{
closed = 1;
nodes = (
(297,-16,o),
(371,27,o),
(429,88,c),
(437,102,l),
(409,123,l),
(405,121,o),
(402,115,o),
(402,115,c),
(366,69,o),
(319,37,o),
(290,37,cs),
(195,37,o),
(132,128,o),
(132,271,cs),
(132,388,o),
(184,481,o),
(265,481,cs),
(300,481,o),
(349,469,o),
(383,451,cs),
(405,439,o),
(421,427,o),
(421,420,cs),
(421,415,l),
(452,451,l),
(443,455,l),
(404,491,o),
(337,516,o),
(280,516,cs),
(134,516,o),
(35,399,o),
(35,248,cs),
(35,88,o),
(121,-16,o),
(250,-16,cs)
);
}
);
width = 582;
},
{
layerId = m01;
name = Regular;
shapes = (
{
closed = 1;
nodes = (
(247,-16,o),
(304,10,o),
(362,51,c),
(358,4,o),
(376,-16,o),
(418,-16,cs),
(457,-16,o),
(515,3,o),
(559,31,c),
(544,57,l),
(525,44,o),
(501,34,o),
(486,34,cs),
(466,34,o),
(456,46,o),
(456,70,cs),
(456,77,o),
(457,86,o),
(459,96,cs),
(582,729,ls),
(584,741,o),
(585,751,o),
(585,760,cs),
(585,800,o),
(567,817,o),
(528,817,cs),
(489,817,o),
(431,798,o),
(387,770,c),
(402,744,l),
(421,757,o),
(445,767,o),
(460,767,cs),
(480,767,o),
(490,755,o),
(490,731,cs),
(490,724,o),
(489,715,o),
(487,705,cs),
(446,490,l),
(415,506,o),
(378,516,o),
(342,516,cs),
(196,516,o),
(75,399,o),
(45,248,cs),
(40,222,o),
(37,197,o),
(37,174,cs),
(37,57,o),
(101,-16,o),
(209,-16,cs)
);
},
{
closed = 1;
nodes = (
(170,388,o),
(240,481,o),
(321,481,cs),
(352,481,o),
(393,472,o),
(438,447,c),
(370,99,l),
(329,62,o),
(285,37,o),
(259,37,cs),
(183,37,o),
(139,96,o),
(139,192,cs),
(139,216,o),
(141,243,o),
(147,271,cs)
);
}
);
width = 572;
},
{
hints = (
{
horizontal = 1;
place = (-93, -21);
place = (-93, -21);
type = Stem;
},
{
horizontal = 1;
place = (436, -20);
target = down;
type = TopGhost;
},
{
place = (-60, 106);
place = (-60, 106);
type = Stem;
},
{
place = (297, 95);
place = (297, 95);
type = Stem;
},
{
horizontal = 1;
place = (401, -36);
place = (401, -36);
type = Stem;
}
);
layerId = "E0989092-07D5-4BE4-A82B-4E03160A36DB";
shapes = (
{
closed = 1;
nodes = (
(233,-16,o),
(285,11,o),
(325,39,c),
(335,1,o),
(379,-16,o),
(417,-16,cs),
(484,-16,o),
(562,3,o),
(605,31,c),
(590,57,l),
(570,44,o),
(546,34,o),
(531,34,cs),
(511,34,o),
(501,46,o),
(501,70,cs),
(501,77,o),
(502,86,o),
(504,96,cs),
(629,737,ls),
(630,742,o),
(630,747,o),
(630,751,cs),
(630,803,o),
(579,825,o),
(535,825,cs),
(468,825,o),
(390,806,o),
(347,778,c),
(362,752,l),
(382,765,o),
(406,775,o),
(421,775,cs),
(441,775,o),
(451,763,o),
(451,739,cs),
(451,732,o),
(450,723,o),
(448,713,cs),
(413,513,l),
(391,517,o),
(367,519,o),
(346,519,cs),
(177,519,o),
(36,406,o),
(5,248,cs),
(0,224,o),
(-2,201,o),
(-2,180,cs),
(-2,56,o),
(73,-16,o),
(175,-16,cs)
);
},
{
closed = 1;
nodes = (
(217,396,o),
(277,468,o),
(308,468,cs),
(344,468,o),
(381,461,o),
(402,453,c),
(330,83,l),
(293,56,o),
(265,39,o),
(245,39,cs),
(213,39,o),
(182,84,o),
(182,172,cs),
(182,200,o),
(186,233,o),
(193,271,cs)
);
}
);
width = 599;
}
);
unicode = 100;
},
{
color = 5;
glyphname = eth;
layers = (
{
layerId = m01;
shapes = (
{
closed = 1;
nodes = (
(347,-15,o),
(449,94,o),
(483,267,cs),
(523,474,o),
(475,579,o),
(396,657,c),
(389,642,l),
(469,704,l),
(448,733,l),
(354,661,l),
(378,667,l),
(337,688,o),
(284,699,o),
(223,699,c),
(216,663,l),
(257,663,o),
(295,651,o),
(326,625,c),
(331,644,l),
(249,581,l),
(269,550,l),
(359,619,l),
(336,613,l),
(373,579,o),
(395,523,o),
(401,445,c),
(409,455,l),
(380,470,o),
(342,477,o),
(298,477,cs),
(151,477,o),
(40,384,o),
(11,237,cs),
(-19,82,o),
(55,-15,o),
(202,-15,cs)
);
},
{
closed = 1;
nodes = (
(129,20,o),
(80,115,o),
(109,265,cs),
(130,374,o),
(201,442,o),
(278,442,cs),
(378,442,o),
(420,363,o),
(395,236,cs),
(369,103,o),
(296,20,o),
(222,20,cs)
);
}
);
width = 540;
},
{
associatedMasterId = m01;
layerId = "61B6939F-2C36-4E3A-A985-64CEAFBDB44F";
name = "1. Jan. 24, 12:10";
shapes = (
{
closed = 1;
nodes = (
(430,-15,o),
(511,94,o),
(511,267,cs),
(511,396,o),
(430,477,o),
(285,477,cs),
(138,477,o),
(45,384,o),
(45,237,cs),
(45,82,o),
(138,-15,o),
(285,-15,cs)
);
},
{
closed = 1;
nodes = (
(205,20,o),
(137,115,o),
(137,265,cs),
(137,374,o),
(195,442,o),
(272,442,cs),
(362,442,o),
(419,363,o),
(419,236,cs),
(419,103,o),
(372,20,o),
(298,20,cs)
);
},
{
closed = 1;
nodes = (
(511,267,l),
(511,569,o),
(393,699,o),
(167,699,c),
(167,663,l),
(301,663,o),
(419,535,o),
(419,236,c)
);
},
{
closed = 1;
nodes = (
(412,704,l),
(385,733,l),
(216,581,l),
(242,550,l)
);
}
);
width = 600;
},
{
hints = (
{
horizontal = 1;
place = (-91, -32);
place = (-91, -32);
type = Stem;
},
{
horizontal = 1;
place = (366, -32);
place = (366, -32);
type = Stem;
},
{
horizontal = 1;
place = (588, -32);
place = (588, -32);
type = Stem;
},
{
place = (-71, 122);
place = (-71, 122);
type = Stem;
},
{
place = (296, 121);
place = (296, 121);
type = Stem;
},
{
horizontal = 1;
place = (633, -20);
target = down;
type = TopGhost;
}
);
layerId = "E0989092-07D5-4BE4-A82B-4E03160A36DB";
shapes = (
{
closed = 1;
nodes = (
(372,-18,o),
(512,110,o),
(547,290,cs),
(576,440,o),
(532,591,o),
(442,655,c),
(440,652,l),
(510,706,l),
(464,765,l),
(364,687,l),
(367,689,l),
(323,700,o),
(249,706,o),
(188,702,c),
(179,656,l),
(220,667,o),
(268,657,o),
(295,633,c),
(297,636,l),
(223,579,l),
(263,515,l),
(347,577,l),
(344,577,l),
(360,557,o),
(373,511,o),
(375,467,c),
(376,469,l),
(357,475,o),
(328,480,o),
(306,480,cs),
(140,480,o),
(3,379,o),
(-25,237,cs),
(-53,88,o),
(43,-18,o),
(209,-18,cs)
);
},
{
closed = 1;
nodes = (
(171,23,o),
(148,123,o),
(176,265,cs),
(196,367,o),
(241,439,o),
(285,439,cs),
(342,439,o),
(365,355,o),
(342,236,cs),
(318,111,o),
(272,23,o),
(230,23,cs)
);
}
);
width = 577;
}
);
unicode = 240;
},
{
color = 5;
glyphname = dcroat;
layers = (
{
layerId = m01;
shapes = (
{
closed = 1;
nodes = (
(585,599,l),
(585,639,l),
(237,639,l),
(237,599,l)
);
},
{
ref = d;
}
);
width = 600;
},
{
hints = (
{
horizontal = 1;
place = (-16, 56);
place = (-16, 56);
type = Stem;
},
{
horizontal = 1;
place = (513, -20);
target = down;
type = TopGhost;
},
{
horizontal = 1;
place = (596, 46);
place = (596, 46);
type = Stem;
},
{
place = (17, 183);
place = (17, 183);
type = Stem;
},
{
place = (374, 172);
place = (374, 172);
type = Stem;
},
{
horizontal = 1;
place = (478, 41);
place = (478, 41);
type = Stem;
}
);
layerId = "E0989092-07D5-4BE4-A82B-4E03160A36DB";
shapes = (
{
closed = 1;
nodes = (
(615,579,l),
(615,639,l),
(267,639,l),
(267,579,l)
);
},
{
ref = d;
}
);
width = 599;
}
);
unicode = 273;
},
{
color = 5;
glyphname = e;
layers = (
{
associatedMasterId = m01;
background = {
shapes = (
{
closed = 1;
nodes = (
(422,517,o),
(519,416,o),
(519,262,cs),
(519,91,o),
(422,-15,o),
(283,-15,cs),
(136,-15,o),
(43,91,o),
(43,262,cs),
(43,416,o),
(136,517,o),
(283,517,cs)
);
},
{
closed = 1;
nodes = (
(195,483,o),
(144,426,o),
(144,290,cs),
(144,101,o),
(204,18,o),
(296,18,cs),
(365,18,o),
(418,81,o),
(418,231,cs),
(418,407,o),
(357,483,o),
(270,483,cs)
);
},
{
closed = 1;
nodes = (
(140,517,o),
(46,401,o),
(45,237,cs),
(44,91,o),
(137,-13,o),
(267,-13,cs),
(315,-13,o),
(367,7,o),
(409,38,cs),
(443,64,o),
(451,88,o),
(444,95,cs),
(436,103,o),
(420,89,o),
(384,70,cs),
(357,55,o),
(326,47,o),
(297,47,cs),
(205,47,o),
(140,143,o),
(140,272,c),
(464,272,l),
(477,426,o),
(398,517,o),
(275,517,cs)
);
},
{
closed = 1;
nodes = (
(138,411,o),
(182,489,o),
(243,489,cs),
(311,489,o),
(362,411,o),
(367,308,c),
(371,312,ls),
(373,314,o),
(321,314,o),
(263,312,cs),
(138,308,l)
);
}
);
};
layerId = "E099E9C4-6D0B-439C-8099-D4BFC9A3B348";
name = "1. Jan. 24, 11:33";
shapes = (
{
closed = 1;
nodes = (
(340,-13,o),
(418,26,o),
(457,80,c),
(435,108,l),
(397,72,o),
(340,47,o),
(297,47,cs),
(205,47,o),
(140,140,o),
(140,272,c),
(464,272,l),
(476,415,o),
(398,517,o),
(275,517,cs),
(141,517,o),
(46,401,o),
(45,237,cs),
(44,91,o),
(136,-13,o),
(267,-13,cs)
);
},
{
closed = 1;
nodes = (
(138,411,o),
(182,478,o),
(243,478,cs),
(311,478,o),
(362,411,o),
(367,308,c),
(371,312,ls),
(373,314,o),
(321,314,o),
(263,312,cs),
(138,308,l)
);
}
);
width = 510;
},
{
anchors = (
{
name = ogo;
pos = (194,-6);
},
{
name = top;
pos = (333,500);
}
);
layerId = m01;
name = Regular;
shapes = (
{
closed = 1;
nodes = (
(287,-13,o),
(363,26,o),
(413,80,c),
(396,108,l),
(351,72,o),
(299,47,o),
(256,47,cs),
(160,47,o),
(114,147,o),
(146,288,c),
(125,272,l),
(194,272,l),
(346,272,o),
(464,315,o),
(456,410,cs),
(451,462,o),
(397,517,o),
(306,517,cs),
(171,517,o),
(73,399,o),
(41,235,cs),
(13,90,o),
(84,-13,o),
(214,-13,cs)
);
},
{
closed = 1;
nodes = (
(162,404,o),
(222,478,o),
(286,478,cs),
(327,478,o),
(363,424,o),
(362,376,cs),
(360,324,o),
(300,312,o),
(236,310,c),
(130,307,l),
(145,291,l)
);
}
);
width = 470;
},
{
anchors = (
{
name = ogo;
pos = (218,-6);
},
{
name = top;
pos = (344,500);
}
);
hints = (
{
horizontal = 1;
place = (-66, 20);
place = (-66, 20);
type = Stem;
},
{
horizontal = 1;
place = (221, -5);
place = (221, -5);
type = Stem;
},
{
horizontal = 1;
place = (427, -8);
place = (427, -8);
type = Stem;
},
{
place = (-63, 134);
place = (-63, 134);
type = Stem;
},
{
place = (262, 134);
place = (262, 134);
type = Stem;
},
{
place = (-63, 133);
place = (-63, 133);
type = Stem;
}
);
layerId = "E0989092-07D5-4BE4-A82B-4E03160A36DB";
shapes = (
{
closed = 1;
nodes = (
(308,-18,o),
(394,22,o),
(454,78,c),
(429,111,l),
(374,65,o),
(316,33,o),
(260,33,cs),
(195,33,o),
(167,131,o),
(193,271,c),
(180,262,l),
(228,262,l),
(429,262,o),
(529,322,o),
(500,408,cs),
(474,482,o),
(419,515,o),
(332,515,cs),
(162,515,o),
(38,409,o),
(7,250,cs),
(-23,95,o),
(72,-18,o),
(220,-18,cs)
);
},
{
closed = 1;
nodes = (
(228,425,o),
(263,464,o),
(290,464,cs),
(315,464,o),
(328,439,o),
(328,359,cs),
(327,330,o),
(306,310,o),
(249,310,c),
(188,309,l),
(197,296,l)
);
}
);
width = 503;
}
);
unicode = 101;
},
{
color = 5;
glyphname = schwa;
layers = (
{
layerId = m01;
shapes = (
{
closed = 1;
nodes = (
(318,-15,o),
(436,103,o),
(468,267,cs),
(496,412,o),
(425,515,o),
(295,515,cs),
(222,515,o),
(136,476,o),
(86,422,c),
(103,394,l),
(148,430,o),
(210,455,o),
(253,455,cs),
(349,455,o),
(395,355,o),
(363,214,c),
(384,230,l),
(42,230,l),
(39,220,o),
(37,211,o),
(35,201,cs),
(11,74,o),
(68,-15,o),
(183,-15,cs)
);
},
{
closed = 1;
nodes = (
(152,24,o),
(115,96,o),
(133,205,c),
(122,185,l),
(379,195,l),
(364,211,l),
(347,98,o),
(287,24,o),
(223,24,cs)
);
}
);
width = 510;
},
{
associatedMasterId = m01;
layerId = "8D250E25-4A73-4E42-8D01-181B9D146360";
name = "1. Jan. 24, 12:11";
shapes = (
{
closed = 1;
nodes = (
(369,-26,o),
(464,90,o),
(465,254,cs),
(466,400,o),
(374,504,o),
(243,504,cs),
(170,504,o),
(92,465,o),
(53,411,c),
(75,383,l),
(113,419,o),
(170,444,o),
(213,444,cs),
(305,444,o),
(370,351,o),
(370,219,c),
(46,219,l),
(34,76,o),
(112,-26,o),
(235,-26,cs)
);
},
{
closed = 1;
nodes = (
(199,13,o),
(148,80,o),
(143,183,c),
(139,179,ls),
(137,177,o),
(189,177,o),
(247,179,cs),
(372,183,l),
(372,80,o),
(328,13,o),
(267,13,cs)
);
}
);
width = 510;
},
{
layerId = "E0989092-07D5-4BE4-A82B-4E03160A36DB";
shapes = (
{
closed = 1;
nodes = (
(353,-16,o),
(480,106,o),
(511,265,cs),
(541,420,o),
(443,516,o),
(295,516,cs),
(202,516,o),
(94,442,o),
(55,398,c),
(84,362,l),
(155,431,o),
(216,447,o),
(251,447,cs),
(308,447,o),
(349,368,o),
(323,229,c),
(325,231,l),
(-1,231,l),
(-4,221,o),
(-6,210,o),
(-7,202,cs),
(-37,48,o),
(61,-16,o),
(183,-16,cs)
);
},
{
closed = 1;
nodes = (
(192,25,o),
(145,36,o),
(173,192,c),
(170,189,l),
(318,187,l),
(316,190,l),
(287,80,o),
(250,25,o),
(223,25,cs)
);
}
);
width = 510;
}
);
unicode = 601;
},
{
color = 5;
glyphname = f;
layers = (
{
layerId = m01;
shapes = (
{
closed = 1;
nodes = (
(72,-212,o),
(145,-130,o),
(170,0,cs),
(260,462,l),
(383,462,l),
(390,502,l),
(268,502,l),
(287,598,ls),
(308,709,o),
(349,787,o),
(404,787,cs),
(458,787,o),
(467,722,o),
(478,672,c),
(514,672,l),
(548,792,l),
(525,805,o),
(472,814,o),
(438,814,cs),
(313,814,o),
(219,711,o),
(191,566,cs),
(179,502,l),
(70,502,l),
(63,462,l),
(170,462,l),
(74,-32,ls),
(55,-130,o),
(29,-192,o),
(6,-192,cs),
(-5,-192,o),
(-18,-159,o),
(-29,-106,c),
(-61,-106,l),
(-79,-196,l),
(-62,-206,o),
(-39,-212,o),
(-20,-212,cs)
);
}
);
width = 348;
},
{
associatedMasterId = m01;
layerId = "A8992DFB-D995-4A8B-9681-2BC8D3A33222";
name = "1. Jan. 24, 11:36";
shapes = (
{
closed = 1;
nodes = (
(219,598,l),
(219,709,o),
(244,787,o),
(299,787,cs),
(353,787,o),
(375,722,o),
(395,672,c),
(431,672,l),
(442,792,l),
(417,805,o),
(362,814,o),
(328,814,cs),
(203,814,o),
(129,711,o),
(129,566,c)
);
},
{
closed = 1;
nodes = (
(313,0,l),
(313,19,l),
(219,50,l),
(129,50,l),
(38,20,l),
(38,0,l)
);
},
{
closed = 1;
nodes = (
(219,50,l),
(219,598,l),
(129,566,l),
(129,50,l)
);
},
{
closed = 1;
nodes = (
(341,462,l),
(341,502,l),
(22,502,l),
(20,462,l)
);
}
);
width = 372;
},
{
hints = (
{
horizontal = 1;
place = (-79, -55);
place = (-79, -55);
type = Stem;
},
{
horizontal = 1;
place = (373, -32);
place = (373, -32);
type = Stem;
},
{
horizontal = 1;
place = (705, -46);
place = (705, -46);
type = Stem;
},
{
place = (7, 97);
place = (7, 97);
type = Stem;
},
{
place = (276, -5);
place = (276, -5);
type = Stem;
},
{
horizontal = 1;
place = (-79, -54);
place = (-79, -54);
type = Stem;
}
);
layerId = "E0989092-07D5-4BE4-A82B-4E03160A36DB";
shapes = (
{
closed = 1;
nodes = (
(80,-239,o),
(178,-120,o),
(208,35,cs),
(290,452,l),
(418,452,l),
(428,499,l),
(298,499,l),
(319,605,ls),
(341,717,o),
(378,784,o),
(391,784,cs),
(448,784,o),
(454,721,o),
(444,669,c),
(494,669,l),
(526,784,l),
(488,805,o),
(467,817,o),
(426,817,cs),
(259,817,o),
(161,698,o),
(131,543,cs),
(122,499,l),
(23,499,l),
(15,452,l),
(114,452,l),
(20,-27,ls),
(-2,-139,o),
(-39,-206,o),
(-52,-212,c),
(-99,-212,o),
(-103,-153,o),
(-95,-119,c),
(-135,-119,l),
(-161,-212,l),
(-130,-229,o),
(-113,-239,o),
(-80,-239,cs)
);
}
);
width = 342;
}
);
unicode = 102;
},
{
color = 5;
glyphname = g;
layers = (
{
anchors = (
{
name = top;
pos = (320,490);
}
);
layerId = m01;
shapes = (
{
closed = 1;
nodes = (
(350,-217,o),
(406,-115,o),
(434,30,cs),
(517,460,l),
(474,486,l),
(455,504,o),
(414,516,o),
(377,516,cs),
(210,516,o),
(71,409,o),
(42,258,cs),
(38,236,o),
(36,215,o),
(36,195,cs),
(36,71,o),
(114,-11,o),
(205,-11,cs),
(245,-11,o),
(298,8,o),
(345,38,c),
(338,0,ls),
(316,-114,o),
(256,-194,o),
(194,-194,cs),
(114,-194,o),
(66,-137,o),
(66,-76,cs),
(66,-69,o),
(67,-61,o),
(68,-54,c),
(24,-54,l),
(0,-179,l),
(47,-201,o),
(122,-217,o),
(166,-217,cs)
);
},
{
closed = 1;
nodes = (
(134,229,o),
(137,257,o),
(143,286,cs),
(164,394,o),
(240,471,o),
(327,471,cs),
(355,471,o),
(398,462,o),
(423,442,c),
(353,77,l),
(316,50,o),
(280,34,o),
(255,34,cs),
(180,34,o),
(134,101,o),
(134,204,cs)
);
}
);
width = 540;
},
{
associatedMasterId = m01;
layerId = "3192C36B-E30A-466F-8F8A-7BE123BAD7E2";
name = "1. Jan. 24, 11:37";
shapes = (
{
closed = 1;
nodes = (
(406,-216,o),
(503,-131,o),
(503,-10,cs),
(503,42,o),
(456,92,o),
(391,92,cs),
(185,92,ls),
(136,92,o),
(100,110,o),
(100,149,cs),
(100,161,o),
(111,180,o),
(121,195,cs),
(140,223,o),
(149,240,o),
(143,248,cs),
(138,255,o),
(110,245,o),
(81,208,cs),
(61,181,o),
(49,154,o),
(49,131,cs),
(49,54,o),
(105,0,o),
(185,0,cs),
(325,0,ls),
(401,0,o),
(446,-28,o),
(446,-67,cs),
(446,-126,o),
(379,-168,o),
(271,-168,cs),
(173,-168,o),
(84,-124,o),
(84,-62,cs),
(84,-35,o),
(95,-20,o),
(116,2,cs),
(149,37,o),
(173,65,o),
(164,70,cs),
(155,76,o),
(133,69,o),
(103,41,cs),
(66,4,o),
(34,-43,o),
(34,-86,cs),
(34,-162,o),
(137,-216,o),
(255,-216,cs)
);
},
{
closed = 1;
nodes = (
(382,168,o),
(453,249,o),
(453,361,cs),
(453,454,o),
(384,515,o),
(274,515,cs),
(149,515,o),
(74,446,o),
(74,342,cs),
(74,240,o),
(146,168,o),
(254,168,cs)
);
},
{
closed = 1;
nodes = (
(197,203,o),
(174,261,o),
(174,358,cs),
(174,438,o),
(200,480,o),
(256,480,cs),
(321,480,o),
(358,427,o),
(358,328,cs),
(358,250,o),
(319,203,o),
(267,203,cs)
);
},
{
closed = 1;
nodes = (
(550,458,l),
(550,497,l),
(364,485,l),
(364,454,o),
(374,460,o),
(430,457,cs),
(541,450,l)
);
}
);
width = 550;
},
{
anchors = (
{
name = top;
pos = (363,500);
}
);
hints = (
{
horizontal = 1;
place = (-248, 9);
place = (-248, 9);
type = Stem;
},
{
horizontal = 1;
place = (-32, 73);
place = (-32, 73);
type = Stem;
},
{
horizontal = 1;
place = (136, 12);
place = (136, 12);
type = Stem;
},
{
horizontal = 1;
place = (446, 13);
place = (446, 13);
type = Stem;
},
{
place = (-22, 78);
place = (-22, 78);
type = Stem;
},
{
place = (420, 70);
place = (420, 70);
type = Stem;
},
{
horizontal = 1;
place = (420, 26);
place = (420, 26);
type = Stem;
},
{
place = (10, 99);
place = (10, 99);
type = Stem;
},
{
place = (319, 136);
place = (319, 136);
type = Stem;
},
{
place = (18, 141);
place = (18, 141);
type = Stem;
},
{
horizontal = 1;
place = (-29, 21);
target = up;
type = BottomGhost;
}
);
layerId = "E0989092-07D5-4BE4-A82B-4E03160A36DB";
shapes = (
{
closed = 1;
nodes = (
(406,-247,o),
(462,-145,o),
(490,0,cs),
(580,464,l),
(533,483,ls),
(485,504,o),
(429,519,o),
(397,519,cs),
(193,519,o),
(35,403,o),
(15,238,cs),
(13,222,o),
(11,207,o),
(11,192,cs),
(11,69,o),
(95,-14,o),
(224,-14,cs),
(247,-14,o),
(285,-9,o),
(314,-2,c),
(308,-30,ls),
(286,-144,o),
(273,-224,o),
(211,-224,cs),
(131,-224,o),
(83,-167,o),
(83,-106,cs),
(83,-99,o),
(84,-91,o),
(85,-84,c),
(41,-84,l),
(17,-209,l),
(64,-231,o),
(139,-247,o),
(183,-247,cs)
);
},
{
closed = 1;
nodes = (
(194,216,o),
(198,253,o),
(206,293,cs),
(227,391,o),
(285,461,o),
(345,461,cs),
(361,461,o),
(384,449,o),
(399,434,c),
(325,52,l),
(309,43,o),
(286,37,o),
(274,37,cs),
(223,37,o),
(194,94,o),
(194,183,cs)
);
}
);
width = 583;
},
{
anchors = (
{
name = top;
pos = (366,500);
}
);
associatedMasterId = "E0989092-07D5-4BE4-A82B-4E03160A36DB";
hints = (
{
horizontal = 1;
place = (-248, 9);
place = (-248, 9);
type = Stem;
},
{
horizontal = 1;
place = (-32, 73);
place = (-32, 73);
type = Stem;
},
{
horizontal = 1;
place = (136, 12);
place = (136, 12);
type = Stem;
},
{
horizontal = 1;
place = (446, 13);
place = (446, 13);
type = Stem;
},
{
place = (-22, 78);
place = (-22, 78);
type = Stem;
},
{
place = (420, 70);
place = (420, 70);
type = Stem;
},
{
horizontal = 1;
place = (420, 26);
place = (420, 26);
type = Stem;
},
{
place = (10, 99);
place = (10, 99);
type = Stem;
},
{
place = (319, 136);
place = (319, 136);
type = Stem;
},
{
place = (18, 141);
place = (18, 141);
type = Stem;
},
{
horizontal = 1;
place = (-29, 21);
target = up;
type = BottomGhost;
}
);
layerId = "5B926285-5472-4226-A356-305ED75CE713";
name = "12. Jan. 24, 21:04";
shapes = (
{
closed = 1;
nodes = (
(493,0,l),
(583,464,l),
(536,483,l),
(488,504,o),
(432,519,o),
(400,519,cs),
(196,519,o),
(38,403,o),
(18,238,cs),
(-5,90,o),
(82,-14,o),
(227,-14,cs),
(250,-14,o),
(289,-9,o),
(318,-2,c),
(317,0,l),
(311,-30,l)
);
},
{
closed = 1;
nodes = (
(409,-247,o),
(465,-145,o),
(493,0,c),
(311,-30,l),
(289,-144,o),
(276,-224,o),
(214,-224,cs),
(125,-224,o),
(75,-153,o),
(88,-84,c),
(44,-84,l),
(20,-209,l),
(67,-231,o),
(142,-247,o),
(186,-247,cs)
);
},
{
closed = 1;
nodes = (
(207,37,o),
(179,143,o),
(209,293,cs),
(230,391,o),
(288,461,o),
(348,461,cs),
(364,461,o),
(388,449,o),
(402,433,c),
(402,436,l),
(327,49,l),
(328,52,l),
(312,43,o),
(289,37,o),
(277,37,cs)
);
}
);
width = 563;
},
{
anchors = (
{
name = top;
pos = (324,490);
}
);
associatedMasterId = m01;
layerId = "6A8C3D1D-2DF1-4DFE-8B72-DD853FBA1520";
name = "12. Jan. 24, 21:04";
shapes = (
{
closed = 1;
nodes = (
(147,286,l),
(168,394,o),
(244,471,o),
(331,471,cs),
(374,471,o),
(450,450,o),
(450,400,cs),
(450,399,l),
(520,460,l),
(478,486,l),
(459,504,o),
(418,516,o),
(381,516,cs),
(214,516,o),
(75,409,o),
(46,258,c)
);
},
{
closed = 1;
nodes = (
(354,-217,o),
(410,-115,o),
(438,30,c),
(342,0,l),
(320,-114,o),
(260,-194,o),
(198,-194,cs),
(109,-194,o),
(59,-123,o),
(72,-54,c),
(28,-54,l),
(4,-179,l),
(51,-201,o),
(126,-217,o),
(170,-217,cs)
);
},
{
closed = 1;
nodes = (
(262,-11,o),
(337,22,o),
(392,69,c),
(397,110,l),
(350,65,o),
(293,34,o),
(259,34,cs),
(165,34,o),
(118,138,o),
(147,286,c),
(46,258,l),
(15,100,o),
(103,-11,o),
(209,-11,cs)
);
},
{
closed = 1;
nodes = (
(438,30,l),
(521,460,l),
(431,460,l),
(342,0,l)
);
}
);
width = 540;
}
);
unicode = 103;
},
{
color = 5;
glyphname = h;
layers = (
{
anchors = (
{
name = top;
pos = (276,736);
}
);
layerId = m01;
shapes = (
{
closed = 1;
nodes = (
(475,-16,o),
(533,3,o),
(577,31,c),
(562,57,l),
(543,44,o),
(519,34,o),
(504,34,cs),
(484,34,o),
(474,46,o),
(474,70,cs),
(474,77,o),
(475,86,o),
(477,96,cs),
(530,366,ls),
(532,376,o),
(533,385,o),
(533,394,cs),
(533,466,o),
(475,515,o),
(384,515,cs),
(335,515,o),
(272,483,o),
(220,447,c),
(272,712,ls),
(274,724,o),
(275,734,o),
(275,743,cs),
(275,783,o),
(257,800,o),
(218,800,cs),
(179,800,o),
(121,781,o),
(77,753,c),
(92,727,l),
(111,740,o),
(135,750,o),
(150,750,cs),
(170,750,o),
(180,738,o),
(180,714,cs),
(180,707,o),
(179,698,o),
(177,688,cs),
(42,0,l),
(132,0,l),
(212,407,l),
(255,441,o),
(307,470,o),
(345,470,cs),
(403,470,o),
(438,430,o),
(438,371,cs),
(438,360,o),
(437,349,o),
(435,338,cs),
(382,72,ls),
(380,60,o),
(379,50,o),
(379,41,cs),
(379,1,o),
(397,-16,o),
(436,-16,cs)
);
}
);
width = 591;
},
{
associatedMasterId = m01;
layerId = "8DB1B957-2715-4A2D-B5E6-8FC92795BC9D";
name = "1. Jan. 24, 11:40";
shapes = (
{
closed = 1;
nodes = (
(611,0,l),
(611,20,l),
(520,50,l),
(520,366,ls),
(520,453,o),
(447,515,o),
(345,515,cs),
(281,515,o),
(203,462,o),
(157,415,c),
(160,374,l),
(200,419,o),
(263,470,o),
(314,470,cs),
(382,470,o),
(430,415,o),
(430,338,cs),
(430,50,l),
(356,30,l),
(356,0,l)
);
},
{
closed = 1;
nodes = (
(268,0,l),
(268,30,l),
(194,50,l),
(104,50,l),
(13,20,l),
(13,0,l)
);
},
{
closed = 1;
nodes = (
(194,50,l),
(194,718,l),
(196,794,l),
(186,800,l),
(0,745,l),
(0,729,l),
(104,717,l),
(104,50,l)
);
}
);
width = 611;
},
{
anchors = (
{
name = top;
pos = (330,778);
}
);
hints = (
{
horizontal = 1;
place = (-82, -63);
place = (-82, -63);
type = Stem;
},
{
horizontal = 1;
place = (393, -33);
place = (393, -33);
type = Stem;
},
{
place = (-18, 97);
place = (-18, 97);
type = Stem;
},
{
place = (308, 97);
place = (308, 97);
type = Stem;
}
);
layerId = "E0989092-07D5-4BE4-A82B-4E03160A36DB";
shapes = (
{
closed = 1;
nodes = (
(503,-16,o),
(581,3,o),
(624,31,c),
(609,57,l),
(589,44,o),
(565,34,o),
(550,34,cs),
(530,34,o),
(520,46,o),
(520,70,cs),
(520,77,o),
(521,86,o),
(523,96,cs),
(575,366,ls),
(577,375,o),
(577,383,o),
(577,391,cs),
(577,466,o),
(507,517,o),
(397,517,cs),
(362,517,o),
(313,502,o),
(271,478,c),
(319,722,ls),
(320,727,o),
(320,732,o),
(320,736,cs),
(320,788,o),
(269,810,o),
(225,810,cs),
(158,810,o),
(80,791,o),
(37,763,c),
(52,737,l),
(72,750,o),
(96,760,o),
(111,760,cs),
(131,760,o),
(141,748,o),
(141,724,cs),
(141,717,o),
(140,708,o),
(138,698,cs),
(3,0,l),
(179,0,l),
(259,419,l),
(291,443,o),
(331,461,o),
(355,461,cs),
(383,461,o),
(399,432,o),
(399,386,cs),
(399,372,o),
(397,355,o),
(394,338,cs),
(342,72,ls),
(341,67,o),
(341,62,o),
(341,58,cs),
(341,6,o),
(392,-16,o),
(436,-16,cs)
);
}
);
width = 618;
},
{
anchors = (
{
name = top;
pos = (289,736);
}
);
associatedMasterId = m01;
layerId = "ADB94928-DD27-4F0B-B8F3-899B9D37F866";
name = "12. Jan. 24, 21:06";
shapes = (
{
closed = 1;
nodes = (
(145,0,l),
(229,426,l),
(215,399,l),
(260,436,o),
(317,470,o),
(358,470,cs),
(426,470,o),
(463,415,o),
(448,338,cs),
(395,72,l),
(490,96,l),
(543,366,ls),
(560,453,o),
(499,515,o),
(397,515,cs),
(345,515,o),
(276,479,o),
(223,440,c),
(230,430,l),
(285,712,l),
(190,688,l),
(55,0,l)
);
},
{
closed = 1;
nodes = (
(488,-16,o),
(546,3,o),
(590,31,c),
(575,57,l),
(556,44,o),
(532,34,o),
(517,34,cs),
(491,34,o),
(482,54,o),
(490,96,c),
(395,72,l),
(385,10,o),
(401,-16,o),
(449,-16,cs)
);
},
{
closed = 1;
nodes = (
(285,712,l),
(295,774,o),
(279,800,o),
(231,800,cs),
(192,800,o),
(134,781,o),
(90,753,c),
(105,727,l),
(124,740,o),
(148,750,o),
(163,750,cs),
(189,750,o),
(198,730,o),
(190,688,c)
);
}
);
width = 611;
},
{
anchors = (
{
name = top;
pos = (330,778);
}
);
associatedMasterId = "E0989092-07D5-4BE4-A82B-4E03160A36DB";
hints = (
{
horizontal = 1;
place = (-82, -63);
place = (-82, -63);
type = Stem;
},
{
horizontal = 1;
place = (393, -33);
place = (393, -33);
type = Stem;
},
{
place = (-18, 97);
place = (-18, 97);
type = Stem;
},
{
place = (308, 97);
place = (308, 97);
type = Stem;
}
);
layerId = "CF63CBB0-6CD8-4547-AC2B-50F9ADF03112";
name = "12. Jan. 24, 21:07";
shapes = (
{
closed = 1;
nodes = (
(179,0,l),
(260,422,l),
(259,419,l),
(291,443,o),
(331,461,o),
(355,461,cs),
(392,461,o),
(408,410,o),
(394,338,cs),
(342,72,l),
(523,96,l),
(575,366,ls),
(592,455,o),
(519,517,o),
(397,517,cs),
(362,517,o),
(312,502,o),
(270,477,c),
(271,476,l),
(319,722,l),
(138,698,l),
(3,0,l)
);
},
{
closed = 1;
nodes = (
(503,-16,o),
(581,3,o),
(624,31,c),
(609,57,l),
(589,44,o),
(565,34,o),
(550,34,cs),
(530,34,o),
(520,46,o),
(520,70,cs),
(520,77,o),
(521,86,o),
(523,96,c),
(342,72,l),
(341,67,o),
(341,62,o),
(341,58,cs),
(341,6,o),
(392,-16,o),
(436,-16,cs)
);
},
{
closed = 1;
nodes = (
(319,722,l),
(320,727,o),
(320,732,o),
(320,736,cs),
(320,788,o),
(269,810,o),
(225,810,cs),
(158,810,o),
(80,791,o),
(37,763,c),
(52,737,l),
(72,750,o),
(96,760,o),
(111,760,cs),
(131,760,o),
(141,748,o),
(141,724,cs),
(141,717,o),
(140,708,o),
(138,698,c)
);
}
);
width = 628;
}
);
unicode = 104;
},
{
color = 5;
glyphname = hbar;
layers = (
{
layerId = m01;
shapes = (
{
closed = 1;
nodes = (
(368,599,l),
(368,639,l),
(20,639,l),
(20,599,l)
);
},
{
ref = h;
}
);
width = 611;
},
{
associatedMasterId = m01;
layerId = "E9985261-3291-4F33-92F3-764F9EFE2FE5";
name = "3. Jan. 24, 21:15";
shapes = (
{
closed = 1;
nodes = (
(611,0,l),
(611,20,l),
(520,50,l),
(520,366,ls),
(520,453,o),
(447,515,o),
(345,515,cs),
(281,515,o),
(203,462,o),
(157,415,c),
(160,374,l),
(200,419,o),
(263,470,o),
(314,470,cs),
(382,470,o),
(430,415,o),
(430,338,cs),
(430,50,l),
(356,30,l),
(356,0,l)
);
},
{
closed = 1;
nodes = (
(268,0,l),
(268,30,l),
(194,50,l),
(104,50,l),
(13,20,l),
(13,0,l)
);
},
{
closed = 1;
nodes = (
(194,50,l),
(194,718,l),
(196,794,l),
(186,800,l),
(0,745,l),
(0,729,l),
(104,717,l),
(104,50,l)
);
},
{
closed = 1;
nodes = (
(347,599,l),
(347,639,l),
(-1,639,l),
(-1,599,l)
);
}
);
width = 611;
},
{
hints = (
{
horizontal = 1;
place = (-3, 16);
place = (-3, 16);
type = Stem;
},
{
horizontal = 1;
place = (472, 46);
place = (472, 46);
type = Stem;
},
{
horizontal = 1;
place = (596, 46);
place = (596, 46);
type = Stem;
},
{
place = (61, 176);
place = (61, 176);
type = Stem;
},
{
place = (387, 176);
place = (387, 176);
type = Stem;
}
);
layerId = "E0989092-07D5-4BE4-A82B-4E03160A36DB";
shapes = (
{
closed = 1;
nodes = (
(348,589,l),
(348,639,l),
(0,639,l),
(0,589,l)
);
},
{
ref = h;
}
);
width = 628;
}
);
unicode = 295;
},
{
color = 5;
glyphname = hcircumflex;
layers = (
{
background = {
shapes = (
{
closed = 1;
nodes = (
(616,0,l),
(616,20,l),
(508,56,l),
(525,32,l),
(525,366,ls),
(525,453,o),
(452,515,o),
(350,515,cs),
(298,515,o),
(236,479,o),
(190,440,c),
(199,430,l),
(199,718,l),
(201,794,l),
(191,800,l),
(5,745,l),
(5,729,l),
(127,715,l),
(109,735,l),
(109,32,l),
(126,56,l),
(18,20,l),
(18,0,l),
(273,0,l),
(273,30,l),
(182,55,l),
(199,32,l),
(199,426,l),
(190,399,l),
(228,436,o),
(278,470,o),
(319,470,cs),
(387,470,o),
(435,415,o),
(435,338,cs),
(435,32,l),
(452,55,l),
(361,30,l),
(361,0,l)
);
}
);
};
layerId = m01;
shapes = (
{
ref = h;
},
{
alignment = -1;
pos = (-85,40);
ref = circumflexcomb.case;
}
);
width = 591;
},
{
hints = (
{
horizontal = 1;
place = (-3, 16);
place = (-3, 16);
type = Stem;
},
{
horizontal = 1;
place = (462, 45);
place = (462, 45);
type = Stem;
},
{
place = (61, 176);
place = (61, 176);
type = Stem;
},
{
place = (387, 176);
place = (387, 176);
type = Stem;
}
);
layerId = "E0989092-07D5-4BE4-A82B-4E03160A36DB";
shapes = (
{
ref = h;
},
{
alignment = -1;
pos = (-97,68);
ref = circumflexcomb.case;
}
);
width = 618;
}
);
unicode = 293;
},
{
color = 5;
glyphname = idotless;
layers = (
{
anchors = (
{
name = ogo;
pos = (74,0);
},
{
name = top;
pos = (230,500);
}
);
layerId = m01;
shapes = (
{
closed = 1;
nodes = (
(164,-16,o),
(222,3,o),
(266,31,c),
(251,57,l),
(232,44,o),
(208,34,o),
(193,34,cs),
(173,34,o),
(163,46,o),
(163,70,cs),
(163,77,o),
(164,86,o),
(166,96,cs),
(230,422,ls),
(232,434,o),
(233,444,o),
(233,453,cs),
(233,493,o),
(215,510,o),
(176,510,cs),
(137,510,o),
(79,491,o),
(35,463,c),
(50,437,l),
(69,450,o),
(93,460,o),
(108,460,cs),
(128,460,o),
(138,448,o),
(138,424,cs),
(138,417,o),
(137,408,o),
(135,398,cs),
(71,72,ls),
(69,60,o),
(68,50,o),
(68,41,cs),
(68,1,o),
(86,-16,o),
(125,-16,cs)
);
}
);
width = 288;
},
{
anchors = (
{
name = ogo;
pos = (135,0);
},
{
name = top;
pos = (251,500);
}
);
layerId = "E0989092-07D5-4BE4-A82B-4E03160A36DB";
shapes = (
{
closed = 1;
nodes = (
(220,-16,o),
(298,3,o),
(341,31,c),
(326,57,l),
(306,44,o),
(282,34,o),
(267,34,cs),
(247,34,o),
(237,46,o),
(237,70,cs),
(237,77,o),
(238,86,o),
(240,96,cs),
(304,422,ls),
(305,427,o),
(305,432,o),
(305,436,cs),
(305,488,o),
(254,510,o),
(210,510,cs),
(143,510,o),
(65,491,o),
(22,463,c),
(37,437,l),
(57,450,o),
(81,460,o),
(96,460,cs),
(116,460,o),
(126,448,o),
(126,424,cs),
(126,417,o),
(125,408,o),
(123,398,cs),
(59,72,ls),
(58,67,o),
(58,62,o),
(58,58,cs),
(58,6,o),
(109,-16,o),
(153,-16,cs)
);
}
);
width = 368;
},
{
anchors = (
{
name = ogo;
pos = (95,0);
},
{
name = top;
pos = (251,500);
}
);
associatedMasterId = m01;
layerId = "431BE71A-BF6E-4AAC-A18D-70EAEB528821";
name = "12. Jan. 24, 21:08";
shapes = (
{
closed = 1;
nodes = (
(187,96,l),
(251,422,l),
(156,398,l),
(92,72,l)
);
},
{
closed = 1;
nodes = (
(185,-16,o),
(243,3,o),
(287,31,c),
(272,57,l),
(253,44,o),
(229,34,o),
(214,34,cs),
(188,34,o),
(179,54,o),
(187,96,c),
(92,72,l),
(82,10,o),
(98,-16,o),
(146,-16,cs)
);
},
{
closed = 1;
nodes = (
(251,422,l),
(261,484,o),
(245,510,o),
(197,510,cs),
(158,510,o),
(100,491,o),
(56,463,c),
(71,437,l),
(90,450,o),
(114,460,o),
(129,460,cs),
(155,460,o),
(164,440,o),
(156,398,c)
);
}
);
width = 338;
},
{
anchors = (
{
name = ogo;
pos = (135,0);
},
{
name = top;
pos = (251,500);
}
);
associatedMasterId = "E0989092-07D5-4BE4-A82B-4E03160A36DB";
layerId = "C5AEA625-7D3F-45F4-9FBC-31D17DC9A57D";
name = "12. Jan. 24, 21:08";
shapes = (
{
closed = 1;
nodes = (
(240,96,l),
(304,422,l),
(123,398,l),
(59,72,l)
);
},
{
closed = 1;
nodes = (
(220,-16,o),
(298,3,o),
(341,31,c),
(326,57,l),
(306,44,o),
(282,34,o),
(267,34,cs),
(247,34,o),
(237,46,o),
(237,70,cs),
(237,77,o),
(238,86,o),
(240,96,c),
(59,72,l),
(58,67,o),
(58,62,o),
(58,58,cs),
(58,6,o),
(109,-16,o),
(153,-16,cs)
);
},
{
closed = 1;
nodes = (
(304,422,l),
(305,427,o),
(305,432,o),
(305,436,cs),
(305,488,o),
(254,510,o),
(210,510,cs),
(143,510,o),
(65,491,o),
(22,463,c),
(37,437,l),
(57,450,o),
(81,460,o),
(96,460,cs),
(116,460,o),
(126,448,o),
(126,424,cs),
(126,417,o),
(125,408,o),
(123,398,c)
);
}
);
width = 368;
}
);
unicode = 305;
},
{
color = 5;
glyphname = j;
layers = (
{
layerId = m01;
shapes = (
{
alignment = -1;
ref = jdotless;
},
{
alignment = -1;
pos = (-55,0);
ref = dotaccentcomb;
}
);
width = 285;
},
{
associatedMasterId = m01;
layerId = "AD174E00-7E5C-4841-A718-CD0FD23CFE27";
name = "1. Jan. 24, 11:45";
shapes = (
{
closed = 1;
nodes = (
(215,50,l),
(215,434,l),
(217,510,l),
(207,516,l),
(21,461,l),
(21,445,l),
(125,433,l),
(125,50,l)
);
},
{
closed = 1;
nodes = (
(56,-215,l),
(56,-215,o),
(69,-213,o),
(94,-197,cs),
(165,-155,o),
(215,-52,o),
(215,50,c),
(125,50,l),
(125,-59,o),
(92,-159,o),
(46,-192,c),
(46,-194,o),
(50,-204,o),
(55,-215,c)
);
},
{
closed = 1;
nodes = (
(193,598,o),
(220,625,o),
(220,659,cs),
(220,693,o),
(193,720,o),
(160,720,cs),
(125,720,o),
(98,693,o),
(98,659,cs),
(98,625,o),
(125,598,o),
(160,598,cs)
);
}
);
width = 318;
},
{
hints = (
{
horizontal = 1;
place = (-218, 34);
place = (-218, 34);
type = Stem;
},
{
horizontal = 1;
place = (500, -20);
target = down;
type = TopGhost;
},
{
horizontal = 1;
place = (574, 196);
place = (574, 196);
type = Stem;
},
{
place = (82, 176);
place = (82, 176);
type = Stem;
},
{
place = (52, 208);
place = (52, 208);
type = Stem;
}
);
layerId = "E0989092-07D5-4BE4-A82B-4E03160A36DB";
shapes = (
{
alignment = -1;
pos = (-12,0);
ref = jdotless;
},
{
alignment = -1;
pos = (-70,0);
ref = dotaccentcomb;
}
);
width = 305;
}
);
unicode = 106;
},
{
color = 5;
glyphname = jdotless;
layers = (
{
anchors = (
{
name = top;
pos = (234,500);
}
);
layerId = m01;
shapes = (
{
closed = 1;
nodes = (
(-45,-215,o),
(-32,-213,o),
(-4,-197,cs),
(76,-155,o),
(145,-52,o),
(165,50,cs),
(238,422,ls),
(240,434,o),
(241,444,o),
(241,453,cs),
(241,493,o),
(223,510,o),
(184,510,cs),
(145,510,o),
(87,491,o),
(43,463,c),
(58,437,l),
(77,450,o),
(101,460,o),
(116,460,cs),
(136,460,o),
(146,448,o),
(146,424,cs),
(146,417,o),
(145,408,o),
(143,398,cs),
(75,50,ls),
(54,-59,o),
(2,-159,o),
(-51,-192,c),
(-46,-215,l)
);
}
);
width = 275;
},
{
associatedMasterId = m01;
layerId = "1DE9B65E-76D8-4CA9-B06C-536EB58BF2F2";
name = "1. Jan. 24, 11:43";
shapes = (
{
closed = 1;
nodes = (
(215,50,l),
(215,434,l),
(217,510,l),
(207,516,l),
(21,461,l),
(21,445,l),
(125,433,l),
(125,50,l)
);
},
{
closed = 1;
nodes = (
(56,-215,l),
(56,-215,o),
(69,-213,o),
(94,-197,cs),
(165,-155,o),
(215,-52,o),
(215,50,c),
(125,50,l),
(125,-59,o),
(92,-159,o),
(46,-192,c),
(46,-194,o),
(50,-204,o),
(55,-215,c)
);
}
);
width = 315;
},
{
anchors = (
{
name = top;
pos = (260,500);
}
);
layerId = "E0989092-07D5-4BE4-A82B-4E03160A36DB";
shapes = (
{
closed = 1;
nodes = (
(-35,-218,o),
(23,-201,o),
(52,-185,cs),
(137,-138,o),
(211,-40,o),
(229,53,cs),
(301,422,ls),
(302,427,o),
(302,432,o),
(302,436,cs),
(302,488,o),
(251,510,o),
(207,510,cs),
(140,510,o),
(62,491,o),
(19,463,c),
(34,437,l),
(54,450,o),
(78,460,o),
(93,460,cs),
(113,460,o),
(123,448,o),
(123,424,cs),
(123,417,o),
(122,408,o),
(120,398,cs),
(54,55,ls),
(27,-83,o),
(-27,-182,o),
(-76,-184,c),
(-78,-218,l)
);
}
);
width = 325;
},
{
anchors = (
{
name = top;
pos = (260,500);
}
);
associatedMasterId = "E0989092-07D5-4BE4-A82B-4E03160A36DB";
layerId = "0AC8AE5F-165F-497A-BC13-AFA81333BEF2";
name = "12. Jan. 24, 21:10";
shapes = (
{
closed = 1;
nodes = (
(-35,-218,o),
(23,-201,o),
(52,-185,cs),
(137,-138,o),
(211,-40,o),
(229,53,cs),
(301,422,l),
(120,398,l),
(54,55,ls),
(27,-83,o),
(-27,-182,o),
(-76,-184,c),
(-78,-218,l)
);
},
{
closed = 1;
nodes = (
(301,422,l),
(302,427,o),
(302,432,o),
(302,436,cs),
(302,488,o),
(251,510,o),
(207,510,cs),
(140,510,o),
(62,491,o),
(19,463,c),
(34,437,l),
(54,450,o),
(78,460,o),
(93,460,cs),
(113,460,o),
(123,448,o),
(123,424,cs),
(123,417,o),
(122,408,o),
(120,398,c)
);
}
);
width = 325;
},
{
anchors = (
{
name = top;
pos = (279,500);
}
);
associatedMasterId = m01;
layerId = "16849981-08E2-4BD8-B7B4-1F640F11A8ED";
name = "12. Jan. 24, 21:10";
shapes = (
{
closed = 1;
nodes = (
(-15,-215,o),
(-2,-213,o),
(26,-197,cs),
(106,-155,o),
(175,-52,o),
(195,50,cs),
(268,422,l),
(173,398,l),
(105,50,ls),
(84,-59,o),
(32,-159,o),
(-21,-192,c),
(-16,-215,l)
);
},
{
closed = 1;
nodes = (
(268,422,l),
(278,484,o),
(262,510,o),
(214,510,cs),
(175,510,o),
(117,491,o),
(73,463,c),
(88,437,l),
(107,450,o),
(131,460,o),
(146,460,cs),
(172,460,o),
(181,440,o),
(173,398,c)
);
}
);
width = 315;
}
);
unicode = 567;
},
{
color = 5;
glyphname = k;
layers = (
{
layerId = m01;
shapes = (
{
closed = 1;
nodes = (
(125,0,l),
(166,208,l),
(245,271,l),
(359,0,l),
(509,0,l),
(513,20,l),
(446,51,l),
(323,333,l),
(485,462,l),
(563,480,l),
(567,500,l),
(363,500,l),
(360,480,l),
(412,462,l),
(175,255,l),
(265,712,ls),
(267,724,o),
(268,734,o),
(268,743,cs),
(268,783,o),
(250,800,o),
(211,800,cs),
(172,800,o),
(114,781,o),
(70,753,c),
(85,727,l),
(104,740,o),
(128,750,o),
(143,750,cs),
(163,750,o),
(173,738,o),
(173,714,cs),
(173,707,o),
(172,698,o),
(170,688,cs),
(36,0,l)
);
}
);
width = 540;
},
{
associatedMasterId = m01;
layerId = "9B6F67A2-0059-402E-AE8F-5FD6A9989018";
name = "1. Jan. 24, 11:45";
shapes = (
{
closed = 1;
nodes = (
(204,50,l),
(204,718,l),
(206,794,l),
(196,800,l),
(10,745,l),
(10,729,l),
(117,716,l),
(117,50,l)
);
},
{
closed = 1;
nodes = (
(298,0,l),
(298,20,l),
(204,50,l),
(114,50,l),
(23,20,l),
(23,0,l)
);
},
{
closed = 1;
nodes = (
(587,0,l),
(587,20,l),
(513,51,l),
(320,353,l),
(261,290,l),
(437,0,l)
);
},
{
closed = 1;
nodes = (
(473,462,l),
(547,480,l),
(548,500,l),
(344,500,l),
(344,480,l),
(400,462,l),
(177,227,l),
(162,169,l)
);
}
);
width = 580;
},
{
hints = (
{
horizontal = 1;
place = (-82, -63);
place = (-82, -63);
type = Stem;
},
{
horizontal = 1;
place = (408, -63);
place = (408, -63);
type = Stem;
},
{
place = (-4, 92);
place = (-4, 92);
type = Stem;
}
);
layerId = "E0989092-07D5-4BE4-A82B-4E03160A36DB";
shapes = (
{
closed = 1;
nodes = (
(159,0,l),
(201,219,l),
(221,233,l),
(312,0,l),
(553,0,l),
(556,15,l),
(498,47,l),
(376,357,l),
(508,461,l),
(597,482,l),
(600,500,l),
(366,500,l),
(363,484,l),
(429,463,l),
(215,293,l),
(299,722,ls),
(300,727,o),
(300,732,o),
(300,736,cs),
(300,788,o),
(249,810,o),
(205,810,cs),
(138,810,o),
(60,791,o),
(17,763,c),
(32,737,l),
(52,750,o),
(76,760,o),
(91,760,cs),
(111,760,o),
(121,748,o),
(121,724,cs),
(121,717,o),
(120,708,o),
(118,698,cs),
(-17,0,l)
);
}
);
width = 572;
},
{
associatedMasterId = m01;
layerId = "963705C6-6E49-4700-8DEA-A2DFA1230322";
name = "12. Jan. 24, 21:11";
shapes = (
{
closed = 1;
nodes = (
(155,0,l),
(200,227,l),
(182,197,l),
(292,284,l),
(269,285,l),
(389,0,l),
(539,0,l),
(543,20,l),
(460,58,l),
(482,36,l),
(346,348,l),
(335,319,l),
(530,474,l),
(497,458,l),
(593,480,l),
(597,500,l),
(393,500,l),
(390,480,l),
(458,456,l),
(457,475,l),
(191,242,l),
(202,237,l),
(295,712,l),
(200,688,l),
(66,0,l)
);
},
{
closed = 1;
nodes = (
(295,712,l),
(305,774,o),
(289,800,o),
(241,800,cs),
(202,800,o),
(144,781,o),
(100,753,c),
(115,727,l),
(134,740,o),
(158,750,o),
(173,750,cs),
(199,750,o),
(208,730,o),
(200,688,c)
);
}
);
width = 580;
},
{
associatedMasterId = "E0989092-07D5-4BE4-A82B-4E03160A36DB";
hints = (
{
horizontal = 1;
place = (-82, -63);
place = (-82, -63);
type = Stem;
},
{
horizontal = 1;
place = (408, -63);
place = (408, -63);
type = Stem;
},
{
place = (-4, 92);
place = (-4, 92);
type = Stem;
}
);
layerId = "2496118E-6928-4E0C-A744-3ADD75F2EE7E";
name = "12. Jan. 24, 21:11";
shapes = (
{
closed = 1;
nodes = (
(169,0,l),
(211,220,l),
(208,217,l),
(233,234,l),
(230,235,l),
(322,0,l),
(563,0,l),
(566,15,l),
(507,48,l),
(509,45,l),
(385,359,l),
(383,355,l),
(522,464,l),
(518,461,l),
(607,482,l),
(610,500,l),
(376,500,l),
(373,484,l),
(441,462,l),
(442,465,l),
(223,291,l),
(225,291,l),
(309,722,l),
(128,698,l),
(-7,0,l)
);
},
{
closed = 1;
nodes = (
(309,722,l),
(310,727,o),
(310,732,o),
(310,736,cs),
(310,788,o),
(259,810,o),
(215,810,cs),
(148,810,o),
(70,791,o),
(27,763,c),
(42,737,l),
(62,750,o),
(86,760,o),
(101,760,cs),
(121,760,o),
(131,748,o),
(131,724,cs),
(131,717,o),
(130,708,o),
(128,698,c)
);
}
);
width = 572;
}
);
unicode = 107;
},
{
color = 5;
glyphname = l;
layers = (
{
anchors = (
{
name = com;
pos = (73,-1);
},
{
name = top;
pos = (316,768);
}
);
layerId = m01;
name = Regular;
shapes = (
{
closed = 1;
nodes = (
(48,60,o),
(47,50,o),
(47,41,cs),
(47,1,o),
(65,-16,o),
(104,-16,cs),
(143,-16,o),
(201,3,o),
(245,31,c),
(230,57,l),
(211,44,o),
(187,34,o),
(172,34,cs),
(152,34,o),
(142,46,o),
(142,70,cs),
(142,77,o),
(143,86,o),
(145,96,cs),
(265,712,ls),
(267,724,o),
(268,734,o),
(268,743,cs),
(268,783,o),
(250,800,o),
(211,800,cs),
(172,800,o),
(114,781,o),
(70,753,c),
(85,727,l),
(104,740,o),
(128,750,o),
(143,750,cs),
(163,750,o),
(173,738,o),
(173,714,cs),
(173,707,o),
(172,698,o),
(170,688,cs),
(50,72,ls)
);
}
);
width = 278;
},
{
associatedMasterId = m01;
layerId = "A15B75CE-A110-42FD-8751-B3CA27D4E7C0";
name = "1. Jan. 24, 11:47";
shapes = (
{
closed = 1;
nodes = (
(209,50,l),
(209,718,l),
(211,794,l),
(201,800,l),
(15,745,l),
(15,729,l),
(119,717,l),
(119,50,l)
);
},
{
closed = 1;
nodes = (
(303,0,l),
(303,19,l),
(209,50,l),
(119,50,l),
(28,20,l),
(28,0,l)
);
}
);
width = 318;
},
{
anchors = (
{
name = com;
pos = (89,0);
},
{
name = top;
pos = (256,768);
}
);
background = {
shapes = (
{
closed = 1;
nodes = (
(20,294,l),
(342,294,l),
(342,314,l),
(269,344,l),
(269,721,l),
(271,787,l),
(263,810,l),
(20,759,l),
(20,729,l),
(93,709,l),
(93,344,l),
(20,314,l)
);
}
);
};
hints = (
{
horizontal = 1;
place = (-82, -64);
place = (-82, -64);
type = Stem;
},
{
place = (-27, 99);
place = (-27, 99);
type = Stem;
}
);
layerId = "E0989092-07D5-4BE4-A82B-4E03160A36DB";
shapes = (
{
closed = 1;
nodes = (
(27,67,o),
(27,62,o),
(27,58,cs),
(27,6,o),
(78,-16,o),
(122,-16,cs),
(189,-16,o),
(267,3,o),
(310,31,c),
(295,57,l),
(275,44,o),
(251,34,o),
(236,34,cs),
(216,34,o),
(206,46,o),
(206,70,cs),
(206,77,o),
(207,86,o),
(209,96,cs),
(331,722,ls),
(332,727,o),
(332,732,o),
(332,736,cs),
(332,788,o),
(281,810,o),
(237,810,cs),
(170,810,o),
(92,791,o),
(49,763,c),
(64,737,l),
(84,750,o),
(108,760,o),
(123,760,cs),
(143,760,o),
(153,748,o),
(153,724,cs),
(153,717,o),
(152,708,o),
(150,698,cs),
(28,72,ls)
);
}
);
width = 312;
},
{
anchors = (
{
name = com;
pos = (77,0);
},
{
name = top;
pos = (244,768);
}
);
associatedMasterId = "E0989092-07D5-4BE4-A82B-4E03160A36DB";
background = {
shapes = (
{
closed = 1;
nodes = (
(8,294,l),
(330,294,l),
(330,314,l),
(257,344,l),
(257,721,l),
(259,787,l),
(251,810,l),
(8,759,l),
(8,729,l),
(81,709,l),
(81,344,l),
(8,314,l)
);
}
);
};
hints = (
{
horizontal = 1;
place = (-82, -64);
place = (-82, -64);
type = Stem;
},
{
place = (-27, 99);
place = (-27, 99);
type = Stem;
}
);
layerId = "7CA1E1B1-10CE-4836-88B8-FAE1D6F88374";
name = "12. Jan. 24, 21:11";
shapes = (
{
closed = 1;
nodes = (
(197,96,l),
(319,722,l),
(138,698,l),
(16,72,l)
);
},
{
closed = 1;
nodes = (
(177,-16,o),
(255,3,o),
(298,31,c),
(283,57,l),
(263,44,o),
(239,34,o),
(224,34,cs),
(204,34,o),
(194,46,o),
(194,70,cs),
(194,77,o),
(195,86,o),
(197,96,c),
(16,72,l),
(15,67,o),
(15,62,o),
(15,58,cs),
(15,6,o),
(66,-16,o),
(110,-16,cs)
);
},
{
closed = 1;
nodes = (
(319,722,l),
(320,727,o),
(320,732,o),
(320,736,cs),
(320,788,o),
(269,810,o),
(225,810,cs),
(158,810,o),
(80,791,o),
(37,763,c),
(52,737,l),
(72,750,o),
(96,760,o),
(111,760,cs),
(131,760,o),
(141,748,o),
(141,724,cs),
(141,717,o),
(140,708,o),
(138,698,c)
);
}
);
width = 302;
},
{
anchors = (
{
name = com;
pos = (97,-1);
},
{
name = top;
pos = (340,768);
}
);
associatedMasterId = m01;
layerId = "2FE90747-BFB8-4B4D-B33D-BF6B67154DB5";
name = "12. Jan. 24, 21:11";
shapes = (
{
closed = 1;
nodes = (
(169,96,l),
(289,712,l),
(194,688,l),
(74,72,l)
);
},
{
closed = 1;
nodes = (
(167,-16,o),
(225,3,o),
(269,31,c),
(254,57,l),
(235,44,o),
(211,34,o),
(196,34,cs),
(170,34,o),
(161,54,o),
(169,96,c),
(74,72,l),
(64,10,o),
(80,-16,o),
(128,-16,cs)
);
},
{
closed = 1;
nodes = (
(289,712,l),
(299,774,o),
(283,800,o),
(235,800,cs),
(196,800,o),
(138,781,o),
(94,753,c),
(109,727,l),
(128,740,o),
(152,750,o),
(167,750,cs),
(193,750,o),
(202,730,o),
(194,688,c)
);
}
);
width = 318;
}
);
unicode = 108;
},
{
color = 5;
glyphname = lslash;
layers = (
{
layerId = m01;
shapes = (
{
closed = 1;
nodes = (
(329,464,l),
(309,503,l),
(27,350,l),
(47,311,l)
);
},
{
pos = (10,0);
ref = l;
}
);
width = 328;
},
{
hints = (
{
horizontal = 1;
place = (-3, 15);
place = (-3, 15);
type = Stem;
},
{
place = (76, 176);
place = (76, 176);
type = Stem;
}
);
layerId = "E0989092-07D5-4BE4-A82B-4E03160A36DB";
shapes = (
{
closed = 1;
nodes = (
(327,450,l),
(299,503,l),
(-3,350,l),
(25,297,l)
);
},
{
ref = l;
}
);
width = 320;
}
);
unicode = 322;
},
{
color = 5;
glyphname = m;
layers = (
{
layerId = m01;
shapes = (
{
closed = 1;
nodes = (
(737,-16,o),
(795,3,o),
(839,31,c),
(824,57,l),
(805,44,o),
(781,34,o),
(766,34,cs),
(746,34,o),
(736,46,o),
(736,70,cs),
(736,77,o),
(737,86,o),
(739,96,cs),
(796,386,ls),
(798,394,o),
(798,402,o),
(798,409,cs),
(798,473,o),
(743,515,o),
(656,515,cs),
(613,515,o),
(555,487,o),
(506,443,c),
(490,487,o),
(440,515,o),
(370,515,cs),
(323,515,o),
(274,488,o),
(235,452,c),
(235,493,o),
(217,510,o),
(178,510,cs),
(139,510,o),
(81,491,o),
(37,463,c),
(52,437,l),
(71,450,o),
(95,460,o),
(110,460,cs),
(130,460,o),
(140,448,o),
(140,424,cs),
(140,417,o),
(139,408,o),
(137,398,cs),
(60,0,l),
(150,0,l),
(228,411,l),
(258,444,o),
(296,470,o),
(330,470,cs),
(383,470,o),
(417,436,o),
(417,384,cs),
(417,376,o),
(416,367,o),
(414,358,cs),
(345,0,l),
(435,-1,l),
(510,386,ls),
(511,394,o),
(512,401,o),
(512,408,c),
(552,446,o),
(591,470,o),
(616,470,cs),
(669,470,o),
(703,436,o),
(703,384,cs),
(703,376,o),
(702,367,o),
(700,358,cs),
(644,72,ls),
(642,60,o),
(641,50,o),
(641,41,cs),
(641,1,o),
(659,-16,o),
(698,-16,cs)
);
}
);
width = 877;
},
{
associatedMasterId = m01;
layerId = "FAD1F498-5E4E-41A1-99D8-AD97216B36F5";
name = "1. Jan. 24, 11:48";
shapes = (
{
closed = 1;
nodes = (
(867,0,l),
(867,20,l),
(776,50,l),
(776,386,ls),
(776,462,o),
(708,515,o),
(611,515,cs),
(559,515,o),
(493,474,o),
(453,415,c),
(456,364,l),
(494,426,o),
(546,470,o),
(580,470,cs),
(642,470,o),
(686,424,o),
(686,358,cs),
(686,50,l),
(612,30,l),
(612,0,l)
);
},
{
closed = 1;
nodes = (
(280,0,l),
(280,30,l),
(204,50,l),
(204,434,l),
(197,510,l),
(187,516,l),
(10,461,l),
(10,445,l),
(114,433,l),
(114,50,l),
(20,20,l),
(20,0,l)
);
},
{
closed = 1;
nodes = (
(561,0,l),
(561,30,l),
(490,49,l),
(490,386,ls),
(490,462,o),
(422,515,o),
(325,515,cs),
(255,515,o),
(190,454,o),
(167,395,c),
(170,344,l),
(189,406,o),
(240,470,o),
(294,470,cs),
(356,470,o),
(400,424,o),
(400,358,cs),
(400,50,l),
(326,30,l),
(326,0,l)
);
}
);
width = 877;
},
{
background = {
shapes = (
{
closed = 0;
nodes = (
(926,0,l),
(926,20,l),
(848,52,l),
(853,40,l)
);
}
);
};
hints = (
{
horizontal = 1;
place = (-53, -34);
place = (-53, -34);
type = Stem;
},
{
horizontal = 1;
place = (417, 1);
place = (417, 1);
type = Stem;
},
{
place = (4, 127);
place = (4, 127);
type = Stem;
},
{
place = (307, 126);
place = (307, 126);
type = Stem;
},
{
place = (609, 127);
place = (609, 127);
type = Stem;
},
{
horizontal = 1;
place = (-53, -22);
place = (-53, -22);
type = Stem;
}
);
layerId = "E0989092-07D5-4BE4-A82B-4E03160A36DB";
shapes = (
{
closed = 1;
nodes = (
(802,-16,o),
(880,3,o),
(923,31,c),
(908,57,l),
(888,44,o),
(864,34,o),
(849,34,cs),
(829,34,o),
(819,46,o),
(819,70,cs),
(819,77,o),
(820,86,o),
(822,96,cs),
(880,396,ls),
(881,402,o),
(882,408,o),
(882,414,cs),
(882,475,o),
(814,516,o),
(712,516,cs),
(663,516,o),
(601,495,o),
(563,463,c),
(535,497,o),
(482,516,o),
(410,516,cs),
(371,516,o),
(322,504,o),
(272,469,c),
(256,497,o),
(218,510,o),
(185,510,cs),
(118,510,o),
(40,491,o),
(-3,463,c),
(12,437,l),
(32,450,o),
(56,460,o),
(71,460,cs),
(91,460,o),
(101,448,o),
(101,424,cs),
(101,417,o),
(100,408,o),
(98,398,cs),
(23,1,l),
(199,0,l),
(283,433,l),
(312,452,o),
(338,462,o),
(352,462,cs),
(382,462,o),
(399,439,o),
(399,400,cs),
(399,390,o),
(398,379,o),
(396,368,cs),
(325,0,l),
(501,0,l),
(578,396,ls),
(580,404,o),
(579,422,o),
(577,429,c),
(610,451,o),
(639,462,o),
(654,462,cs),
(684,462,o),
(701,439,o),
(701,400,cs),
(701,390,o),
(700,379,o),
(698,368,cs),
(641,72,ls),
(640,67,o),
(640,62,o),
(640,58,cs),
(640,6,o),
(691,-16,o),
(735,-16,cs)
);
}
);
width = 926;
},
{
associatedMasterId = m01;
layerId = "F936E1F0-6485-4210-94D6-E01E94EC091F";
name = "12. Jan. 24, 21:12";
shapes = (
{
closed = 1;
nodes = (
(515,386,ls),
(517,398,o),
(517,408,o),
(518,420,c),
(505,396,l),
(549,441,o),
(593,470,o),
(621,470,cs),
(683,470,o),
(718,424,o),
(705,358,cs),
(649,72,l),
(744,96,l),
(801,386,ls),
(816,462,o),
(758,515,o),
(661,515,cs),
(615,515,o),
(551,483,o),
(500,433,c),
(514,434,l),
(502,483,o),
(450,515,o),
(375,515,cs),
(324,515,o),
(271,483,o),
(230,443,c),
(237,422,l),
(142,398,l),
(65,0,l),
(155,0,l),
(236,425,l),
(225,401,l),
(256,439,o),
(298,470,o),
(335,470,cs),
(397,470,o),
(432,424,o),
(419,358,cs),
(350,0,l),
(440,-1,l)
);
},
{
closed = 1;
nodes = (
(237,422,l),
(247,484,o),
(231,510,o),
(183,510,cs),
(144,510,o),
(86,491,o),
(42,463,c),
(57,437,l),
(76,450,o),
(100,460,o),
(115,460,cs),
(141,460,o),
(150,440,o),
(142,398,c)
);
},
{
closed = 1;
nodes = (
(742,-16,o),
(800,3,o),
(844,31,c),
(829,57,l),
(810,44,o),
(786,34,o),
(771,34,cs),
(745,34,o),
(736,54,o),
(744,96,c),
(649,72,l),
(639,10,o),
(655,-16,o),
(703,-16,cs)
);
}
);
width = 877;
},
{
associatedMasterId = "E0989092-07D5-4BE4-A82B-4E03160A36DB";
background = {
shapes = (
{
closed = 0;
nodes = (
(926,0,l),
(926,20,l),
(848,52,l),
(853,40,l)
);
}
);
};
hints = (
{
horizontal = 1;
place = (-53, -34);
place = (-53, -34);
type = Stem;
},
{
horizontal = 1;
place = (417, 1);
place = (417, 1);
type = Stem;
},
{
place = (4, 127);
place = (4, 127);
type = Stem;
},
{
place = (307, 126);
place = (307, 126);
type = Stem;
},
{
place = (609, 127);
place = (609, 127);
type = Stem;
},
{
horizontal = 1;
place = (-53, -22);
place = (-53, -22);
type = Stem;
}
);
layerId = "6A8D61E5-5819-40EC-A61B-707CA1D1ACD0";
name = "12. Jan. 24, 21:12";
shapes = (
{
closed = 1;
nodes = (
(283,435,l),
(281,432,l),
(311,452,o),
(338,462,o),
(352,462,cs),
(389,462,o),
(407,426,o),
(396,368,cs),
(325,0,l),
(501,0,l),
(578,396,ls),
(580,407,o),
(580,419,o),
(577,430,c),
(576,428,l),
(609,451,o),
(639,462,o),
(654,462,cs),
(691,462,o),
(709,426,o),
(698,368,cs),
(641,72,l),
(822,96,l),
(880,396,ls),
(894,467,o),
(824,516,o),
(712,516,cs),
(662,516,o),
(599,494,o),
(561,462,c),
(564,462,l),
(537,496,o),
(483,516,o),
(410,516,cs),
(371,516,o),
(322,504,o),
(292,483,c),
(251,454,l),
(98,398,l),
(23,1,l),
(199,0,l)
);
},
{
closed = 1;
nodes = (
(279,422,l),
(280,427,o),
(280,432,o),
(280,436,cs),
(280,488,o),
(229,510,o),
(185,510,cs),
(118,510,o),
(40,491,o),
(-3,463,c),
(12,437,l),
(32,450,o),
(56,460,o),
(71,460,cs),
(91,460,o),
(101,448,o),
(101,424,cs),
(101,417,o),
(100,408,o),
(98,398,c)
);
},
{
closed = 1;
nodes = (
(802,-16,o),
(880,3,o),
(923,31,c),
(908,57,l),
(888,44,o),
(864,34,o),
(849,34,cs),
(829,34,o),
(819,46,o),
(819,70,cs),
(819,77,o),
(820,86,o),
(822,96,c),
(641,72,l),
(640,67,o),
(640,62,o),
(640,58,cs),
(640,6,o),
(691,-16,o),
(735,-16,cs)
);
}
);
width = 926;
}
);
unicode = 109;
},
{
color = 5;
glyphname = n;
layers = (
{
anchors = (
{
name = top;
pos = (397,500);
}
);
layerId = m01;
shapes = (
{
closed = 1;
nodes = (
(502,-16,o),
(560,3,o),
(604,31,c),
(589,57,l),
(570,44,o),
(546,34,o),
(531,34,cs),
(511,34,o),
(501,46,o),
(501,70,cs),
(501,77,o),
(502,86,o),
(504,96,cs),
(557,366,ls),
(559,376,o),
(560,386,o),
(560,396,cs),
(560,467,o),
(506,515,o),
(421,515,cs),
(371,515,o),
(299,475,o),
(244,432,c),
(245,440,o),
(246,447,o),
(246,454,cs),
(246,493,o),
(228,510,o),
(189,510,cs),
(150,510,o),
(92,491,o),
(48,463,c),
(63,437,l),
(82,450,o),
(106,460,o),
(121,460,cs),
(141,460,o),
(151,448,o),
(151,424,cs),
(151,417,o),
(150,408,o),
(148,398,cs),
(69,0,l),
(159,0,l),
(235,383,l),
(281,424,o),
(340,464,o),
(380,464,cs),
(432,464,o),
(465,429,o),
(465,372,cs),
(465,361,o),
(464,350,o),
(462,338,cs),
(409,72,ls),
(407,60,o),
(406,50,o),
(406,41,cs),
(406,1,o),
(424,-16,o),
(463,-16,cs)
);
}
);
width = 631;
},
{
associatedMasterId = m01;
layerId = "C9AB8D55-AC24-43D7-9F96-D292913457A9";
name = "1. Jan. 24, 11:49";
shapes = (
{
closed = 1;
nodes = (
(621,0,l),
(621,20,l),
(530,50,l),
(530,366,ls),
(530,453,o),
(462,515,o),
(365,515,cs),
(307,515,o),
(233,462,o),
(187,415,c),
(190,368,l),
(230,413,o),
(289,464,o),
(334,464,cs),
(396,464,o),
(440,415,o),
(440,338,cs),
(440,50,l),
(366,20,l),
(366,0,l)
);
},
{
closed = 1;
nodes = (
(280,0,l),
(280,20,l),
(204,50,l),
(204,434,l),
(197,510,l),
(187,516,l),
(10,461,l),
(10,445,l),
(114,433,l),
(114,50,l),
(20,20,l),
(20,0,l)
);
}
);
width = 631;
},
{
anchors = (
{
name = top;
pos = (413,500);
}
);
hints = (
{
horizontal = 1;
place = (-53, -35);
place = (-53, -35);
type = Stem;
},
{
horizontal = 1;
place = (450, -20);
target = down;
type = TopGhost;
},
{
place = (36, 126);
place = (36, 126);
type = Stem;
},
{
place = (362, 126);
place = (362, 126);
type = Stem;
},
{
horizontal = 1;
place = (411, 7);
place = (411, 7);
type = Stem;
}
);
layerId = "E0989092-07D5-4BE4-A82B-4E03160A36DB";
shapes = (
{
closed = 1;
nodes = (
(524,-16,o),
(602,3,o),
(645,31,c),
(630,57,l),
(610,44,o),
(586,34,o),
(571,34,cs),
(551,34,o),
(541,46,o),
(541,70,cs),
(541,77,o),
(542,86,o),
(544,96,cs),
(596,366,ls),
(598,375,o),
(598,383,o),
(598,391,cs),
(598,466,o),
(527,517,o),
(417,517,cs),
(377,517,o),
(318,497,o),
(275,467,c),
(274,469,o),
(273,471,o),
(272,472,cs),
(254,499,o),
(219,510,o),
(187,510,cs),
(120,510,o),
(42,491,o),
(-1,463,c),
(14,437,l),
(34,450,o),
(58,460,o),
(73,460,cs),
(93,460,o),
(103,448,o),
(103,424,cs),
(103,417,o),
(102,408,o),
(100,398,cs),
(23,0,l),
(198,0,l),
(281,420,l),
(314,444,o),
(351,461,o),
(375,461,cs),
(403,461,o),
(419,432,o),
(419,386,cs),
(419,372,o),
(417,355,o),
(414,338,cs),
(363,72,ls),
(362,67,o),
(362,62,o),
(362,58,cs),
(362,6,o),
(413,-16,o),
(457,-16,cs)
);
}
);
width = 648;
},
{
anchors = (
{
name = top;
pos = (413,500);
}
);
associatedMasterId = "E0989092-07D5-4BE4-A82B-4E03160A36DB";
background = {
shapes = (
{
closed = 1;
nodes = (
(270,0,l),
(270,20,l),
(177,57,l),
(194,32,l),
(194,401,l),
(185,374,l),
(225,418,o),
(281,464,o),
(324,464,cs),
(386,464,o),
(430,415,o),
(430,338,cs),
(430,32,l),
(447,57,l),
(356,20,l),
(356,0,l),
(611,0,l),
(611,20,l),
(503,56,l),
(520,32,l),
(520,366,ls),
(520,453,o),
(452,515,o),
(355,515,cs),
(301,515,o),
(232,469,o),
(185,423,c),
(194,413,l),
(196,510,l),
(186,516,l),
(0,461,l),
(0,445,l),
(122,431,l),
(104,451,l),
(104,32,l),
(121,55,l),
(10,20,l),
(10,0,l)
);
}
);
};
hints = (
{
horizontal = 1;
place = (-53, -35);
place = (-53, -35);
type = Stem;
},
{
horizontal = 1;
place = (450, -20);
target = down;
type = TopGhost;
},
{
place = (36, 126);
place = (36, 126);
type = Stem;
},
{
place = (362, 126);
place = (362, 126);
type = Stem;
},
{
horizontal = 1;
place = (411, 7);
place = (411, 7);
type = Stem;
}
);
layerId = "5AED0E3C-5F5D-4B7F-A3A1-B0C3F14D9FC9";
name = "11. Jan. 24, 20:27";
shapes = (
{
closed = 1;
nodes = (
(262,0,l),
(266,20,l),
(199,55,l),
(206,37,l),
(284,437,l),
(266,409,l),
(302,439,o),
(347,461,o),
(375,461,cs),
(412,461,o),
(428,410,o),
(414,338,cs),
(356,37,l),
(373,56,l),
(290,20,l),
(286,0,l),
(598,0,l),
(602,20,l),
(530,52,l),
(533,40,l),
(596,366,ls),
(613,455,o),
(539,517,o),
(417,517,cs),
(377,517,o),
(318,497,o),
(275,467,c),
(290,467,l),
(296,500,l),
(293,516,l),
(40,465,l),
(34,435,l),
(121,410,l),
(105,423,l),
(31,41,l),
(43,54,l),
(-46,20,l),
(-50,0,l)
);
}
);
width = 648;
},
{
anchors = (
{
name = top;
pos = (401,500);
}
);
associatedMasterId = m01;
layerId = "96322A77-1E20-430A-8EE2-CD5E55F0BB2B";
name = "11. Jan. 24, 20:27";
shapes = (
{
closed = 1;
nodes = (
(240,0,l),
(244,20,l),
(158,57,l),
(170,32,l),
(242,401,l),
(228,374,l),
(276,418,o),
(341,464,o),
(384,464,cs),
(446,464,o),
(481,415,o),
(466,338,cs),
(406,32,l),
(428,57,l),
(330,20,l),
(326,0,l),
(581,0,l),
(585,20,l),
(484,56,l),
(496,32,l),
(561,366,ls),
(578,453,o),
(522,515,o),
(425,515,cs),
(371,515,o),
(293,469,o),
(237,423,c),
(244,413,l),
(265,510,l),
(256,516,l),
(59,461,l),
(56,445,l),
(176,431,l),
(162,451,l),
(80,32,l),
(102,55,l),
(-16,20,l),
(-20,0,l)
);
}
);
width = 631;
},
{
anchors = (
{
name = top;
pos = (413,500);
}
);
associatedMasterId = "E0989092-07D5-4BE4-A82B-4E03160A36DB";
hints = (
{
horizontal = 1;
place = (-53, -35);
place = (-53, -35);
type = Stem;
},
{
horizontal = 1;
place = (450, -20);
target = down;
type = TopGhost;
},
{
place = (36, 126);
place = (36, 126);
type = Stem;
},
{
place = (362, 126);
place = (362, 126);
type = Stem;
},
{
horizontal = 1;
place = (411, 7);
place = (411, 7);
type = Stem;
}
);
layerId = "383C5434-3E6D-4519-B460-47AC5C47A054";
name = "12. Jan. 24, 21:17";
shapes = (
{
closed = 1;
nodes = (
(198,0,l),
(284,437,l),
(266,409,l),
(302,439,o),
(347,461,o),
(375,461,cs),
(403,461,o),
(419,432,o),
(419,386,cs),
(419,372,o),
(417,355,o),
(414,338,cs),
(363,72,l),
(544,96,l),
(596,366,ls),
(598,375,o),
(598,383,o),
(598,391,cs),
(598,466,o),
(527,517,o),
(417,517,cs),
(377,517,o),
(318,497,o),
(275,467,c),
(261,458,l),
(100,398,l),
(23,0,l)
);
},
{
closed = 1;
nodes = (
(524,-16,o),
(602,3,o),
(645,31,c),
(630,57,l),
(610,44,o),
(586,34,o),
(571,34,cs),
(551,34,o),
(541,46,o),
(541,70,cs),
(541,77,o),
(542,86,o),
(544,96,c),
(363,72,l),
(362,67,o),
(362,62,o),
(362,58,cs),
(362,6,o),
(413,-16,o),
(457,-16,cs)
);
},
{
closed = 1;
nodes = (
(281,422,l),
(282,427,o),
(282,432,o),
(282,436,cs),
(282,488,o),
(231,510,o),
(187,510,cs),
(120,510,o),
(42,491,o),
(-1,463,c),
(14,437,l),
(34,450,o),
(58,460,o),
(73,460,cs),
(93,460,o),
(103,448,o),
(103,424,cs),
(103,417,o),
(102,408,o),
(100,398,c)
);
}
);
width = 648;
},
{
anchors = (
{
name = top;
pos = (401,500);
}
);
associatedMasterId = m01;
layerId = "2C7BF9EE-8BD6-4C17-9648-D633CE237FF9";
name = "12. Jan. 24, 21:17";
shapes = (
{
closed = 1;
nodes = (
(163,0,l),
(242,401,l),
(228,374,l),
(276,418,o),
(341,464,o),
(384,464,cs),
(436,464,o),
(469,429,o),
(469,372,cs),
(469,361,o),
(468,350,o),
(466,338,cs),
(413,72,l),
(508,96,l),
(561,366,ls),
(563,376,o),
(564,386,o),
(564,396,cs),
(564,467,o),
(510,515,o),
(425,515,cs),
(371,515,o),
(293,469,o),
(237,423,c),
(226,414,l),
(247,422,l),
(152,398,l),
(73,0,l)
);
},
{
closed = 1;
nodes = (
(506,-16,o),
(564,3,o),
(608,31,c),
(593,57,l),
(574,44,o),
(550,34,o),
(535,34,cs),
(509,34,o),
(500,54,o),
(508,96,c),
(413,72,l),
(403,10,o),
(419,-16,o),
(467,-16,cs)
);
},
{
closed = 1;
nodes = (
(247,422,l),
(257,484,o),
(241,510,o),
(193,510,cs),
(154,510,o),
(96,491,o),
(52,463,c),
(67,437,l),
(86,450,o),
(110,460,o),
(125,460,cs),
(151,460,o),
(160,440,o),
(152,398,c)
);
}
);
width = 631;
}
);
locked = 1;
unicode = 110;
},
{
color = 5;
glyphname = eng;
layers = (
{
layerId = m01;
shapes = (
{
closed = 1;
nodes = (
(391,-193,o),
(474,-125,o),
(493,-28,cs),
(570,366,ls),
(587,453,o),
(531,515,o),
(434,515,cs),
(380,515,o),
(303,470,o),
(246,424,c),
(255,414,l),
(265,510,l),
(256,516,l),
(68,461,l),
(65,445,l),
(184,431,l),
(170,451,l),
(89,32,l),
(110,55,l),
(-8,20,l),
(-11,0,l),
(249,0,l),
(252,20,l),
(167,57,l),
(179,32,l),
(251,402,l),
(237,375,l),
(285,418,o),
(350,464,o),
(393,464,cs),
(455,464,o),
(489,415,o),
(474,338,cs),
(396,-64,ls),
(384,-125,o),
(351,-168,o),
(315,-168,cs),
(290,-168,o),
(270,-147,o),
(262,-97,c),
(180,-138,l),
(206,-178,o),
(250,-193,o),
(292,-193,cs)
);
}
);
width = 601;
},
{
anchors = (
{
name = top;
pos = (334,500);
}
);
associatedMasterId = m01;
layerId = "158879E4-AD77-4CEC-A014-8A6182E6557D";
name = "1. Jan. 24, 21:44";
shapes = (
{
closed = 1;
nodes = (
(280,0,l),
(280,20,l),
(187,57,l),
(204,32,l),
(204,401,l),
(195,374,l),
(235,418,o),
(291,464,o),
(334,464,cs),
(396,464,o),
(440,415,o),
(440,338,cs),
(440,32,l),
(530,32,l),
(530,366,ls),
(530,453,o),
(462,515,o),
(365,515,cs),
(311,515,o),
(242,469,o),
(195,423,c),
(204,413,l),
(204,434,l),
(197,510,l),
(187,516,l),
(10,461,l),
(10,445,l),
(114,433,l),
(114,32,l),
(131,55,l),
(20,20,l),
(20,0,l)
);
},
{
closed = 1;
nodes = (
(440,32,l),
(440,-64,l),
(440,-125,o),
(415,-168,o),
(379,-168,cs),
(358,-168,o),
(330,-147,o),
(312,-117,c),
(248,-158,l),
(272,-178,o),
(319,-193,o),
(361,-193,cs),
(460,-193,o),
(530,-125,o),
(530,-28,cs),
(530,32,l)
);
}
);
width = 631;
},
{
hints = (
{
horizontal = 1;
place = (-228, -1);
place = (-228, -1);
type = Stem;
},
{
horizontal = 1;
place = (-35, -17);
place = (-35, -17);
type = Stem;
},
{
horizontal = 1;
place = (429, 25);
place = (429, 25);
type = Stem;
},
{
place = (89, 144);
place = (89, 144);
type = Stem;
},
{
place = (415, 144);
place = (415, 144);
type = Stem;
},
{
place = (248, -21);
place = (248, -21);
type = Stem;
}
);
layerId = "E0989092-07D5-4BE4-A82B-4E03160A36DB";
shapes = (
{
closed = 1;
nodes = (
(435,-196,o),
(536,-127,o),
(555,-28,cs),
(632,366,ls),
(650,456,o),
(571,518,o),
(454,518,cs),
(408,518,o),
(340,489,o),
(319,463,c),
(320,462,l),
(328,517,l),
(320,526,l),
(76,454,l),
(72,430,l),
(142,418,l),
(141,420,l),
(67,41,l),
(69,44,l),
(-33,13,l),
(-36,-3,l),
(294,-3,l),
(297,12,l),
(241,43,l),
(243,40,l),
(312,396,l),
(310,392,l),
(347,436,o),
(390,461,o),
(412,461,cs),
(442,461,o),
(468,425,o),
(451,338,cs),
(372,-64,ls),
(361,-123,o),
(338,-165,o),
(318,-165,cs),
(297,-165,o),
(283,-119,o),
(290,-65,c),
(152,-140,l),
(185,-168,o),
(252,-196,o),
(311,-196,cs)
);
}
);
width = 653;
}
);
unicode = 331;
},
{
color = 5;
glyphname = o;
layers = (
{
anchors = (
{
name = top;
pos = (369,500);
}
);
layerId = m01;
shapes = (
{
closed = 1;
nodes = (
(412,-15,o),
(532,172,o),
(532,325,cs),
(532,440,o),
(458,517,o),
(339,517,cs),
(167,517,o),
(41,360,o),
(41,190,cs),
(41,67,o),
(115,-15,o),
(235,-15,cs)
);
},
{
closed = 1;
nodes = (
(184,20,o),
(145,79,o),
(145,181,cs),
(145,291,o),
(190,482,o),
(319,482,cs),
(389,482,o),
(428,425,o),
(428,329,cs),
(428,229,o),
(378,20,o),
(255,20,cs)
);
}
);
width = 570;
},
{
anchors = (
{
name = top;
pos = (384,500);
}
);
hints = (
{
horizontal = 1;
place = (-67, -8);
place = (-67, -8);
type = Stem;
},
{
horizontal = 1;
place = (430, -8);
place = (430, -8);
type = Stem;
},
{
place = (-47, 140);
place = (-47, 140);
type = Stem;
},
{
place = (327, 140);
place = (327, 140);
type = Stem;
}
);
layerId = "E0989092-07D5-4BE4-A82B-4E03160A36DB";
shapes = (
{
closed = 1;
nodes = (
(456,-16,o),
(593,161,o),
(593,317,cs),
(593,436,o),
(501,516,o),
(357,516,cs),
(165,516,o),
(17,372,o),
(17,199,cs),
(17,70,o),
(108,-16,o),
(253,-16,cs)
);
},
{
closed = 1;
nodes = (
(231,25,o),
(204,71,o),
(204,157,cs),
(204,237,o),
(240,475,o),
(327,475,cs),
(379,475,o),
(406,432,o),
(406,351,cs),
(406,282,o),
(367,25,o),
(284,25,cs)
);
}
);
width = 607;
}
);
locked = 1;
unicode = 111;
},
{
color = 5;
glyphname = oslash;
layers = (
{
layerId = m01;
shapes = (
{
closed = 1;
nodes = (
(504,540,l),
(467,566,l),
(70,-39,l),
(107,-64,l)
);
},
{
ref = o;
}
);
width = 566;
},
{
hints = (
{
horizontal = 1;
place = (-18, 41);
place = (-18, 41);
type = Stem;
},
{
horizontal = 1;
place = (479, 20);
place = (479, 20);
type = Stem;
},
{
place = (2, 188);
place = (2, 188);
type = Stem;
},
{
place = (376, 188);
place = (376, 188);
type = Stem;
},
{
horizontal = 1;
place = (479, 41);
place = (479, 41);
type = Stem;
}
);
layerId = "E0989092-07D5-4BE4-A82B-4E03160A36DB";
shapes = (
{
closed = 1;
nodes = (
(515,529,l),
(467,566,l),
(70,-39,l),
(118,-75,l)
);
},
{
ref = o;
}
);
width = 607;
}
);
unicode = 248;
},
{
color = 5;
glyphname = oe;
layers = (
{
layerId = m01;
shapes = (
{
closed = 1;
nodes = (
(670,-13,o),
(755,26,o),
(805,80,c),
(788,108,l),
(743,72,o),
(681,47,o),
(638,47,cs),
(562,47,o),
(518,109,o),
(518,204,cs),
(518,225,o),
(520,248,o),
(525,272,c),
(849,272,l),
(852,282,o),
(854,291,o),
(856,301,cs),
(860,320,o),
(861,339,o),
(861,356,cs),
(861,453,o),
(806,517,o),
(708,517,cs),
(633,517,o),
(563,480,o),
(510,419,c),
(479,480,o),
(419,517,o),
(337,517,cs),
(196,517,o),
(76,409,o),
(46,257,cs),
(41,233,o),
(39,211,o),
(39,190,cs),
(39,67,o),
(113,-15,o),
(233,-15,cs),
(310,-15,o),
(381,21,o),
(435,81,c),
(464,23,o),
(521,-13,o),
(597,-13,cs)
);
},
{
closed = 1;
nodes = (
(143,212,o),
(146,247,o),
(154,285,cs),
(177,407,o),
(240,482,o),
(317,482,cs),
(387,482,o),
(426,425,o),
(426,329,cs),
(426,301,o),
(423,270,o),
(416,236,cs),
(390,102,o),
(327,20,o),
(253,20,cs),
(182,20,o),
(143,79,o),
(143,181,cs)
);
},
{
closed = 1;
nodes = (
(550,412,o),
(607,478,o),
(668,478,cs),
(727,478,o),
(763,428,o),
(763,349,cs),
(763,338,o),
(762,325,o),
(760,313,c),
(530,308,l)
);
}
);
width = 891;
},
{
associatedMasterId = m01;
layerId = "8891401E-2A78-49C5-9FDC-8FEE2301BEB5";
name = "1. Jan. 24, 12:13";
shapes = (
{
closed = 1;
nodes = (
(423,-15,o),
(521,102,o),
(521,267,cs),
(521,413,o),
(423,517,o),
(285,517,cs),
(144,517,o),
(45,409,o),
(45,257,cs),
(45,98,o),
(144,-15,o),
(285,-15,cs)
);
},
{
closed = 1;
nodes = (
(205,20,o),
(147,121,o),
(147,285,cs),
(147,407,o),
(195,482,o),
(272,482,cs),
(362,482,o),
(419,388,o),
(419,236,cs),
(419,102,o),
(372,20,o),
(298,20,cs)
);
},
{
closed = 1;
nodes = (
(721,-13,o),
(799,26,o),
(838,80,c),
(816,108,l),
(778,72,o),
(721,47,o),
(678,47,cs),
(586,47,o),
(521,140,o),
(521,272,c),
(845,272,l),
(857,415,o),
(779,517,o),
(656,517,cs),
(522,517,o),
(427,401,o),
(426,237,cs),
(425,91,o),
(517,-13,o),
(648,-13,cs)
);
},
{
closed = 1;
nodes = (
(519,411,o),
(563,478,o),
(624,478,cs),
(692,478,o),
(743,411,o),
(748,308,c),
(752,312,ls),
(754,314,o),
(702,314,o),
(644,312,cs),
(519,308,l)
);
}
);
width = 891;
},
{
hints = (
{
horizontal = 1;
place = (-65, -6);
place = (-65, -6);
type = Stem;
},
{
horizontal = 1;
place = (221, -3);
place = (221, -3);
type = Stem;
},
{
horizontal = 1;
place = (426, -7);
place = (426, -7);
type = Stem;
},
{
place = (-46, 140);
place = (-46, 140);
type = Stem;
},
{
place = (328, 140);
place = (328, 140);
type = Stem;
},
{
place = (656, 137);
place = (656, 137);
type = Stem;
},
{
horizontal = 1;
place = (-66, 19);
place = (-66, 19);
type = Stem;
},
{
horizontal = 1;
place = (422, -3);
place = (422, -3);
type = Stem;
},
{
place = (328, 138);
place = (328, 138);
type = Stem;
}
);
layerId = "E0989092-07D5-4BE4-A82B-4E03160A36DB";
shapes = (
{
closed = 1;
nodes = (
(689,-18,o),
(796,38,o),
(836,82,c),
(815,116,l),
(744,47,o),
(674,49,o),
(639,49,cs),
(594,49,o),
(560,99,o),
(560,188,cs),
(560,212,o),
(562,240,o),
(568,269,c),
(892,269,l),
(895,279,o),
(897,289,o),
(899,298,cs),
(902,316,o),
(904,333,o),
(904,349,cs),
(904,465,o),
(815,515,o),
(708,515,cs),
(635,515,o),
(571,498,o),
(516,462,c),
(474,500,o),
(412,515,o),
(337,515,cs),
(176,515,o),
(35,417,o),
(4,257,cs),
(0,235,o),
(-2,215,o),
(-2,195,cs),
(-2,64,o),
(91,-17,o),
(233,-17,cs),
(306,-17,o),
(371,3,o),
(428,40,c),
(469,3,o),
(527,-18,o),
(596,-18,cs)
);
},
{
closed = 1;
nodes = (
(184,199,o),
(188,239,o),
(197,285,cs),
(222,415,o),
(274,474,o),
(316,474,cs),
(355,474,o),
(385,431,o),
(385,343,cs),
(385,312,o),
(382,277,o),
(374,236,cs),
(346,94,o),
(292,25,o),
(255,25,cs),
(214,25,o),
(184,72,o),
(184,165,cs)
);
},
{
closed = 1;
nodes = (
(596,420,o),
(640,470,o),
(667,470,cs),
(692,470,o),
(721,464,o),
(721,379,cs),
(721,362,o),
(720,342,o),
(717,317,c),
(575,312,l)
);
}
);
width = 891;
}
);
unicode = 339;
},
{
color = 5;
glyphname = p;
layers = (
{
layerId = m01;
name = Regular;
shapes = (
{
closed = 1;
nodes = (
(80,-236,l),
(129,19,l),
(165,-6,o),
(202,-15,o),
(224,-15,cs),
(367,-15,o),
(492,102,o),
(524,268,cs),
(529,292,o),
(531,316,o),
(531,337,cs),
(531,446,o),
(473,517,o),
(378,517,cs),
(336,517,o),
(271,489,o),
(211,446,c),
(213,491,o),
(195,510,o),
(154,510,cs),
(115,510,o),
(57,491,o),
(13,463,c),
(28,437,l),
(47,450,o),
(71,460,o),
(86,460,cs),
(106,460,o),
(116,448,o),
(116,424,cs),
(116,417,o),
(115,408,o),
(113,398,cs),
(-9,-236,l)
);
},
{
closed = 1;
nodes = (
(202,397,l),
(244,435,o),
(293,461,o),
(327,461,cs),
(390,461,o),
(428,404,o),
(428,317,cs),
(428,295,o),
(425,271,o),
(420,245,cs),
(394,113,o),
(322,20,o),
(246,20,cs),
(220,20,o),
(177,32,o),
(139,67,c)
);
}
);
width = 570;
},
{
associatedMasterId = m01;
layerId = "E53A7676-CD7F-45B4-B6FE-B577B2D90D84";
name = "1. Jan. 24, 11:51";
shapes = (
{
closed = 1;
nodes = (
(443,-15,o),
(545,102,o),
(545,268,cs),
(545,414,o),
(464,517,o),
(350,517,cs),
(297,517,o),
(219,474,o),
(161,413,c),
(153,399,l),
(181,378,l),
(185,380,o),
(188,386,o),
(188,386,c),
(223,430,o),
(273,461,o),
(310,461,cs),
(389,461,o),
(445,372,o),
(445,245,cs),
(445,113,o),
(391,20,o),
(315,20,cs),
(284,20,o),
(224,38,o),
(170,92,cs),
(167,95,l),
(138,60,l),
(147,56,l),
(205,3,o),
(269,-15,o),
(300,-15,cs)
);
},
{
closed = 1;
nodes = (
(293,-200,l),
(293,-180,l),
(199,-150,l),
(109,-150,l),
(18,-180,l),
(18,-200,l)
);
},
{
closed = 1;
nodes = (
(199,-150,l),
(199,436,l),
(192,502,l),
(182,508,l),
(5,463,l),
(5,447,l),
(109,435,l),
(109,-150,l)
);
}
);
width = 600;
},
{
hints = (
{
horizontal = 1;
place = (-233, -14);
place = (-233, -14);
type = Stem;
},
{
horizontal = 1;
place = (-48, 11);
place = (-48, 11);
type = Stem;
},
{
horizontal = 1;
place = (486, -20);
target = down;
type = TopGhost;
},
{
place = (36, 147);
place = (36, 147);
type = Stem;
},
{
place = (372, 156);
place = (372, 156);
type = Stem;
},
{
horizontal = 1;
place = (428, 32);
place = (428, 32);
type = Stem;
}
);
layerId = "E0989092-07D5-4BE4-A82B-4E03160A36DB";
shapes = (
{
closed = 1;
nodes = (
(148,-203,l),
(190,3,l),
(203,-9,o),
(228,-16,o),
(252,-16,cs),
(415,-16,o),
(553,102,o),
(586,268,cs),
(590,288,o),
(592,306,o),
(592,324,cs),
(592,439,o),
(516,516,o),
(396,516,cs),
(357,516,o),
(308,497,o),
(268,461,c),
(254,495,o),
(213,510,o),
(177,510,cs),
(110,510,o),
(32,491,o),
(-11,463,c),
(4,437,l),
(24,450,o),
(48,460,o),
(63,460,cs),
(83,460,o),
(93,448,o),
(93,424,cs),
(93,417,o),
(92,408,o),
(90,398,cs),
(-28,-203,l)
);
},
{
closed = 1;
nodes = (
(272,427,l),
(291,447,o),
(321,461,o),
(345,461,cs),
(384,461,o),
(405,415,o),
(405,343,cs),
(405,314,o),
(402,281,o),
(395,245,cs),
(371,121,o),
(318,34,o),
(267,34,cs),
(243,34,o),
(216,44,o),
(200,60,c)
);
}
);
width = 616;
},
{
associatedMasterId = m01;
layerId = "A0857888-B45B-449E-A690-634E95B43C21";
name = "12. Jan. 24, 21:22";
shapes = (
{
closed = 1;
nodes = (
(102,-236,l),
(154,36,l),
(139,27,l),
(179,-4,o),
(222,-15,o),
(246,-15,cs),
(389,-15,o),
(514,102,o),
(546,268,cs),
(575,414,o),
(514,517,o),
(400,517,cs),
(355,517,o),
(284,485,o),
(221,438,c),
(135,398,l),
(13,-236,l)
);
},
{
closed = 1;
nodes = (
(240,20,o),
(191,34,o),
(150,78,c),
(157,49,l),
(228,417,l),
(215,388,l),
(258,431,o),
(313,461,o),
(349,461,cs),
(428,461,o),
(467,372,o),
(442,245,cs),
(416,113,o),
(344,20,o),
(268,20,cs)
);
},
{
closed = 1;
nodes = (
(230,422,l),
(240,484,o),
(224,510,o),
(176,510,cs),
(137,510,o),
(79,491,o),
(35,463,c),
(50,437,l),
(69,450,o),
(93,460,o),
(108,460,cs),
(134,460,o),
(143,440,o),
(135,398,c)
);
}
);
width = 580;
},
{
associatedMasterId = "E0989092-07D5-4BE4-A82B-4E03160A36DB";
hints = (
{
horizontal = 1;
place = (-233, -14);
place = (-233, -14);
type = Stem;
},
{
horizontal = 1;
place = (-48, 11);
place = (-48, 11);
type = Stem;
},
{
horizontal = 1;
place = (486, -20);
target = down;
type = TopGhost;
},
{
place = (36, 147);
place = (36, 147);
type = Stem;
},
{
place = (372, 156);
place = (372, 156);
type = Stem;
},
{
horizontal = 1;
place = (428, 32);
place = (428, 32);
type = Stem;
}
);
layerId = "06EF5352-7EC5-42C7-A368-4E75A232334A";
name = "12. Jan. 24, 21:22";
shapes = (
{
closed = 1;
nodes = (
(138,-203,l),
(180,5,l),
(178,4,l),
(191,-8,o),
(217,-16,o),
(242,-16,cs),
(405,-16,o),
(543,102,o),
(576,268,cs),
(604,413,o),
(525,516,o),
(386,516,cs),
(347,516,o),
(298,497,o),
(269,471,c),
(243,447,l),
(80,398,l),
(-38,-203,l)
);
},
{
closed = 1;
nodes = (
(232,34,o),
(204,45,o),
(189,61,c),
(190,58,l),
(261,422,l),
(262,427,l),
(281,447,o),
(311,461,o),
(335,461,cs),
(389,461,o),
(410,372,o),
(385,245,cs),
(361,121,o),
(308,34,o),
(257,34,cs)
);
},
{
closed = 1;
nodes = (
(261,422,l),
(262,436,l),
(262,488,o),
(211,510,o),
(167,510,cs),
(100,510,o),
(22,491,o),
(-21,463,c),
(-6,437,l),
(14,450,o),
(38,460,o),
(53,460,cs),
(73,460,o),
(83,448,o),
(83,424,cs),
(83,417,o),
(82,408,o),
(80,398,c)
);
}
);
width = 596;
}
);
unicode = 112;
},
{
color = 5;
glyphname = thorn;
layers = (
{
layerId = m01;
shapes = (
{
closed = 1;
nodes = (
(176,-200,l),
(180,-180,l),
(76,-145,l),
(86,-168,l),
(122,16,l),
(110,2,l),
(131,-6,o),
(156,-12,o),
(179,-12,cs),
(343,-12,o),
(485,111,o),
(519,286,cs),
(545,420,o),
(475,515,o),
(352,515,cs),
(309,515,o),
(251,493,o),
(200,458,c),
(206,448,l),
(258,718,l),
(277,794,l),
(268,800,l),
(71,745,l),
(68,729,l),
(188,715,l),
(174,735,l),
(-2,-168,l),
(20,-144,l),
(-95,-180,l),
(-99,-200,l)
);
},
{
closed = 1;
nodes = (
(192,28,o),
(156,54,o),
(127,86,c),
(130,59,l),
(204,438,l),
(189,410,l),
(231,443,o),
(274,469,o),
(302,469,cs),
(396,469,o),
(446,382,o),
(422,258,cs),
(396,126,o),
(315,28,o),
(228,28,cs)
);
}
);
width = 580;
},
{
associatedMasterId = m01;
layerId = "687E002A-BF2C-46A0-BB2A-B75EDC1D587C";
name = "1. Jan. 24, 12:12";
shapes = (
{
closed = 1;
nodes = (
(199,-150,l),
(199,718,l),
(201,794,l),
(191,800,l),
(5,745,l),
(5,729,l),
(109,717,l),
(109,-150,l)
);
},
{
closed = 1;
nodes = (
(293,-200,l),
(293,-180,l),
(199,-150,l),
(109,-150,l),
(18,-180,l),
(18,-200,l)
);
},
{
closed = 1;
nodes = (
(424,-12,o),
(542,111,o),
(542,286,c),
(450,258,l),
(450,126,o),
(388,28,o),
(301,28,cs),
(258,28,o),
(208,65,o),
(169,104,cs),
(168,105,l),
(110,44,l),
(157,18,l),
(182,0,o),
(225,-12,o),
(260,-12,cs)
);
},
{
closed = 1;
nodes = (
(542,286,l),
(542,420,o),
(453,515,o),
(330,515,cs),
(277,515,o),
(208,482,o),
(162,435,c),
(165,385,l),
(204,430,o),
(255,469,o),
(289,469,cs),
(383,469,o),
(450,382,o),
(450,258,c)
);
}
);
width = 600;
},
{
hints = (
{
horizontal = 1;
place = (-262, -43);
place = (-262, -43);
type = Stem;
},
{
horizontal = 1;
place = (-74, -13);
place = (-74, -13);
type = Stem;
},
{
horizontal = 1;
place = (447, -20);
target = down;
type = TopGhost;
},
{
place = (7, 119);
place = (7, 119);
type = Stem;
},
{
place = (348, 119);
place = (348, 119);
type = Stem;
},
{
horizontal = 1;
place = (-68, 21);
target = up;
type = BottomGhost;
},
{
horizontal = 1;
place = (407, -7);
place = (407, -7);
type = Stem;
},
{
place = (164, -38);
place = (164, -38);
type = Stem;
}
);
layerId = "E0989092-07D5-4BE4-A82B-4E03160A36DB";
shapes = (
{
closed = 1;
nodes = (
(228,-203,l),
(231,-187,l),
(143,-153,l),
(145,-156,l),
(174,-7,l),
(171,-8,l),
(178,-12,o),
(188,-15,o),
(198,-15,cs),
(382,-15,o),
(537,110,o),
(572,286,cs),
(598,422,o),
(511,518,o),
(362,518,cs),
(330,518,o),
(293,513,o),
(272,506,c),
(273,504,l),
(312,705,l),
(329,784,l),
(289,810,l),
(69,738,l),
(65,714,l),
(135,702,l),
(134,704,l),
(-33,-156,l),
(-31,-153,l),
(-127,-187,l),
(-130,-203,l)
);
},
{
closed = 1;
nodes = (
(219,31,o),
(196,34,o),
(181,38,c),
(182,36,l),
(263,452,l),
(260,448,l),
(275,459,o),
(296,466,o),
(311,466,cs),
(380,466,o),
(412,381,o),
(389,261,cs),
(362,126,o),
(300,31,o),
(238,31,cs)
);
}
);
width = 590;
}
);
unicode = 254;
},
{
color = 5;
glyphname = q;
layers = (
{
layerId = m01;
shapes = (
{
closed = 1;
nodes = (
(315,-160,o),
(314,-170,o),
(314,-179,cs),
(314,-219,o),
(332,-236,o),
(371,-236,cs),
(410,-236,o),
(468,-217,o),
(512,-189,c),
(497,-163,l),
(478,-176,o),
(454,-186,o),
(439,-186,cs),
(419,-186,o),
(409,-174,o),
(409,-150,cs),
(409,-143,o),
(410,-134,o),
(412,-124,cs),
(525,460,l),
(482,486,l),
(462,504,o),
(422,516,o),
(385,516,cs),
(218,516,o),
(79,409,o),
(49,258,cs),
(44,233,o),
(42,209,o),
(42,186,cs),
(42,67,o),
(106,-11,o),
(212,-11,cs),
(252,-11,o),
(305,8,o),
(353,38,c),
(317,-148,ls)
);
},
{
closed = 1;
nodes = (
(171,394,o),
(248,471,o),
(335,471,cs),
(367,471,o),
(401,455,o),
(428,429,c),
(361,77,l),
(324,50,o),
(287,34,o),
(262,34,cs),
(187,34,o),
(141,101,o),
(141,204,cs),
(141,229,o),
(144,257,o),
(150,286,cs)
);
}
);
width = 555;
},
{
associatedMasterId = m01;
layerId = "26E9DDFE-E1DA-49A8-A371-9EAED660B458";
name = "1. Jan. 24, 11:52";
shapes = (
{
closed = 1;
nodes = (
(323,-11,o),
(392,22,o),
(438,69,c),
(435,110,l),
(396,65,o),
(345,34,o),
(311,34,cs),
(217,34,o),
(150,138,o),
(150,286,c),
(55,258,l),
(55,100,o),
(144,-11,o),
(270,-11,cs)
);
},
{
closed = 1;
nodes = (
(585,-200,l),
(585,-180,l),
(491,-150,l),
(401,-150,l),
(310,-180,l),
(310,-200,l)
);
},
{
closed = 1;
nodes = (
(491,-150,l),
(491,460,l),
(401,460,l),
(401,-150,l)
);
},
{
closed = 1;
nodes = (
(150,286,l),
(150,394,o),
(212,471,o),
(299,471,cs),
(342,471,o),
(396,442,o),
(431,400,cs),
(432,399,l),
(490,460,l),
(443,486,l),
(420,504,o),
(377,516,o),
(340,516,cs),
(173,516,o),
(55,409,o),
(55,258,c)
);
}
);
width = 585;
},
{
hints = (
{
horizontal = 1;
place = (-234, -15);
place = (-234, -15);
type = Stem;
},
{
horizontal = 1;
place = (-45, 16);
place = (-45, 16);
type = Stem;
},
{
horizontal = 1;
place = (437, 20);
place = (437, 20);
type = Stem;
},
{
place = (-19, 150);
place = (-19, 150);
type = Stem;
},
{
place = (327, 145);
place = (327, 145);
type = Stem;
},
{
horizontal = 1;
place = (-45, 20);
place = (-45, 20);
type = Stem;
}
);
layerId = "E0989092-07D5-4BE4-A82B-4E03160A36DB";
shapes = (
{
closed = 1;
nodes = (
(298,-137,o),
(298,-142,o),
(298,-146,cs),
(298,-198,o),
(349,-220,o),
(393,-220,cs),
(460,-220,o),
(538,-201,o),
(581,-173,c),
(566,-147,l),
(546,-160,o),
(522,-170,o),
(507,-170,cs),
(487,-170,o),
(477,-158,o),
(477,-134,cs),
(477,-127,o),
(478,-118,o),
(480,-108,cs),
(591,464,l),
(544,483,ls),
(496,504,o),
(440,519,o),
(408,519,cs),
(204,519,o),
(46,403,o),
(26,238,cs),
(24,222,o),
(22,207,o),
(22,192,cs),
(22,69,o),
(106,-14,o),
(235,-14,cs),
(258,-14,o),
(296,-9,o),
(325,-2,c),
(299,-132,ls)
);
},
{
closed = 1;
nodes = (
(238,391,o),
(296,461,o),
(356,461,cs),
(372,461,o),
(395,449,o),
(410,434,c),
(336,52,l),
(320,43,o),
(297,37,o),
(285,37,cs),
(234,37,o),
(205,94,o),
(205,183,cs),
(205,216,o),
(209,253,o),
(217,293,cs)
);
}
);
width = 595;
},
{
associatedMasterId = m01;
layerId = "A947B2D4-BDBC-46C4-B40D-4F203E9B829E";
name = "13. Jan. 24, 13:25";
shapes = (
{
closed = 1;
nodes = (
(437,-124,l),
(550,460,l),
(507,486,l),
(487,504,o),
(447,516,o),
(410,516,cs),
(243,516,o),
(104,409,o),
(74,258,cs),
(44,100,o),
(111,-11,o),
(237,-11,cs),
(280,-11,o),
(338,11,o),
(389,46,c),
(381,56,l),
(342,-148,l)
);
},
{
closed = 1;
nodes = (
(435,-236,o),
(493,-217,o),
(537,-189,c),
(522,-163,l),
(503,-176,o),
(479,-186,o),
(464,-186,cs),
(438,-186,o),
(429,-166,o),
(437,-124,c),
(342,-148,l),
(332,-210,o),
(348,-236,o),
(396,-236,cs)
);
},
{
closed = 1;
nodes = (
(193,34,o),
(146,138,o),
(175,286,cs),
(196,394,o),
(273,471,o),
(360,471,cs),
(395,471,o),
(434,451,o),
(462,420,c),
(457,447,l),
(382,59,l),
(398,87,l),
(357,54,o),
(315,34,o),
(287,34,cs)
);
}
);
width = 585;
},
{
associatedMasterId = "E0989092-07D5-4BE4-A82B-4E03160A36DB";
hints = (
{
horizontal = 1;
place = (-234, -15);
place = (-234, -15);
type = Stem;
},
{
horizontal = 1;
place = (-45, 16);
place = (-45, 16);
type = Stem;
},
{
horizontal = 1;
place = (437, 20);
place = (437, 20);
type = Stem;
},
{
place = (-19, 150);
place = (-19, 150);
type = Stem;
},
{
place = (327, 145);
place = (327, 145);
type = Stem;
},
{
horizontal = 1;
place = (-45, 20);
place = (-45, 20);
type = Stem;
}
);
layerId = "507B6618-162A-4D58-A23C-4BBB7237DFF3";
name = "13. Jan. 24, 13:25";
shapes = (
{
closed = 1;
nodes = (
(472,-108,l),
(583,464,l),
(536,483,l),
(488,504,o),
(432,519,o),
(400,519,cs),
(196,519,o),
(38,403,o),
(18,238,cs),
(-5,90,o),
(82,-14,o),
(227,-14,cs),
(250,-14,o),
(289,-9,o),
(318,-2,c),
(317,0,l),
(291,-132,l)
);
},
{
closed = 1;
nodes = (
(452,-220,o),
(530,-201,o),
(573,-173,c),
(558,-147,l),
(538,-160,o),
(514,-170,o),
(499,-170,cs),
(479,-170,o),
(469,-158,o),
(469,-134,cs),
(469,-127,o),
(470,-118,o),
(472,-108,c),
(291,-132,l),
(290,-137,o),
(290,-142,o),
(290,-146,cs),
(290,-198,o),
(341,-220,o),
(385,-220,cs)
);
},
{
closed = 1;
nodes = (
(207,37,o),
(179,143,o),
(209,293,cs),
(230,391,o),
(288,461,o),
(348,461,cs),
(364,461,o),
(388,449,o),
(402,433,c),
(402,436,l),
(327,49,l),
(328,52,l),
(312,43,o),
(289,37,o),
(277,37,cs)
);
}
);
width = 585;
}
);
unicode = 113;
},
{
color = 5;
glyphname = r;
layers = (
{
anchors = (
{
name = com;
pos = (98,0);
},
{
name = top;
pos = (263,500);
}
);
layerId = m01;
shapes = (
{
closed = 1;
nodes = (
(139,0,l),
(206,338,l),
(255,401,o),
(277,429,o),
(304,429,cs),
(328,429,o),
(355,420,o),
(379,403,c),
(436,485,l),
(410,504,o),
(374,517,o),
(330,517,cs),
(324,517,o),
(318,517,o),
(311,517,c),
(219,401,l),
(224,427,o),
(227,427,o),
(227,453,cs),
(227,493,o),
(209,510,o),
(170,510,cs),
(131,510,o),
(73,491,o),
(29,463,c),
(44,437,l),
(63,450,o),
(87,460,o),
(102,460,cs),
(122,460,o),
(132,448,o),
(132,424,cs),
(132,417,o),
(131,408,o),
(129,398,cs),
(51,0,l)
);
}
);
width = 404;
},
{
associatedMasterId = m01;
background = {
shapes = (
{
closed = 1;
nodes = (
(187,516,l),
(192,513,ls),
(195,511,o),
(199,496,o),
(202,460,cs),
(204,434,l),
(204,108,ls),
(204,69,o),
(223,45,o),
(261,35,cs),
(274,32,o),
(280,25,o),
(280,15,cs),
(280,6,o),
(257,0,o),
(214,0,cs),
(20,0,l),
(20,10,ls),
(20,16,o),
(35,25,o),
(67,35,cs),
(99,45,o),
(114,69,o),
(114,107,cs),
(114,370,ls),
(114,411,o),
(92,435,o),
(52,440,cs),
(10,445,l),
(10,453,ls),
(10,458,o),
(28,466,o),
(65,478,cs)
);
},
{
closed = 1;
nodes = (
(244,464,o),
(270,517,o),
(302,517,cs),
(316,517,o),
(335,515,o),
(353,512,cs),
(386,506,o),
(398,481,o),
(390,447,cs),
(382,415,o),
(371,398,o),
(363,403,cs),
(336,416,o),
(307,419,o),
(283,419,cs),
(257,419,o),
(240,404,o),
(221,378,cs),
(192,338,o),
(173,316,o),
(168,323,cs),
(162,332,o),
(170,350,o),
(191,384,cs)
);
}
);
};
layerId = "66529081-EDE8-422A-B9FF-C7E6FD61FFB3";
name = "1. Jan. 24, 11:55";
shapes = (
{
closed = 1;
nodes = (
(202,50,l),
(202,434,l),
(198,509,l),
(187,516,l),
(10,461,l),
(10,445,l),
(114,433,l),
(114,50,l)
);
},
{
closed = 1;
nodes = (
(308,0,l),
(308,20,l),
(202,50,l),
(114,50,l),
(20,20,l),
(20,0,l)
);
},
{
closed = 1;
nodes = (
(223,361,o),
(241,429,o),
(283,429,cs),
(307,429,o),
(336,420,o),
(363,403,c),
(404,485,l),
(370,507,o),
(325,520,o),
(273,517,c),
(157,326,l),
(174,294,l)
);
}
);
width = 424;
},
{
anchors = (
{
name = com;
pos = (92,0);
},
{
name = top;
pos = (307,500);
}
);
hints = (
{
horizontal = 1;
place = (-54, -35);
place = (-54, -35);
type = Stem;
},
{
horizontal = 1;
place = (448, -20);
target = down;
type = TopGhost;
},
{
place = (20, 123);
place = (20, 123);
type = Stem;
},
{
horizontal = 1;
place = (351, 69);
place = (351, 69);
type = Stem;
},
{
place = (20, 113);
place = (20, 113);
type = Stem;
}
);
layerId = "E0989092-07D5-4BE4-A82B-4E03160A36DB";
shapes = (
{
closed = 1;
nodes = (
(195,0,l),
(270,387,l),
(289,399,o),
(312,412,o),
(322,412,cs),
(354,412,o),
(373,388,o),
(405,358,c),
(483,478,l),
(451,513,o),
(406,522,o),
(373,522,cs),
(356,522,o),
(343,520,o),
(335,517,c),
(277,443,l),
(277,444,o),
(277,444,o),
(277,445,cs),
(277,489,o),
(225,510,o),
(182,510,cs),
(115,510,o),
(37,491,o),
(-6,463,c),
(9,437,l),
(29,450,o),
(53,460,o),
(68,460,cs),
(88,460,o),
(98,448,o),
(98,424,cs),
(98,417,o),
(97,408,o),
(95,398,cs),
(19,0,l)
);
}
);
width = 455;
},
{
anchors = (
{
name = com;
pos = (110,0);
},
{
name = top;
pos = (275,500);
}
);
associatedMasterId = m01;
layerId = "EA7DD244-4F7D-41F5-944A-F0E0328EE6EB";
name = "13. Jan. 24, 13:26";
shapes = (
{
closed = 1;
nodes = (
(151,0,l),
(221,355,l),
(203,319,l),
(209,328,o),
(216,336,o),
(222,344,cs),
(267,401,o),
(289,429,o),
(316,429,cs),
(340,429,o),
(367,420,o),
(391,403,c),
(448,485,l),
(418,507,o),
(376,520,o),
(323,517,c),
(218,385,l),
(226,382,l),
(236,422,l),
(141,398,l),
(63,0,l)
);
},
{
closed = 1;
nodes = (
(236,422,l),
(246,484,o),
(230,510,o),
(182,510,cs),
(143,510,o),
(85,491,o),
(41,463,c),
(56,437,l),
(75,450,o),
(99,460,o),
(114,460,cs),
(140,460,o),
(149,440,o),
(141,398,c)
);
}
);
width = 424;
},
{
anchors = (
{
name = com;
pos = (86,0);
},
{
name = top;
pos = (301,500);
}
);
associatedMasterId = "E0989092-07D5-4BE4-A82B-4E03160A36DB";
hints = (
{
horizontal = 1;
place = (-54, -35);
place = (-54, -35);
type = Stem;
},
{
horizontal = 1;
place = (448, -20);
target = down;
type = TopGhost;
},
{
place = (20, 123);
place = (20, 123);
type = Stem;
},
{
horizontal = 1;
place = (351, 69);
place = (351, 69);
type = Stem;
},
{
place = (20, 113);
place = (20, 113);
type = Stem;
}
);
layerId = "E027E3E0-9F71-4951-98D4-5C9C8E6C3871";
name = "13. Jan. 24, 13:26";
shapes = (
{
closed = 1;
nodes = (
(189,0,l),
(264,389,l),
(246,376,l),
(253,381,o),
(259,385,o),
(265,388,cs),
(283,399,o),
(306,412,o),
(316,412,cs),
(348,412,o),
(367,388,o),
(399,358,c),
(477,478,l),
(429,530,o),
(352,525,o),
(329,517,c),
(271,443,l),
(270,422,l),
(89,398,l),
(13,0,l)
);
},
{
closed = 1;
nodes = (
(270,422,l),
(271,427,o),
(271,432,o),
(271,436,cs),
(271,488,o),
(220,510,o),
(176,510,cs),
(109,510,o),
(31,491,o),
(-12,463,c),
(3,437,l),
(23,450,o),
(47,460,o),
(62,460,cs),
(82,460,o),
(92,448,o),
(92,424,cs),
(92,417,o),
(91,408,o),
(89,398,c)
);
}
);
width = 425;
}
);
unicode = 114;
},
{
color = 5;
glyphname = s;
layers = (
{
anchors = (
{
name = ced;
pos = (165,-1);
},
{
name = com;
pos = (165,0);
},
{
name = top;
pos = (283,500);
}
);
background = {
shapes = (
{
closed = 1;
nodes = (
(115,516,o),
(45,460,o),
(45,380,cs),
(45,180,o),
(326,210,o),
(326,110,cs),
(326,54,o),
(280,14,o),
(214,14,cs),
(169,14,o),
(129,45,o),
(106,94,cs),
(68,182,o),
(57,165,o),
(52,34,c),
(88,4,o),
(156,-16,o),
(214,-16,cs),
(315,-16,o),
(386,44,o),
(386,130,cs),
(386,330,o),
(115,300,o),
(115,400,cs),
(115,450,o),
(156,486,o),
(214,486,cs),
(254,486,o),
(289,459,o),
(310,416,cs),
(327,379,o),
(332,360,o),
(342,360,cs),
(355,360,o),
(361,403,o),
(357,481,c),
(327,499,o),
(270,516,o),
(214,516,cs)
);
}
);
};
layerId = m01;
shapes = (
{
closed = 1;
nodes = (
(275,-16,o),
(367,60,o),
(367,165,cs),
(367,252,o),
(292,287,o),
(230,315,cs),
(183,336,o),
(143,355,o),
(143,390,cs),
(143,436,o),
(195,486,o),
(260,486,cs),
(300,486,o),
(331,460,o),
(342,416,cs),
(356,360,l),
(379,360,l),
(403,481,l),
(374,499,o),
(322,516,o),
(266,516,cs),
(156,516,o),
(67,448,o),
(67,346,cs),
(67,258,o),
(144,224,o),
(209,195,cs),
(258,174,o),
(300,155,o),
(300,119,cs),
(300,70,o),
(244,14,o),
(168,14,cs),
(123,14,o),
(89,44,o),
(76,94,cs),
(62,149,l),
(40,149,l),
(10,34,l),
(40,4,o),
(104,-16,o),
(162,-16,cs)
);
}
);
width = 421;
},
{
associatedMasterId = m01;
background = {
shapes = (
{
closed = 1;
nodes = (
(125,516,o),
(55,460,o),
(55,380,cs),
(55,180,o),
(336,210,o),
(336,110,cs),
(336,54,o),
(290,14,o),
(224,14,cs),
(179,14,o),
(139,45,o),
(116,94,cs),
(78,182,o),
(67,165,o),
(62,34,c),
(98,4,o),
(166,-16,o),
(224,-16,cs),
(325,-16,o),
(396,44,o),
(396,130,cs),
(396,330,o),
(125,300,o),
(125,400,cs),
(125,450,o),
(166,486,o),
(224,486,cs),
(264,486,o),
(299,459,o),
(320,416,cs),
(337,379,o),
(342,360,o),
(352,360,cs),
(365,360,o),
(371,403,o),
(367,481,c),
(337,499,o),
(280,516,o),
(224,516,cs)
);
}
);
};
layerId = "DBBBEA9A-309E-401A-8CD2-D99DFACDCE64";
name = "1. Jan. 24, 11:59";
shapes = (
{
closed = 1;
nodes = (
(325,-16,o),
(396,44,o),
(396,130,cs),
(396,325,o),
(125,300,o),
(125,400,cs),
(125,450,o),
(166,486,o),
(224,486,cs),
(264,486,o),
(299,459,o),
(320,416,cs),
(345,360,l),
(368,360,l),
(368,481,l),
(336,499,o),
(280,516,o),
(224,516,cs),
(125,516,o),
(55,460,o),
(55,380,cs),
(55,185,o),
(336,210,o),
(336,110,cs),
(336,54,o),
(290,14,o),
(224,14,cs),
(179,14,o),
(139,45,o),
(116,94,cs),
(92,149,l),
(70,149,l),
(62,34,l),
(98,4,o),
(166,-16,o),
(224,-16,cs)
);
}
);
width = 441;
},
{
anchors = (
{
name = ced;
pos = (176,-1);
},
{
name = com;
pos = (176,0);
},
{
name = top;
pos = (304,500);
}
);
hints = (
{
horizontal = 1;
place = (-68, -13);
place = (-68, -13);
type = Stem;
},
{
horizontal = 1;
place = (434, -13);
place = (434, -13);
type = Stem;
},
{
place = (-9, 30);
place = (-9, 30);
type = Stem;
},
{
place = (244, 97);
place = (244, 97);
type = Stem;
},
{
place = (-37, 107);
place = (-37, 107);
type = Stem;
},
{
place = (274, 23);
place = (274, 23);
type = Stem;
}
);
layerId = "E0989092-07D5-4BE4-A82B-4E03160A36DB";
shapes = (
{
closed = 1;
nodes = (
(291,-19,o),
(421,42,o),
(421,172,cs),
(421,263,o),
(354,305,o),
(292,333,cs),
(247,353,o),
(199,362,o),
(199,400,cs),
(199,438,o),
(241,483,o),
(290,483,cs),
(342,483,o),
(379,454,o),
(378,414,cs),
(377,357,l),
(427,357,l),
(449,471,l),
(404,499,o),
(337,519,o),
(287,519,cs),
(163,519,o),
(34,466,o),
(34,340,cs),
(34,247,o),
(104,205,o),
(170,177,cs),
(216,157,o),
(266,148,o),
(266,110,cs),
(266,69,o),
(217,17,o),
(160,17,cs),
(101,17,o),
(61,50,o),
(63,96,cs),
(65,152,l),
(15,152,l),
(-11,47,l),
(-5,8,o),
(67,-19,o),
(163,-19,cs)
);
}
);
width = 476;
}
);
unicode = 115;
},
{
color = 5;
glyphname = saltillo;
layers = (
{
layerId = m01;
shapes = (
{
closed = 1;
nodes = (
(128,515,l),
(184,700,l),
(112,700,l),
(86,515,l)
);
}
);
width = 160;
},
{
layerId = "E0989092-07D5-4BE4-A82B-4E03160A36DB";
shapes = (
{
closed = 1;
nodes = (
(146,495,l),
(206,700,l),
(114,700,l),
(84,495,l)
);
}
);
width = 180;
}
);
unicode = 42892;
},
{
color = 5;
glyphname = germandbls;
layers = (
{
layerId = m01;
shapes = (
{
closed = 1;
nodes = (
(444,-16,o),
(517,70,o),
(517,171,cs),
(517,257,o),
(457,292,o),
(408,321,cs),
(372,342,o),
(342,360,o),
(342,390,cs),
(342,434,o),
(397,479,o),
(436,510,cs),
(519,576,o),
(544,608,o),
(544,686,cs),
(544,769,o),
(497,814,o),
(409,814,cs),
(284,814,o),
(168,711,o),
(141,566,cs),
(129,502,l),
(22,502,l),
(12,462,l),
(122,462,l),
(32,0,l),
(121,0,l),
(238,598,ls),
(260,709,o),
(319,787,o),
(374,787,cs),
(413,787,o),
(462,708,o),
(462,637,cs),
(462,580,o),
(425,551,o),
(381,512,cs),
(308,448,o),
(277,410,o),
(277,340,cs),
(277,254,o),
(340,218,o),
(392,189,cs),
(429,168,o),
(461,150,o),
(461,119,cs),
(461,84,o),
(425,19,o),
(350,19,cs),
(313,19,o),
(283,45,o),
(273,94,cs),
(264,139,l),
(246,139,l),
(220,34,l),
(243,4,o),
(295,-16,o),
(343,-16,cs)
);
}
);
width = 550;
},
{
associatedMasterId = m01;
layerId = "F985E475-2F89-4C60-B7AF-543DFCCDA5B4";
name = "1. Jan. 24, 12:14";
shapes = (
{
closed = 1;
nodes = (
(507,-16,o),
(565,44,o),
(565,130,cs),
(565,325,o),
(343,310,o),
(343,400,cs),
(343,489,o),
(491,534,o),
(491,634,cs),
(491,750,o),
(433,814,o),
(328,814,cs),
(203,814,o),
(109,711,o),
(109,566,c),
(199,598,l),
(199,709,o),
(244,787,o),
(299,787,cs),
(343,787,o),
(419,687,o),
(419,611,cs),
(419,536,o),
(285,479,o),
(285,380,cs),
(285,185,o),
(516,200,o),
(516,110,cs),
(516,54,o),
(478,19,o),
(424,19,cs),
(387,19,o),
(350,45,o),
(332,94,cs),
(315,139,l),
(297,139,l),
(291,34,l),
(320,4,o),
(376,-16,o),
(424,-16,cs)
);
},
{
closed = 1;
nodes = (
(199,0,l),
(199,50,l),
(109,50,l),
(18,20,l),
(18,0,l)
);
},
{
closed = 1;
nodes = (
(199,50,l),
(199,598,l),
(109,566,l),
(109,50,l)
);
},
{
closed = 1;
nodes = (
(161,462,l),
(161,502,l),
(2,502,l),
(0,462,l)
);
}
);
width = 590;
},
{
hints = (
{
horizontal = 1;
place = (-97, -37);
place = (-97, -37);
type = Stem;
},
{
horizontal = 1;
place = (374, -31);
place = (374, -31);
type = Stem;
},
{
horizontal = 1;
place = (706, -45);
place = (706, -45);
type = Stem;
},
{
place = (-12, 98);
place = (-12, 98);
type = Stem;
},
{
place = (206, -33);
place = (206, -33);
type = Stem;
},
{
place = (395, 57);
place = (395, 57);
type = Stem;
},
{
horizontal = 1;
place = (-78, -61);
place = (-78, -61);
type = Stem;
},
{
place = (205, 42);
place = (205, 42);
type = Stem;
},
{
place = (298, 79);
place = (298, 79);
type = Stem;
}
);
layerId = "E0989092-07D5-4BE4-A82B-4E03160A36DB";
shapes = (
{
closed = 1;
nodes = (
(461,-19,o),
(561,51,o),
(561,177,cs),
(561,263,o),
(503,292,o),
(454,318,cs),
(420,336,o),
(401,351,o),
(401,382,cs),
(401,432,o),
(454,487,o),
(494,518,cs),
(548,559,o),
(582,608,o),
(582,669,cs),
(582,757,o),
(515,817,o),
(409,817,cs),
(256,817,o),
(125,703,o),
(94,543,cs),
(85,499,l),
(18,499,l),
(10,452,l),
(77,452,l),
(-13,0,l),
(164,0,l),
(282,605,ls),
(302,710,o),
(341,784,o),
(374,784,cs),
(412,784,o),
(434,743,o),
(434,680,cs),
(434,636,o),
(419,545,o),
(385,517,cs),
(321,461,o),
(275,412,o),
(275,335,cs),
(275,275,o),
(298,216,o),
(346,192,cs),
(385,173,o),
(418,157,o),
(418,122,cs),
(418,84,o),
(393,22,o),
(351,22,cs),
(337,22,o),
(298,31,o),
(290,96,cs),
(284,142,l),
(234,142,l),
(216,47,ls),
(211,21,o),
(270,-19,o),
(343,-19,cs)
);
}
);
width = 590;
},
{
associatedMasterId = m01;
layerId = "B34D3532-1AC3-4B4B-BC63-59782900381F";
name = "13. Jan. 24, 13:31";
shapes = (
{
closed = 1;
nodes = (
(456,-16,o),
(526,44,o),
(543,130,cs),
(565,246,o),
(494,288,o),
(438,321,cs),
(398,344,o),
(366,364,o),
(373,400,cs),
(382,443,o),
(423,476,o),
(466,510,cs),
(511,546,o),
(559,583,o),
(569,634,cs),
(591,750,o),
(544,814,o),
(439,814,cs),
(314,814,o),
(198,711,o),
(171,566,cs),
(156,484,l),
(177,502,l),
(52,502,l),
(42,462,l),
(169,462,l),
(155,480,l),
(62,0,l),
(151,0,l),
(268,598,ls),
(290,709,o),
(349,787,o),
(404,787,cs),
(448,787,o),
(505,687,o),
(490,611,cs),
(483,576,o),
(448,545,o),
(411,512,cs),
(368,474,o),
(322,433,o),
(311,380,cs),
(289,264,o),
(363,222,o),
(422,189,cs),
(463,166,o),
(497,146,o),
(490,110,cs),
(479,54,o),
(434,19,o),
(380,19,cs),
(343,19,o),
(313,45,o),
(303,94,cs),
(294,139,l),
(276,139,l),
(250,34,l),
(273,4,o),
(325,-16,o),
(373,-16,cs)
);
}
);
width = 590;
},
{
associatedMasterId = "E0989092-07D5-4BE4-A82B-4E03160A36DB";
hints = (
{
horizontal = 1;
place = (-97, -37);
place = (-97, -37);
type = Stem;
},
{
horizontal = 1;
place = (374, -31);
place = (374, -31);
type = Stem;
},
{
horizontal = 1;
place = (706, -45);
place = (706, -45);
type = Stem;
},
{
place = (-12, 98);
place = (-12, 98);
type = Stem;
},
{
place = (206, -33);
place = (206, -33);
type = Stem;
},
{
place = (395, 57);
place = (395, 57);
type = Stem;
},
{
horizontal = 1;
place = (-78, -61);
place = (-78, -61);
type = Stem;
},
{
place = (205, 42);
place = (205, 42);
type = Stem;
},
{
place = (298, 79);
place = (298, 79);
type = Stem;
}
);
layerId = "1CD39E0F-F353-4655-A534-185F0B8950F4";
name = "13. Jan. 24, 13:31";
shapes = (
{
closed = 1;
nodes = (
(434,-19,o),
(527,36,o),
(546,130,cs),
(570,254,o),
(501,288,o),
(444,318,cs),
(404,339,o),
(385,356,o),
(393,400,cs),
(400,433,o),
(437,482,o),
(484,518,cs),
(527,551,o),
(562,599,o),
(569,634,cs),
(589,741,o),
(519,817,o),
(399,817,cs),
(246,817,o),
(115,703,o),
(84,543,cs),
(75,497,l),
(77,499,l),
(8,499,l),
(0,452,l),
(68,452,l),
(67,454,l),
(-13,44,l),
(-19,17,l),
(-23,0,l),
(154,0,l),
(272,605,ls),
(292,710,o),
(331,784,o),
(364,784,cs),
(415,784,o),
(437,712,o),
(417,611,cs),
(409,569,o),
(391,530,o),
(375,517,cs),
(320,469,o),
(276,413,o),
(269,380,cs),
(255,306,o),
(276,222,o),
(336,192,cs),
(379,171,o),
(415,154,o),
(407,110,cs),
(394,44,o),
(367,22,o),
(341,22,cs),
(327,22,o),
(288,31,o),
(280,96,cs),
(274,142,l),
(224,142,l),
(206,47,l),
(201,21,o),
(260,-19,o),
(333,-19,cs)
);
}
);
width = 590;
}
);
unicode = 223;
},
